<svg xmlns="http://www.w3.org/2000/svg" xmlns:xlink="http://www.w3.org/1999/xlink" width="156" height="156" viewBox="0 0 156 156">
  <defs>
    <clipPath id="clip-path">
      <rect id="Rectángulo_456451" data-name="Rectángulo 456451" width="74.841" height="83.66" fill="#12263f"/>
    </clipPath>
  </defs>
  <g id="Grupo_1183881" data-name="Grupo 1183881" transform="translate(-1234.554 -458.054)">
    <g id="Elipse_12108" data-name="Elipse 12108" transform="translate(1241.554 465.054)" fill="#30df8e" stroke="rgba(255,255,255,0.4)" stroke-width="7">
      <circle cx="71" cy="71" r="71" stroke="none"/>
      <circle cx="71" cy="71" r="74.5" fill="none"/>
    </g>
    <g id="Grupo_1186202" data-name="Grupo 1186202" transform="translate(1275.133 494.223)">
      <g id="Grupo_1186201" data-name="Grupo 1186201" clip-path="url(#clip-path)">
        <path id="Trazado_1000794" data-name="Trazado 1000794" d="M83.417,38.454c-.212.21.592,2.236-.989,3.085-4.841,1.913-10.753,2.649-15.509,4.545a3.558,3.558,0,0,0-2.509,3.34c-.48,4.739.611,10.655.008,15.258-.185,1.412-2.081,1.584-2.3.4l-.006-16.707a6.065,6.065,0,0,1,3.5-4.436c4.232-1.837,10.038-2.473,14.418-4.174.284-.11.839-.223.989-.472.823-1.368-1.149-2.157-1.981-3.039a37.893,37.893,0,0,1-2.391-3.041c-.269-.364-1.261-2.112-1.372-2.179-.372-.227-1.2-.046-1.726-.154-3.723-.762-6.015-3.844-4.583-7.61.145-.38.883-1.439.854-1.6-.054-.308-1.227-1-1.172-2.085.071-1.41,2.116-2.734,2.206-3.2.133-.688-2.172-2.425-1.2-4.33.6-1.161,2.263-1.26,3.226-2.01-.755-4.041.3-5.205,4.447-4.835.759-1.979.593-4.151,3.427-3.681.719.119,2.043,1.088,2.513.967C84.142,2.272,84.686.076,86.451,0,88.4-.079,88.9,2.257,89.832,2.5c.47.121,1.794-.847,2.513-.967,2.833-.47,2.667,1.7,3.427,3.681,4.144-.343,5.141.7,4.447,4.835.963.751,2.629.849,3.226,2.01,1.013,1.972-1.331,3.626-1.195,4.33.1.494,2.039,1.659,2.177,3.051.127,1.291-1.079,1.862-1.143,2.231-.029.165.71,1.223.854,1.6,1.432,3.767-.86,6.848-4.583,7.61-.527.108-1.354-.073-1.726.154-.111.067-1.1,1.815-1.372,2.179A28.535,28.535,0,0,1,93.132,37.2c-.289.252-.911.4-1.048.622-.64,1.044.107,1.637.989,1.942,3.577,1.236,13.3,3.068,15.72,4.961a5.856,5.856,0,0,1,2.2,3.65,34.718,34.718,0,0,1-.041,5.183,1.221,1.221,0,0,1-2.217,0c-.307-1.02.1-3.208-.1-4.5a3.475,3.475,0,0,0-2.615-3.025c-4.835-1.816-10.469-2.65-15.351-4.494-1.563-.839-.817-3.085-.989-3.085-.842,0-6.045-.221-6.267,0M78.09,7.746c-.808.179-2.146-.13-3.029,0,.957,3.324.106,4.562-3.134,5.435,1.922,2.615,2.017,4.244-.623,6.368.107.808,3.6.329,3.765.218.183-.124.32-.828.525-1.147a7.523,7.523,0,0,1,4.854-3.711c2.288-.544,8.1-.461,10.6-.279a7.98,7.98,0,0,1,5.7,2.865c.364.46,1.172,2.2,1.28,2.271.163.11,3.616.593,3.765-.218-2.636-2.12-2.546-3.753-.623-6.368-3.239-.873-4.09-2.111-3.134-5.435H95.011a7.168,7.168,0,0,1-1.156-.78,30.211,30.211,0,0,1-1.041-2.98c-1.354.469-2.272,1.357-3.818,1-1.055-.244-1.991-2.328-2.521-2.237-.458.079-1.3,1.99-2.37,2.237-1.546.356-2.464-.531-3.818-1-.393,1.2-.746,3.439-2.2,3.761m3.183,9.45A5.492,5.492,0,0,0,77.243,21.1c-.361,1.739-.259,7.616.454,9.18.543,1.191,3.475,4.977,4.616,5.411s5.881.385,7.276.261A3.778,3.778,0,0,0,91.22,35.5c1.242-.729,4.438-5.154,4.682-6.6a43.546,43.546,0,0,0,.05-7.262,5.4,5.4,0,0,0-4.3-4.472,65.611,65.611,0,0,0-10.377.031m-6.63,5.173c-4.843-.423-4.765,6.349,0,6.058Zm23.814,6.058c4.765.291,4.843-6.481,0-6.058Z" transform="translate(-49.135 0)" fill="#12263f"/>
        <path id="Trazado_1000795" data-name="Trazado 1000795" d="M73.856,282.041h23.5a2.1,2.1,0,0,0,.313-.313V273.58c0-1.719,3.537-2.726,4.563-3.793l.045-14.578c.318-1.944,2.495-1.008,2.495-.43v27.261h3.133V259.166c0-.519,2.029-1.129,2.293.214l-.039,23.766A2.133,2.133,0,0,1,108.8,284.5c-1.005.225-5.178.206-5.9-.487a4.8,4.8,0,0,1-.636-1.244v-9.923l-2.056,1.182c-.542,2.6,1.379,9.507-2.116,10.418H73.432c-3.476-.908-1.586-7.792-2.116-10.418l-2.056-1.182v9.923a4.8,4.8,0,0,1-.636,1.244c-.722.693-4.9.712-5.9.487a1.989,1.989,0,0,1-1.412-1.931,77.45,77.45,0,0,1,.029-11.487c.235-1.679,2.278-.741,2.278-.221v11.176h3.133V254.779c0-.578,2.177-1.514,2.495.43l.045,14.578c1.036,1.047,4.563,2.06,4.563,3.793Z" transform="translate(-48.347 -200.971)" fill="#12263f"/>
        <path id="Trazado_1000796" data-name="Trazado 1000796" d="M12.975,94.3c1.835-.164,4.262.1,3.452,2.5-1.6,1.856-3.194,3.8-4.909,5.544-2.738,2.788-2.818,3.764-5.86.627-1.812-1.868-3.417-3.964-5.312-5.76-1.253-2.562,1.141-3.151,3.23-2.914.3-4.478-.408-9.488-.011-13.9.113-1.255.547-1.625,1.786-1.765a39.685,39.685,0,0,1,6.062,0c.544.063,1.562.6,1.562,1.154Zm-2.3-13.161h-4.6v14.1a3.2,3.2,0,0,1-.929,1.368c-.641.366-1.486-.1-1.576.509l4.7,4.908,4.692-4.908c.2-.463-1.039-.256-1.542-.542a2.522,2.522,0,0,1-.754-.917Z" transform="translate(0 -62.114)" fill="#12263f"/>
        <path id="Trazado_1000797" data-name="Trazado 1000797" d="M284.729,85.729a1.23,1.23,0,0,1-2.254-.044,35.774,35.774,0,0,1-.049-5.392,1.584,1.584,0,0,1,1.567-1.567,36.337,36.337,0,0,1,6.76.143,1.439,1.439,0,0,1,1.083,1.423L291.831,94.4c2.17-.28,4.608.487,3.135,3.028-2.307,1.846-4.411,5.412-6.681,7.107-1.809,1.351-3.12-.789-4.4-2.088-1.715-1.745-3.311-3.689-4.909-5.544-.811-2.4,1.617-2.668,3.452-2.5V90.324c0-.561,2.3-.77,2.3,0v5.431a2.522,2.522,0,0,1-.754.917c-.5.286-1.741.079-1.542.542l4.692,4.908,4.7-4.908c-.09-.611-.935-.143-1.576-.509a3.2,3.2,0,0,1-.929-1.368v-14.1h-4.6c-.212,1.193.287,3.452,0,4.491" transform="translate(-220.574 -62.21)" fill="#12263f"/>
        <path id="Trazado_1000798" data-name="Trazado 1000798" d="M108.207,226.733c.23-.231.767-.24,1.09-.267a60.971,60.971,0,0,1,9.361.056c1.421.287,3.976,3.874,1.827,4.464-1.448.4-1.809-1.853-2.613-2.006l-8.939-.043a1.381,1.381,0,0,1-.726-2.2" transform="translate(-85.364 -179.038)" fill="#12263f"/>
        <path id="Trazado_1000799" data-name="Trazado 1000799" d="M199.242,226.733a1.381,1.381,0,0,1-.726,2.2l-8.939.043c-.8.153-1.165,2.4-2.613,2.006-2.15-.59.405-4.176,1.827-4.464a60.971,60.971,0,0,1,9.361-.056c.324.027.86.036,1.09.267" transform="translate(-147.253 -179.038)" fill="#12263f"/>
        <path id="Trazado_1000800" data-name="Trazado 1000800" d="M183.618,323.969c1.523-.435,1.6,1.1,2.108,1.986a5.751,5.751,0,0,0,2.191,2.2c.991.611,3.683,1.188,3.681,2.362,0,2.743-4.953-.152-5.934-.945-1.014-.82-4.483-4.9-2.046-5.6" transform="translate(-144.587 -256.232)" fill="#12263f"/>
        <path id="Trazado_1000801" data-name="Trazado 1000801" d="M140.361,324.13a1.192,1.192,0,0,1,1.537,1.109c.164,2.637-4.62,6.292-7.038,6.568-1.417.161-2.33-.991-1.345-1.979.68-.682,3.325-1.192,4.611-2.49.886-.894,1.3-3.013,2.235-3.208" transform="translate(-105.298 -256.392)" fill="#12263f"/>
        <path id="Trazado_1000802" data-name="Trazado 1000802" d="M173.445,258.043a1.353,1.353,0,0,1,1.621.589,47.458,47.458,0,0,1,.1,6.771c-.245,1.56-2.288,1.613-2.5-.192a41.793,41.793,0,0,1,.009-6.266,1.315,1.315,0,0,1,.771-.9" transform="translate(-136.506 -204.087)" fill="#12263f"/>
        <path id="Trazado_1000803" data-name="Trazado 1000803" d="M210.918,306.141c.871,1.052.018,2.317-1.458,1.991a31.875,31.875,0,0,1-5.014-3.149,1.343,1.343,0,0,1,1.363-1.792,56.268,56.268,0,0,1,5.109,2.95" transform="translate(-161.656 -239.844)" fill="#12263f"/>
        <path id="Trazado_1000804" data-name="Trazado 1000804" d="M121.132,308.069c-1.345-1.345,1.9-2.94,2.811-3.46,1.11-.63,2.962-2.2,3.672-.4.485,1.229-1.232,1.865-2.084,2.4-.919.579-3.486,2.368-4.4,1.454" transform="translate(-95.573 -240.001)" fill="#12263f"/>
        <path id="Trazado_1000805" data-name="Trazado 1000805" d="M161.351,134.148c1.662-.283,6.41.773,5.376,3.08-.765,1.708-2.41-.308-3.226-.524a3.611,3.611,0,0,0-2.526.2c-.727.35-2.343,1.947-2.87.176-.456-1.534,2.024-2.727,3.245-2.935" transform="translate(-125.035 -106.089)" fill="#12263f"/>
        <path id="Trazado_1000806" data-name="Trazado 1000806" d="M186.029,105.054c.949-.952,2.171.59,2.738.535.593-.057,1.708-1.548,2.657-.493,1.537,1.709-2.167,3.645-4.51,2.421-.876-.458-1.733-1.611-.885-2.462" transform="translate(-146.892 -82.844)" fill="#12263f"/>
        <path id="Trazado_1000807" data-name="Trazado 1000807" d="M149.075,105.054a1.587,1.587,0,0,1,.026,1.7c-1.534,2.654-7.262.386-5.42-1.661.949-1.055,2.064.436,2.657.493.567.055,1.786-1.487,2.737-.535" transform="translate(-113.381 -82.844)" fill="#12263f"/>
      </g>
    </g>
  </g>
</svg>
