<svg xmlns="http://www.w3.org/2000/svg" xmlns:xlink="http://www.w3.org/1999/xlink" width="561" height="300" viewBox="0 0 561 300">
  <defs>
    <clipPath id="clip-path">
      <rect id="Rectángulo_456317" data-name="Rectángulo 456317" width="510" height="300" transform="translate(824.711 7118)" fill="#fff" stroke="#707070" stroke-width="1"/>
    </clipPath>
    <clipPath id="clip-path-2">
      <rect id="Rectángulo_456276" data-name="Rectángulo 456276" width="431.738" height="401.923" fill="#fa9757"/>
    </clipPath>
    <clipPath id="clip-path-3">
      <rect id="Rectángulo_456446" data-name="Rectángulo 456446" width="362.082" height="213.652" fill="none"/>
    </clipPath>
    <clipPath id="clip-path-5">
      <rect id="Rectángulo_456435" data-name="Rectángulo 456435" width="13.915" height="35.924" fill="none"/>
    </clipPath>
    <clipPath id="clip-path-6">
      <rect id="Rectángulo_456436" data-name="Rectángulo 456436" width="55.725" height="47.725" fill="none"/>
    </clipPath>
    <clipPath id="clip-path-7">
      <rect id="Rectángulo_456437" data-name="Rectángulo 456437" width="16.668" height="82.32" fill="none"/>
    </clipPath>
    <clipPath id="clip-path-8">
      <rect id="Rectángulo_456438" data-name="Rectángulo 456438" width="357.407" height="38.016" fill="none"/>
    </clipPath>
    <clipPath id="clip-path-9">
      <rect id="Rectángulo_456439" data-name="Rectángulo 456439" width="43.333" height="20.695" fill="none"/>
    </clipPath>
    <clipPath id="clip-path-10">
      <rect id="Rectángulo_456440" data-name="Rectángulo 456440" width="44.546" height="32.392" fill="none"/>
    </clipPath>
    <clipPath id="clip-path-11">
      <rect id="Rectángulo_456441" data-name="Rectángulo 456441" width="28.887" height="26.187" fill="none"/>
    </clipPath>
    <clipPath id="clip-path-12">
      <rect id="Rectángulo_456442" data-name="Rectángulo 456442" width="137.066" height="59.519" fill="none"/>
    </clipPath>
    <clipPath id="clip-path-13">
      <rect id="Rectángulo_456443" data-name="Rectángulo 456443" width="266.1" height="108.827" fill="none"/>
    </clipPath>
    <clipPath id="clip-path-14">
      <rect id="Rectángulo_456444" data-name="Rectángulo 456444" width="154.272" height="17.914" fill="none"/>
    </clipPath>
  </defs>
  <g id="Grupo_1186156" data-name="Grupo 1186156" transform="translate(10959 4057)">
    <rect id="Rectángulo_456275" data-name="Rectángulo 456275" width="561" height="300" transform="translate(-10959 -4057)" fill="#fff3d3"/>
    <g id="Enmascarar_grupo_1098961" data-name="Enmascarar grupo 1098961" transform="translate(-11766.711 -11175)" clip-path="url(#clip-path)">
      <g id="Grupo_1185812" data-name="Grupo 1185812" transform="translate(872.342 7123.37)">
        <g id="Grupo_1186022" data-name="Grupo 1186022">
          <g id="Grupo_1185723" data-name="Grupo 1185723">
            <g id="Grupo_1185722" data-name="Grupo 1185722" clip-path="url(#clip-path-2)">
              <path id="Trazado_1000296" data-name="Trazado 1000296" d="M410.294,84.665a117.845,117.845,0,0,0-43.3-66.38C351.726,6.716,331.568-2.785,308.62.748,257.388,8.637,202.957,79.1,145.837,68.083S42.772,102.029,50.324,173.023s133.014,126.32,244.305,95.591c95.622-26.4,133.3-110.835,115.665-183.949" transform="translate(-13.02 0)" fill="#ffdd8b"/>
              <path id="Trazado_1000297" data-name="Trazado 1000297" d="M107.384,68.711c15.92,0,17.084-24.788,1.078-24.788-15.92,0-17.084,24.788-1.078,24.788" transform="translate(-25.229 -11.551)" fill="#ffc025"/>
              <path id="Trazado_1000298" data-name="Trazado 1000298" d="M497.235,302.95c15.92,0,17.084-24.788,1.078-24.788-15.92,0-17.084,24.788-1.078,24.788" transform="translate(-97.808 -238.151)" fill="#ffc025"/>
              <path id="Trazado_1000299" data-name="Trazado 1000299" d="M62.525,99.091c11.393,0,12.226-17.739.772-17.739-11.393,0-12.226,17.739-.772,17.739" transform="translate(-14.288 -21.394)" fill="#ffdd8b"/>
              <path id="Trazado_1000300" data-name="Trazado 1000300" d="M17.192,213.868a9.974,9.974,0,0,0-6.869-3.2A10.4,10.4,0,0,0,3.2,213.26a7.41,7.41,0,0,0-2.184,3.095A7.459,7.459,0,0,0,0,220.129a9.9,9.9,0,0,0,9.463,10.323,10.4,10.4,0,0,0,7.121-2.594,7.432,7.432,0,0,0,2.184-3.095,7.459,7.459,0,0,0,1.018-3.774,10.009,10.009,0,0,0-2.594-7.121" transform="translate(0 -55.401)" fill="#ffdd8b"/>
              <path id="Trazado_1000301" data-name="Trazado 1000301" d="M576.136,227.858a9.974,9.974,0,0,0-6.869-3.2,10.4,10.4,0,0,0-7.121,2.594,11.017,11.017,0,0,0-3.2,6.869,9.9,9.9,0,0,0,9.463,10.323,10.4,10.4,0,0,0,7.121-2.594,11.018,11.018,0,0,0,3.2-6.869,10.01,10.01,0,0,0-2.594-7.121" transform="translate(-146.991 -59.08)" fill="#ffc025"/>
              <path id="Trazado_1000302" data-name="Trazado 1000302" d="M83.316,292.463a10.042,10.042,0,0,0-6.876,2.5,10.639,10.639,0,0,0-3.091,6.632,9.56,9.56,0,0,0,9.136,9.967,10.04,10.04,0,0,0,6.876-2.5,10.633,10.633,0,0,0,3.091-6.632,9.56,9.56,0,0,0-9.136-9.967" transform="translate(-19.289 -76.912)" fill="#ffc025"/>
              <path id="Trazado_1000303" data-name="Trazado 1000303" d="M500.523,0a10.042,10.042,0,0,0-6.876,2.5,7.17,7.17,0,0,0-2.109,2.989,7.2,7.2,0,0,0-.982,3.644,9.56,9.56,0,0,0,9.136,9.967,10.04,10.04,0,0,0,6.876-2.5,7.168,7.168,0,0,0,2.109-2.988,7.2,7.2,0,0,0,.982-3.645A9.56,9.56,0,0,0,500.523,0" transform="translate(-129.007)" fill="#ffdd8b"/>
              <path id="Trazado_1000304" data-name="Trazado 1000304" d="M556.749,181.623c-9.348,0-10.031,14.555-.633,14.555,9.348,0,10.032-14.555.633-14.555" transform="translate(-144.48 -47.763)" fill="#ffdd8b"/>
            </g>
          </g>
          <g id="Grupo_1186191" data-name="Grupo 1186191" transform="translate(34.828 44.63)">
            <g id="Grupo_1186190" data-name="Grupo 1186190" clip-path="url(#clip-path-3)">
              <path id="Trazado_1000602" data-name="Trazado 1000602" d="M276.059,185.143l10.168,3.285,8.648-11.987Z" transform="translate(-87.354 -55.832)" fill="#ab7b68"/>
              <g id="Grupo_1186189" data-name="Grupo 1186189">
                <g id="Grupo_1186188" data-name="Grupo 1186188" clip-path="url(#clip-path-3)">
                  <path id="Trazado_1000603" data-name="Trazado 1000603" d="M290.633,174.845s1.5-10.061-.113-11.4-30.233.385-38.306,3.427,15.772,14.014,15.772,14.014Z" transform="translate(-79.28 -51.574)" fill="#dead28"/>
                  <path id="Trazado_1000604" data-name="Trazado 1000604" d="M268.153,183.665s2.481,1.127,3.336-2.8" transform="translate(-84.852 -57.231)" fill="#26221c"/>
                  <path id="Trazado_1000605" data-name="Trazado 1000605" d="M262.708,181.193s2.481,1.127,3.336-2.8" transform="translate(-83.129 -56.448)" fill="#26221c"/>
                  <path id="Trazado_1000606" data-name="Trazado 1000606" d="M383.746,172.549s14.81,23.707,7.813,33.58-14.964,7.39-23.081,9.58-49.138-1.079-78.617-33.48c0,0,2.848-14.461,15.115-23.193,0,0,50.965-10.73,78.77,13.513" transform="translate(-91.721 -49.575)" fill="#191919"/>
                  <path id="Trazado_1000607" data-name="Trazado 1000607" d="M318.567,98.911s-24.717,28.359-22.759,40.121,11.327,25.534,23.9,33.874c0,0,17.19-40.677,65.889-18.635L360.98,117.864s-19.424-9.875-42.413-18.953" transform="translate(-93.568 -31.299)" fill="#191919"/>
                  <path id="Trazado_1000608" data-name="Trazado 1000608" d="M380.161,29.991S325.738,75.867,344.249,95.62c32.194,34.353,45.7-9.729,45.7-9.729s29.9-6.446,30.961-24.23-.77-24.478-40.751-31.67" transform="translate(-107.716 -9.49)" fill="#fdaa9f"/>
                  <path id="Trazado_1000609" data-name="Trazado 1000609" d="M376.3,31.637s-26.012-14.556-43.54,23.2C320.074,82.169,319.554,87.1,319.554,87.1s7.454,7.283,18.609-.967c0,0,40.531-36.489,38.137-54.494" transform="translate(-101.117 -9.138)" fill="#ab7b68"/>
                  <path id="Trazado_1000610" data-name="Trazado 1000610" d="M440.229,51.743s12.506,11.8,17.181,36.9c5.517,29.62.776,41.647.776,41.647s-6.321,1.553-14.8-9.427c0,0-13.509-54.884-3.157-69.121" transform="translate(-138.067 -16.373)" fill="#ab7b68"/>
                  <path id="Trazado_1000611" data-name="Trazado 1000611" d="M378.938,168.979s5.322,1.751,11.309,8.433c2.475,2.763,11.329.773,6.749,4.607-2.713,2.27-8.852-.662-8.852-.662a10.664,10.664,0,0,0,2.508,5.2c2.105,2.276,5.829,4.642,8.024,7.911,1.167,1.738-.476,2.933-3.527,1.244,0,0-2.706-.109-6.631-.06s-9.137-.892-11.442-2.447-9.755-20.575-5.645-25.521c0,0-.628-3.213,7.507,1.29" transform="translate(-117.148 -52.711)" fill="#ab7b68"/>
                  <path id="Trazado_1000612" data-name="Trazado 1000612" d="M400.964,204.8a47.917,47.917,0,0,1-7.268-3.4l-1.729-1.007a5.957,5.957,0,0,1-1.513-1.506,13.139,13.139,0,0,1-1.859-3.608c.857,1.04,1.678,2.082,2.565,3.01a6.113,6.113,0,0,0,1.42,1.163l1.747.944a47.527,47.527,0,0,1,6.637,4.4" transform="translate(-122.964 -61.792)"/>
                  <path id="Trazado_1000613" data-name="Trazado 1000613" d="M392.424,205.738a16.218,16.218,0,0,1-2.868-.906,18.965,18.965,0,0,1-2.695-1.344c-.218-.137-.431-.286-.649-.453a3.57,3.57,0,0,1-.616-.6,9.937,9.937,0,0,1-.854-1.291,12.64,12.64,0,0,1-1.182-2.779c.71.73,1.334,1.5,1.952,2.252.319.366.61.754.933,1.073a2.7,2.7,0,0,0,.464.414c.179.129.38.249.579.377a47.664,47.664,0,0,1,4.935,3.253" transform="translate(-121.371 -62.77)"/>
                  <path id="Trazado_1000614" data-name="Trazado 1000614" d="M383.567,206.476a2.552,2.552,0,0,1-1.993-.563,2.17,2.17,0,0,1-.9-1.892,7.288,7.288,0,0,1,1.641.965,4.574,4.574,0,0,1,1.255,1.49" transform="translate(-120.453 -64.559)"/>
                  <path id="Trazado_1000615" data-name="Trazado 1000615" d="M365.973,149.413S340.118,101.82,331.006,98.35a19.033,19.033,0,0,0-11.451,10.731s9.906,30.061,34.81,44.367c0,0,8.076.756,11.608-4.035" transform="translate(-101.118 -31.121)" fill="#ab7b68"/>
                  <path id="Trazado_1000616" data-name="Trazado 1000616" d="M446.865,142.21s-7.953,34.355,11.45,59.674c0,0,7.37-.99,9.092-3.591s-2.764-44.262-6.4-52.9-14.146-3.179-14.146-3.179" transform="translate(-140.892 -44.461)" fill="#ab7b68"/>
                  <path id="Trazado_1000617" data-name="Trazado 1000617" d="M436.933,53.914c.719,9.176-4,17.031-10.541,17.544s-12.426-6.511-13.145-15.687,4-17.031,10.541-17.544,12.426,6.511,13.145,15.687" transform="translate(-130.742 -12.088)" fill="#ab7b68"/>
                  <path id="Trazado_1000618" data-name="Trazado 1000618" d="M380.58,29.409S361.011,19.7,339.771,49.817c0,0,4.656,21.761,21.089,24.407l26.507-40.553Z" transform="translate(-107.515 -8.833)" fill="#fdaa9f"/>
                  <path id="Trazado_1000619" data-name="Trazado 1000619" d="M438.988,73.3s-5.9,12.852-5.827,13.487c.72,5.843,3.372,15.506,5.886,25.634,0,0,18.75,3.064,21.078-4.166,3.166-9.832-8.882-47.962-14.655-49.476" transform="translate(-137.066 -18.599)" fill="#fdaa9f"/>
                  <path id="Trazado_1000620" data-name="Trazado 1000620" d="M424.4,41.52c2.907-2.655,4.087-8.1,6.03-11.527,5.812-10.237,12.906-13.254,20.424-10.32,4.468,1.744,21.634,13.857,15.911,27.778s-11.247,12.982-13.688,15.295c-1.6,1.518-2.064,3.511-3.957,4.695-6.021,3.764-17.282,2.636-20.614-2.594" transform="translate(-134.294 -5.888)" fill="#ab7b68"/>
                  <g id="Grupo_1186160" data-name="Grupo 1186160" transform="translate(285.85 26.874)" opacity="0.14" style="mix-blend-mode: multiply;isolation: isolate">
                    <g id="Grupo_1186159" data-name="Grupo 1186159">
                      <g id="Grupo_1186158" data-name="Grupo 1186158" clip-path="url(#clip-path-5)">
                        <path id="Trazado_1000621" data-name="Trazado 1000621" d="M418.466,60.184a23.121,23.121,0,0,1,5.782-19.107l1.551-1.733c.538-.491-.27,5.242.118,5.535a16.7,16.7,0,0,0,1.628,1.149s-1.109,3.563-2.11,13.488c-.779,7.724,4.339,13.524,6.653,15.723a10.244,10.244,0,0,1-5.551-3.84c-.433.375-1.941-.582-2.3-.219a19.175,19.175,0,0,1-5.771-11" transform="translate(-418.173 -39.315)" fill="#504587"/>
                      </g>
                    </g>
                  </g>
                  <path id="Trazado_1000622" data-name="Trazado 1000622" d="M438.374,81.536a14.265,14.265,0,0,1-7.589-2.67,13.615,13.615,0,0,1-4.8-6.549,17.992,17.992,0,0,1-.887-4,23.391,23.391,0,0,1-.118-4.073,35.617,35.617,0,0,1,1.446-7.958q-.162,1-.345,1.988c-.111.662-.183,1.33-.275,1.993s-.135,1.332-.206,2-.062,1.334-.1,2a21.968,21.968,0,0,0,1.123,7.824,13.459,13.459,0,0,0,4.476,6.359,14.8,14.8,0,0,0,3.423,2,15.5,15.5,0,0,0,3.851,1.091" transform="translate(-134.464 -17.811)" fill="#191919"/>
                  <path id="Trazado_1000623" data-name="Trazado 1000623" d="M459.241,64.357a.606.606,0,0,0,.937-.457,2.133,2.133,0,0,0-.915-1.993c-1.554-1.137-2.643-.55-2.74.087-.069.453,1.7,1.69,2.719,2.362" transform="translate(-144.458 -19.386)" fill="#191919"/>
                  <path id="Trazado_1000624" data-name="Trazado 1000624" d="M470.015,81.274a.606.606,0,0,0,.993.317,2.131,2.131,0,0,0,.714-2.073c-.338-1.9-1.531-2.223-2.041-1.83-.363.28.061,2.395.334,3.586" transform="translate(-148.578 -24.537)" fill="#191919"/>
                  <path id="Trazado_1000625" data-name="Trazado 1000625" d="M456.515,67.539a9.208,9.208,0,0,1-5.751,2.656s-.154-2.725-.133-4.67a8.3,8.3,0,0,1,5.884,2.014" transform="translate(-142.594 -20.729)" fill="#fff"/>
                  <path id="Trazado_1000626" data-name="Trazado 1000626" d="M457.557,68.806a14.293,14.293,0,0,0-3.153-2.389,7.8,7.8,0,0,0-1.8-.706,10.878,10.878,0,0,0-1.974-.3,4.666,4.666,0,0,1,2.069-.226,5.467,5.467,0,0,1,2.021.628,6.724,6.724,0,0,1,1.672,1.275,5.719,5.719,0,0,1,1.161,1.718" transform="translate(-142.595 -20.615)" fill="#26221c"/>
                  <path id="Trazado_1000627" data-name="Trazado 1000627" d="M457.06,68.539a6.82,6.82,0,0,1-2.272,1.843,5.95,5.95,0,0,1-2.443.544c-.139-.592,1.269-1.706,2.15-2.243a2.336,2.336,0,0,1,2.565-.144" transform="translate(-143.133 -21.587)" fill="#26221c"/>
                  <path id="Trazado_1000628" data-name="Trazado 1000628" d="M465.324,81.5a6.691,6.691,0,0,1-3.836,1.893s-.241-1.623-.323-2.79a6.4,6.4,0,0,1,4.159.9" transform="translate(-145.928 -25.488)" fill="#fff"/>
                  <path id="Trazado_1000629" data-name="Trazado 1000629" d="M466.11,82.126a14,14,0,0,0-2.375-1.155,7.1,7.1,0,0,0-1.232-.335c-.426-.094-.861-.113-1.337-.179a3.093,3.093,0,0,1,1.375-.353,3.732,3.732,0,0,1,1.424.224,4.243,4.243,0,0,1,1.248.7,3.3,3.3,0,0,1,.9,1.093" transform="translate(-145.928 -25.346)" fill="#26221c"/>
                  <path id="Trazado_1000630" data-name="Trazado 1000630" d="M465.808,81.991a4.577,4.577,0,0,1-1.476,1.223,4.631,4.631,0,0,1-1.658.455c-.125-.347.791-1.089,1.371-1.456a1.822,1.822,0,0,1,1.763-.221" transform="translate(-146.401 -25.899)" fill="#26221c"/>
                  <path id="Trazado_1000631" data-name="Trazado 1000631" d="M453.081,82.768a4.817,4.817,0,0,0,1.669.992,6.158,6.158,0,0,0,1.85.392,2.269,2.269,0,0,0,1.616-.4c.362-.317.312-.945.109-1.526l.036.061a3.3,3.3,0,0,1-.36-.777,2.975,2.975,0,0,1-.126-.831,2.158,2.158,0,0,1,.165-.813,2,2,0,0,1,.442-.669,2.686,2.686,0,0,0-.257.723,1.989,1.989,0,0,0,0,.733,2.582,2.582,0,0,0,.214.691,2.835,2.835,0,0,0,.364.608l.015.019.02.042a2.869,2.869,0,0,1,.278,1.071,1.486,1.486,0,0,1-.429,1.143,1.922,1.922,0,0,1-1.053.522,3.676,3.676,0,0,1-1.085.038,5.271,5.271,0,0,1-1.986-.632,3.785,3.785,0,0,1-1.485-1.39" transform="translate(-143.369 -25.061)" fill="#191919"/>
                  <path id="Trazado_1000632" data-name="Trazado 1000632" d="M464.6,38.521s-15.5,5.038-28.272-2.736l-4.1,3.471L423.756,41l-2.526,1.053s8.8-15.358,10.235-17.1,9.824-11.632,19.971-5.613,14.48,10.792,16.036,19.357,2.709,13.65-7.221,18.043c0,0,7.748-11.785,4.351-18.219" transform="translate(-133.291 -5.512)" fill="#191919"/>
                  <path id="Trazado_1000633" data-name="Trazado 1000633" d="M457.578,16.623c3.617-1.152,6.419-6.072,5.039-10.569C461.05.948,454.825-1.218,450.569.678A7.558,7.558,0,0,0,446.16,6.21c-.814,5.528,6.076,12.116,11.418,10.413" transform="translate(-141.159 0)" fill="#191919"/>
                  <path id="Trazado_1000634" data-name="Trazado 1000634" d="M472.627,46.213a13.364,13.364,0,0,1-5.992,5.039,14.34,14.34,0,0,1-3.887,1.058,15.825,15.825,0,0,1-4.032-.042,21.042,21.042,0,0,1-7.481-2.656,29.281,29.281,0,0,1-6.189-4.794,61.186,61.186,0,0,0,6.683,3.848,30.144,30.144,0,0,0,3.524,1.4,18.679,18.679,0,0,0,3.647.85,15.616,15.616,0,0,0,7.348-.653,16.722,16.722,0,0,0,6.378-4.049" transform="translate(-140.827 -14.182)" fill="#191919"/>
                  <path id="Trazado_1000635" data-name="Trazado 1000635" d="M466.336,15.938a12.214,12.214,0,0,0,2.844-2.926,4.7,4.7,0,0,0,.721-3.524,8.914,8.914,0,0,0-1.71-3.456c-.811-1.09-1.756-2.115-2.7-3.2a13.071,13.071,0,0,1,3.5,2.5,7.781,7.781,0,0,1,2.242,3.89,5.071,5.071,0,0,1-.092,2.379,5.5,5.5,0,0,1-1.12,2.042,7.452,7.452,0,0,1-3.695,2.289" transform="translate(-147.298 -0.896)" fill="#191919"/>
                  <path id="Trazado_1000636" data-name="Trazado 1000636" d="M436.187,44.977a4.759,4.759,0,1,1,.179-6.728,4.759,4.759,0,0,1-.179,6.728" transform="translate(-135.482 -11.633)" fill="#ab7b68"/>
                  <path id="Trazado_1000637" data-name="Trazado 1000637" d="M434.616,39.772a3.123,3.123,0,0,1,1.127,1.105,2.818,2.818,0,0,1,.414,1.582,3.115,3.115,0,0,1-.515,1.546,5.006,5.006,0,0,1-.5.621c-.2.17-.4.345-.61.495.129-.232.281-.435.413-.65.111-.228.253-.434.347-.66a3.674,3.674,0,0,0,.353-1.371,3.134,3.134,0,0,0-.257-1.382,5.767,5.767,0,0,0-.772-1.286" transform="translate(-137.5 -12.585)" fill="#191919"/>
                  <path id="Trazado_1000638" data-name="Trazado 1000638" d="M432.4,42.666a1.916,1.916,0,0,1,2.371.831,1.756,1.756,0,0,1,.237.855,5.057,5.057,0,0,0-1.143-1.087,5.116,5.116,0,0,0-1.464-.6" transform="translate(-136.824 -13.455)" fill="#191919"/>
                  <path id="Trazado_1000639" data-name="Trazado 1000639" d="M470.373,42.935c.767.174-4.481.943-8.407.615-5.835-.489-11.141-2.105-11.045-2.707.11-.691,4.666.286,6.963.448,2.408.169-3.948-3.665-5.6-4.292-1.919-.727-.692-1.139.858-1.493a22.739,22.739,0,0,1,16.371,2.508c1.173.686,4.04,2.494,3.892,4.088-.519-.116-.847-.58-1.278-.865a16.648,16.648,0,0,0-4.486-1.941c-3.694-1.094-5.1.908-5.172,1.226-.16.721,4.518,1.641,7.907,2.413" transform="translate(-142.685 -11.06)" fill="#474747"/>
                  <path id="Trazado_1000640" data-name="Trazado 1000640" d="M458.056,14.509c.1.021,2.738-5.3.564-9.06-.834-1.441-2.235-2.41-2.474-2.231-.221.163.586,1.285,1.154,3.394.1.369.871,3.234.228,3.553-.771.381-2.641-3.358-4.712-2.982-.861.157-1.258.934-1.632.74-.742-.385.47-3.632.1-3.775-.262-.1-1.394,1.323-1.743,3.178-.58,3.086,1.263,6.009,1.732,5.9.4-.1-.113-2.427.765-2.79.579-.239,1.164.621,2.155.38.677-.165.9-.686,1.167-.568.5.217-.2,1.986.486,2.5.571.425,1.527-.429,2.073.01s.09,1.742.137,1.753" transform="translate(-142.214 -1.012)" fill="#474747"/>
                  <path id="Trazado_1000641" data-name="Trazado 1000641" d="M422.394,97.626s-6.435,15.132-12.18,20.253c-4.425,3.945-9.4,2.457-14.249.134a17.028,17.028,0,0,1-5.8-4.954Z" transform="translate(-123.462 -30.892)" fill="#fdaa9f"/>
                  <path id="Trazado_1000642" data-name="Trazado 1000642" d="M433.94,103.322a15.426,15.426,0,0,1,3.457-2.546,13.008,13.008,0,0,1,1.971-.889,5.117,5.117,0,0,1,2.142-.355,12.07,12.07,0,0,0-1.932.846c-.619.327-1.239.65-1.852,1-1.237.669-2.464,1.365-3.786,1.947" transform="translate(-137.313 -31.49)" fill="#191919"/>
                  <path id="Trazado_1000643" data-name="Trazado 1000643" d="M364.57,87.249a52.3,52.3,0,0,1,2.952-4.854,35.436,35.436,0,0,1,3.514-4.494,11.957,11.957,0,0,1,2.192-1.91,4.69,4.69,0,0,1,.672-.358,4.057,4.057,0,0,1,.727-.226,9.672,9.672,0,0,0,1.318-.394,15.814,15.814,0,0,0,2.529-1.17,24.2,24.2,0,0,0,2.382-1.515,15.071,15.071,0,0,1-4.7,3.233,10.157,10.157,0,0,1-1.377.474,4.088,4.088,0,0,0-.621.2,4.014,4.014,0,0,0-.572.314,13.055,13.055,0,0,0-2.066,1.811,55.881,55.881,0,0,0-3.6,4.317c-1.139,1.5-2.246,3.029-3.348,4.568" transform="translate(-115.362 -22.887)" fill="#191919"/>
                  <path id="Trazado_1000644" data-name="Trazado 1000644" d="M373.653,99.918a21.2,21.2,0,0,0,1.448,3.418c.291.545.569,1.1.9,1.617l.48.79.525.761a36.261,36.261,0,0,0,4.812,5.582c.93.806,1.822,1.659,2.827,2.375.494.367.961.773,1.478,1.11l1.539,1.029a16.36,16.36,0,0,0,1.578.971l1.611.925c1.088.593,2.218,1.1,3.319,1.693-1.16-.444-2.323-.9-3.47-1.393l-1.671-.847a16.878,16.878,0,0,1-1.644-.9l-1.6-.982c-.533-.329-1.019-.728-1.531-1.09a37.019,37.019,0,0,1-2.9-2.392,30.526,30.526,0,0,1-4.782-5.793,21.155,21.155,0,0,1-2.917-6.873" transform="translate(-118.236 -31.617)" fill="#191919"/>
                  <path id="Trazado_1000645" data-name="Trazado 1000645" d="M473.243,220.014,477.9,227c.636.911,2.431,4.435,3.321,5.11,1.168.885,2.371,3.982,3.721,5.186,2.255,2.01-2.133,2.4-3.595.695-2.2-2.565-2.957-2.719-3.992-3.2-.349-.162-.372.818-.291,1.187l.509,3.229h.007s2.976,8.24,3.365,9.111c1.788,3.995-1.025,5.526-1.886,3.54-.842-1.943-2.805-6.466-4.132-9.522-.049.016-.1.034-.145.049.765,2.587,1.736,5.766,2.466,7.795.909,2.524-.144,4.827-1.585,3.786-.676-.488-3.566-8.659-4.55-11.485q-.294-.069-.6-.165c.473,2.064,1.007,4.276,1.451,5.8.689,2.374,1.6,4.778.03,5.062-2.07.373-5.089-11.538-5.652-13.73a25.765,25.765,0,0,0,.219,4.454c.656,3.288-1.433,3.9-1.79,3.11-1-2.2-1.442-10.268-1.442-10.268l-.908-5a11.882,11.882,0,0,1,3.958-11.3c2.1-1.734,4.584-2.625,6.866-.433" transform="translate(-146.261 -69.209)" fill="#ab7b68"/>
                  <path id="Trazado_1000646" data-name="Trazado 1000646" d="M478.8,238.431a10.862,10.862,0,0,1-2.255-1.253,12.65,12.65,0,0,1-1.962-1.7,9.6,9.6,0,0,1-1.516-2.131,5.715,5.715,0,0,1-.64-2.516,10.226,10.226,0,0,0,1.1,2.249,15.628,15.628,0,0,0,1.554,1.932c.556.617,1.176,1.18,1.794,1.749s1.267,1.112,1.924,1.669" transform="translate(-149.492 -73.043)"/>
                  <g id="Grupo_1186163" data-name="Grupo 1186163" transform="translate(231.027 52.4)" opacity="0.18" style="mix-blend-mode: multiply;isolation: isolate">
                    <g id="Grupo_1186162" data-name="Grupo 1186162">
                      <g id="Grupo_1186161" data-name="Grupo 1186161" clip-path="url(#clip-path-6)">
                        <path id="Trazado_1000647" data-name="Trazado 1000647" d="M367.384,76.656c-9.742,1.1-16.36,13.6-19.3,15.992s-10.11,5.515-10.11,5.515a62.459,62.459,0,0,1,6.618,6.066c3.507,3.507,12.352,14.528,16.816,20.152q-.572-.96-1.16-1.937c10.719,3.578,18.212-2.786,22.883-9.544,3.643,1.2,7.258,1.294,10.568-1.657-33.245-10.632-26.314-34.588-26.314-34.588" transform="translate(-337.973 -76.656)" fill="#504587"/>
                      </g>
                    </g>
                  </g>
                  <g id="Grupo_1186166" data-name="Grupo 1186166" transform="translate(296.655 68.943)" opacity="0.18" style="mix-blend-mode: multiply;isolation: isolate">
                    <g id="Grupo_1186165" data-name="Grupo 1186165">
                      <g id="Grupo_1186164" data-name="Grupo 1186164" clip-path="url(#clip-path-7)">
                        <path id="Trazado_1000648" data-name="Trazado 1000648" d="M456.924,218.257l-3.112-6.542q.826,2.152,1.933,4.4.564,1.077,1.179,2.143" transform="translate(-440.256 -135.937)" fill="#504587"/>
                        <path id="Trazado_1000649" data-name="Trazado 1000649" d="M449.6,142.892c-4.656-6.862-10.845-42.034-10.845-42.034l-4.775,2.715c1.1,5.833,3.26,13.838,5.327,22.162,0,0,.386.063,1.038.148.883,4.407,1.647,7.763,2.032,9.4-1,8.1-1.767,23.77,4.115,39.155l1.044,2.194c-7.7-20.046,2.065-33.744,2.065-33.744" transform="translate(-433.981 -100.858)" fill="#504587"/>
                      </g>
                    </g>
                  </g>
                  <g id="Grupo_1186169" data-name="Grupo 1186169" transform="translate(4.358 173.698)" style="mix-blend-mode: multiply;isolation: isolate">
                    <g id="Grupo_1186168" data-name="Grupo 1186168">
                      <g id="Grupo_1186167" data-name="Grupo 1186167" clip-path="url(#clip-path-8)">
                        <path id="Trazado_1000650" data-name="Trazado 1000650" d="M320.315,280.176l-.358-.156a7,7,0,0,0-2.116-.394c-.112-.008-.227-.014-.344-.018-.424-.018-.89-.033-1.388-.047-1.235-.034-2.667-.061-4.132-.088H311.9l-1.662-.031c-2.1-.04-4.128-.089-5.62-.17l-11.442-2.017c-.377-.122-.791-.254-1.221-.39,1.121-.562-3.222-2.376-15.2-4.053l-.152-.021a144.259,144.259,0,0,0-14.5-2.406c-1.44-.159-3.011-.311-4.684-.455-2.585-.566-6.266-1.31-9.786-2.006-3.682-1.809-7.494-3.42-10.231-5.206l-8.291-4.047-.323-3.193c-.019-.188-.423-.366-1.093-.483l-4.583-.795a7.42,7.42,0,0,0-1.743-.068l-3.226.253a10.078,10.078,0,0,0-1.766-.085,18.273,18.273,0,0,0-3.594.9l-.06-.021c.014.009.031.017.045.026-.781.26-1.54.542-2.154.8l-.076-.019.066.024c-.85.351-1.418.648-1.363.757a3.086,3.086,0,0,0,.869.483l-.1-.02c.07.027.156.053.23.081,1.47.656,4.068,1.631,4.417,1.714a47.2,47.2,0,0,0,6.553.825l-.336.085,1.67,4.185a16.89,16.89,0,0,0,4.493,4.175c-12.792-.454-23.381-.635-23.381-.635-.249.007-.5.015-.741.026l-1.28.044c-16.784-2.311-72.53-9.665-87.737-7.553-25.231,3.5-77.352,10.215-81.528,11.431a2.91,2.91,0,0,0,.234.241l-.205-.053-.082-.022s-5.4-.224-11.2-.343c-.374-.049-.684-.062-.684-.062l.066.049c-7.8-.148-16.011-.084-12.641.985,3.29,1.044,12.948,2.954,21.374,4.454l.02,0,1.327.234.049.008,1.261.22.1.016,1.181.2.143.024,1.088.184.2.034.986.163.251.041.884.144.3.048.781.124.327.051.682.105.352.053.582.088.363.052.488.07.356.049.4.054.34.042.315.04.311.034.232.025c.1.01.189.016.276.023l.147.012c.12.007.218.01.293.009s.18-.007.273-.014l.09-.008.2-.023.1-.014c.072-.011.145-.023.219-.036l.094-.016c.1-.02.211-.041.321-.065l.038-.009c.1-.022.2-.045.3-.07l.112-.029.236-.062.12-.033.255-.075.1-.028q.176-.053.353-.111l.06-.02c.1-.032.2-.065.3-.1l.113-.038.25-.088.115-.041.28-.1.069-.025.352-.133.052-.021.291-.113.09-.036.254-.1.078-.031c.221-.09.433-.179.632-.264q.682.09,1.4.172h.005q.721.083,1.478.157l35.684-4.661,35.684-4.661h0c1.466.284,6.037,1.056,12.08,2.056h0l.229.038c-18.275.869-34.692,1.816-40.85,2.638-24.786,3.307-64.555,10.979-64.555,10.979s.049.053.147.146l-.429-.024c-.392-.111-.616-.178-.616-.178s.055.057.164.153c-2.085-.113-5.382-.28-8.841-.412-.358-.055-.662-.073-.662-.073l.049.051c-7.748-.284-15.978-.366-12.975.757.054.02.123.043.181.064,3.19,1.144,12.442,3.255,20.37,4.885l.044.009,1.253.256.129.025,1.137.229.22.044,1.01.2.284.056.9.174.368.07.76.145.422.079.652.122.42.077.582.106.438.078.486.085.44.074.4.068.428.069.319.051c.139.022.261.04.388.058l.258.038c.125.018.23.031.34.045l.2.026c.111.013.2.021.291.03l.129.013c.119.01.218.015.294.015a11.715,11.715,0,0,0,2.661-.446c.113-.029.227-.059.341-.091.342-.093.689-.194,1.032-.3.8-.244,1.585-.509,2.255-.746.191-.068.374-.133.544-.2.537-.195.956-.355,1.2-.449,1.835-.252,52.287-7.195,66.54-8.69,8.481-.732,17.879-1.667,51.393-1.259,7.32.094,15.792.254,25.658.5l.381.047c1.668.276,3.02.4,3.02.4s2.92-.062,6.6-.117c.981-.014,2.016-.029,3.064-.042l.787-.009c1.051-.012,2.106-.021,3.122-.028l.754,0,1.45,0h.688c.9,0,1.718.008,2.416.02.96.016,2.749.1,5.052.218,4.187.221,10.074.58,15.784.94l1.706.108.846.054,2.488.159.809.052,2.347.152,4.2.274,1.213.08c2.361.156,4.019.267,4.555.3l-.23.025-11.8.334h0a2.74,2.74,0,0,0-.312.09c-.018.006-.033.014-.051.021a1.918,1.918,0,0,0-.216.1l-.027.016a1.383,1.383,0,0,0-.191.128l-.008.006a1.106,1.106,0,0,0-.16.16,1,1,0,0,0-.106.156c-.366.007-.712.009-1.028,0-3.8-.053-13.589.03-22.007.12a227.565,227.565,0,0,0-25.534-.6l-32.422.288c-3.27-.013-6.819-.049-9.022-.132-4.972-.189-5.815-1.183-8.588.087-.264.12-.528.243-.79.367l-.077.036-.387.186-.122.059-.34.168-.152.077c-.1.051-.2.1-.3.152l-.169.089c-.089.046-.175.093-.259.139l-.174.1-.225.128-.167.1c-.065.039-.129.078-.191.117s-.1.068-.154.1-.108.071-.157.107-.091.066-.134.1-.085.065-.123.1-.072.064-.106.1-.064.059-.09.087a.976.976,0,0,0-.071.09.725.725,0,0,0-.055.077.4.4,0,0,0-.03.082.322.322,0,0,0-.018.066.194.194,0,0,0,.017.073.2.2,0,0,0,.018.055.345.345,0,0,0,.074.064.38.38,0,0,0,.053.042.871.871,0,0,0,.149.054c.027.009.046.02.077.027a2.42,2.42,0,0,0,.331.054c.8.083,1.42.118,1.885.131a8.508,8.508,0,0,0,1.1-.018,13.222,13.222,0,0,0,2.459.609l.353.059c.244.039.5.078.783.116s.574.073.888.107c1.236.133,2.751.233,4.57.253.01.008.012.017.023.025,0-.008.008-.016.01-.025.943.01,1.967,0,3.077-.042,0,0,1.115.18,5.516-1.441h.317a44.573,44.573,0,0,0,5.157-.25h0q.271-.031.541-.068l1.5.074,23.086,1.139,1.729.107.688.042,1.041.063.853.051.863.051.954.054.76.042,1.014.055.7.037,1.066.055.639.032,1.109.053.593.028,1.155.051.536.023,1.2.049.481.018,1.262.046.393.013q.677.023,1.354.042l.234.007q4.121.119,8.306.126l.229.006h.036l.233.007.126,0,.228.006.161,0,.244.006.314.008.144,0,.515.013.156,0,.427.01.173,0,.453.011.211,0,.472.01.215,0,.526.012.21,0,.575.012.213,0,.658.013.164,0,1.781.031.195,0,.735.012.308,0,.658.009.36.005.645.008.385,0,.658.008.4,0,.658.007.431,0,.738.007.359,0,1.12.008h.205l.943.006.457,0,.707,0h.536l.656,0h3.041l.673,0h.592l.707,0,.562,0,1.243-.008c.086.087.137.137.137.137s6.336.209,14.866.04c8.129,2.131,26.337,3.615,47.511,3.615,28.745,0,58.855-1.5,58.855-4.878,0-2.745-22.234-6.3-43.467-7.067" transform="translate(-6.375 -254.105)" fill="#c2bcb6"/>
                      </g>
                    </g>
                  </g>
                  <path id="Trazado_1000651" data-name="Trazado 1000651" d="M476.277,281.467c-.957-7-11.068-14.132-19.124-17.89-3.8-1.771-28.626-9.588-50.18-1.626-14.775,5.458-27.49,14.254-28.5,21.825-2.465,1.01-7.772,3.667-1.672,5.815a11.623,11.623,0,0,0,7.1.316c3.63.6,29.127,2,35.988,1.66,42.815-2.141,42.269-1.732,50.693-3.2,1.941,1.336,4.521,1.368,7.808,1.224,4.538-.2.382-5.4-2.118-8.124" transform="translate(-118.338 -81.779)" fill="#fff"/>
                  <g id="Grupo_1186172" data-name="Grupo 1186172" transform="translate(266.963 179.01)" opacity="0.16" style="mix-blend-mode: multiply;isolation: isolate">
                    <g id="Grupo_1186171" data-name="Grupo 1186171">
                      <g id="Grupo_1186170" data-name="Grupo 1186170" clip-path="url(#clip-path-9)">
                        <path id="Trazado_1000652" data-name="Trazado 1000652" d="M398.4,278.688c13.464,6.214,35.474,3.107,35.474,3.107l-18.09-19.919c-1.2.345-2.39.727-3.572,1.163-8.532,3.152-16.371,7.417-21.672,11.917,1.96.968,4.518,2.19,7.86,3.732" transform="translate(-390.543 -261.876)" fill="#504587"/>
                      </g>
                    </g>
                  </g>
                  <path id="Trazado_1000653" data-name="Trazado 1000653" d="M486.7,298.293l-6.612-11.4-2.451,4.821-5.429-4.527,6.6,10.892,2.222-4.371Z" transform="translate(-149.422 -90.783)" fill="#de6528"/>
                  <path id="Trazado_1000654" data-name="Trazado 1000654" d="M488.374,270.789l-8.653-1.195,1.151,2.98-4.775.848,8.4,1.011-1.044-2.7Z" transform="translate(-150.652 -85.308)" fill="#de6528"/>
                  <path id="Trazado_1000655" data-name="Trazado 1000655" d="M461.674,307.57l.8-7.679-2.6,1.106-.893-4.193-.64,7.451,2.356-1Z" transform="translate(-145.033 -93.918)" fill="#de6528"/>
                  <path id="Trazado_1000656" data-name="Trazado 1000656" d="M322.462,142.058l-1.628-1.327c-4.194-7.733-5.968-15.689-7.644-24.691L311.5,98.148l7.061-8,9.381,19.344c3.555,9.832,8.912,18.315,13.452,29.1Z" transform="translate(-98.567 -28.526)" fill="#fdaa9f"/>
                  <path id="Trazado_1000657" data-name="Trazado 1000657" d="M380.371,174.28c-13.716-10.871-22.185-13.371-26.068-17.314-4.98-5.058-22.2-18.513-22.2-18.513l-6.95,17.563s21.971,33.411,47.135,32.411c12.216-.485,13.17-10.112,8.08-14.146" transform="translate(-102.89 -43.811)" fill="#fdaa9f"/>
                  <path id="Trazado_1000658" data-name="Trazado 1000658" d="M394.221,192.623c1.876-1.905-2.229-10.052-14.872-17.219s-15.176-9.244-15.176-9.244-19.7,11.236-12.47,20.9c0,0,26.711,21.608,42.519,5.561" transform="translate(-110.785 -52.578)" fill="#de6528"/>
                  <g id="Grupo_1186175" data-name="Grupo 1186175" transform="translate(239.322 113.582)" opacity="0.18" style="mix-blend-mode: multiply;isolation: isolate">
                    <g id="Grupo_1186174" data-name="Grupo 1186174">
                      <g id="Grupo_1186173" data-name="Grupo 1186173" clip-path="url(#clip-path-10)">
                        <path id="Trazado_1000659" data-name="Trazado 1000659" d="M394.221,192.623c1.876-1.905-2.229-10.052-14.872-17.219s-15.176-9.244-15.176-9.244-19.7,11.236-12.47,20.9c0,0,26.711,21.608,42.519,5.561" transform="translate(-350.107 -166.16)" fill="#504587"/>
                      </g>
                    </g>
                  </g>
                  <path id="Trazado_1000660" data-name="Trazado 1000660" d="M299.944,86.593c-.48-.47-5.238-8.1-5.4-9.482s5.149-10.136,7.069-10.838a2.481,2.481,0,0,1,1.756.3c1.4-.532,2.494-.941,3.2-1.205a1.868,1.868,0,0,1,1.733.229l4.56,3.243a2.576,2.576,0,0,1,1.09,2.031l.37,14.568s-5.13,4.056-7.339,4.429-6.56-2.809-7.039-3.279" transform="translate(-93.201 -20.649)" fill="#fdaa9f"/>
                  <path id="Trazado_1000661" data-name="Trazado 1000661" d="M313.265,89.356a9.156,9.156,0,0,1-1.127-3.142,11.745,11.745,0,0,1-.12-3.367,12.171,12.171,0,0,1,.818-3.265,11.985,11.985,0,0,1,.72-1.513c.285-.48.6-.941.923-1.389a28.72,28.72,0,0,0-1.14,3.077,17,17,0,0,0-.643,3.162,16.025,16.025,0,0,0-.032,3.224,15.542,15.542,0,0,0,.6,3.213" transform="translate(-98.711 -24.264)" fill="#26221c"/>
                  <path id="Trazado_1000662" data-name="Trazado 1000662" d="M311.495,74.253a1.521,1.521,0,0,1-.559-.358c-.168-.144-.332-.294-.492-.446-.316-.308-.621-.626-.911-.956-.587-.653-1.135-1.336-1.665-2.035l.367.122a13.75,13.75,0,0,1-1.7.38,9.721,9.721,0,0,1-1.742.128,3.4,3.4,0,0,1-1.743-.443,1.206,1.206,0,0,1-.517-.772,1.609,1.609,0,0,1,.107-.866,1.875,1.875,0,0,0,.077.814.956.956,0,0,0,.512.521,3.421,3.421,0,0,0,1.557.191,17.028,17.028,0,0,0,3.252-.6l.232-.062.135.185c.513.7,1.025,1.4,1.522,2.119l.749,1.07a4.866,4.866,0,0,0,.814,1.006" transform="translate(-95.725 -21.836)" fill="#26221c"/>
                  <path id="Trazado_1000663" data-name="Trazado 1000663" d="M305.141,71.638c.893,1.137,1.656,2.32,2.469,3.462.4.575.812,1.136,1.252,1.667a3.5,3.5,0,0,0,1.6,1.251,1.736,1.736,0,0,1-1.079-.23,4.663,4.663,0,0,1-.9-.648,9.8,9.8,0,0,1-1.43-1.646,15.089,15.089,0,0,1-1.1-1.854,11.464,11.464,0,0,1-.807-2" transform="translate(-96.556 -22.669)" fill="#26221c"/>
                  <path id="Trazado_1000664" data-name="Trazado 1000664" d="M299.583,72.482c1.213,1.786,2.386,3.564,3.706,5.22a18.868,18.868,0,0,0,2.127,2.322,6.253,6.253,0,0,0,2.69,1.588,5,5,0,0,1-3.027-1.174,12.763,12.763,0,0,1-2.325-2.31,20.615,20.615,0,0,1-3.171-5.645" transform="translate(-94.798 -22.936)" fill="#26221c"/>
                  <path id="Trazado_1000665" data-name="Trazado 1000665" d="M296.417,77.63c1.794,1.858,3.45,3.816,5.137,5.738a27.8,27.8,0,0,0,2.613,2.736,1.344,1.344,0,0,0,.333.208,2.144,2.144,0,0,0,.424.078,1.491,1.491,0,0,0,.831-.17,6.373,6.373,0,0,0,1.355-1.3,5.385,5.385,0,0,1-1.193,1.561,1.736,1.736,0,0,1-1,.327,2.6,2.6,0,0,1-.53-.042,1.668,1.668,0,0,1-.512-.244,17.586,17.586,0,0,1-2.832-2.7,47.246,47.246,0,0,1-4.626-6.188" transform="translate(-93.796 -24.565)" fill="#26221c"/>
                  <path id="Trazado_1000666" data-name="Trazado 1000666" d="M295.67,85.459l1.9,1.637c.63.537,1.255,1.073,1.915,1.544a5.388,5.388,0,0,0,2.066,1.05,1.1,1.1,0,0,0,.968-.29,2.994,2.994,0,0,0,.621-1.028,2.4,2.4,0,0,1-.366,1.246,1.452,1.452,0,0,1-1.261.6,4.739,4.739,0,0,1-2.429-1.028,12.877,12.877,0,0,1-1.885-1.717,12.685,12.685,0,0,1-1.527-2.018" transform="translate(-93.56 -27.042)" fill="#26221c"/>
                  <path id="Trazado_1000667" data-name="Trazado 1000667" d="M281,267.6l-1.435,1.129c-9.843.7-19.278-1.152-28.877-3.392l-24.978-4.4-7.157-9.824,34.418-2.589c12.929-1.228,15.707-1.2,28.15,2.445Z" transform="translate(-69.156 -78.412)" fill="#fdaa9f"/>
                  <path id="Trazado_1000668" data-name="Trazado 1000668" d="M354.225,231.775a7.793,7.793,0,0,0-6.752.407c-6.626,3.7-20.443,11.546-26.04,11.421-7.177-.161-35.811,2.55-35.811,2.55l12.6,17.391s49.238,5.038,66.385-13c8.324-8.758-4.34-16.291-10.383-18.767" transform="translate(-90.38 -73.157)" fill="#fdaa9f"/>
                  <path id="Trazado_1000669" data-name="Trazado 1000669" d="M395.7,196.342l21.163,15.3c3.347.661,9.43.511,12.8.978a3.28,3.28,0,0,1,2.447,1.682c1.515,2.8,5.456,9.841,6.264,10.705,0,0,7.774,1.578,5.148,4.72-3.764,4.5-4.749,5.376-3.6,11.874s-6.736,13.62-15.093,18.148-18.218-1.181-20.6-2.538-5.793-5.11-5.265-13.122a74.447,74.447,0,0,0-.422-14.349l-17.539-17.266s-.612-10.72,14.693-16.135" transform="translate(-120.562 -62.129)" fill="#fdaa9f"/>
                  <g id="Grupo_1186178" data-name="Grupo 1186178" transform="translate(281.489 149.514)" opacity="0.18" style="mix-blend-mode: multiply;isolation: isolate">
                    <g id="Grupo_1186177" data-name="Grupo 1186177">
                      <g id="Grupo_1186176" data-name="Grupo 1186176" clip-path="url(#clip-path-11)">
                        <path id="Trazado_1000670" data-name="Trazado 1000670" d="M422.069,244.806c-8.409,1.3-13.165-9.761-8.353-12.669.972.97,11.754-13.634,12.889-13.41,3.347.661,9.43.511,12.8.978a3.319,3.319,0,0,1,1.276.47c-13.377,2.652-18.612,24.63-18.612,24.63" transform="translate(-411.794 -218.725)" fill="#504587"/>
                      </g>
                    </g>
                  </g>
                  <path id="Trazado_1000671" data-name="Trazado 1000671" d="M444.666,220.752a15.9,15.9,0,0,0-6.768,1.065,19.146,19.146,0,0,0-5.8,3.572l-1.247,1.177c-.39.417-.746.869-1.125,1.3l-.564.649c-.176.226-.332.468-.5.7l-1,1.407c-.625.967-1.169,1.987-1.756,2.984-.507,1.039-.995,2.091-1.525,3.131.385-1.1.814-2.18,1.224-3.276.531-1.038,1.03-2.1,1.611-3.116l.957-1.478c.164-.243.317-.495.491-.732l.56-.682c.378-.451.744-.914,1.142-1.349l1.277-1.226a17.561,17.561,0,0,1,6.075-3.555l.844-.266c.285-.073.576-.128.863-.192a14.02,14.02,0,0,1,1.741-.276,12.645,12.645,0,0,1,3.5.163" transform="translate(-134.29 -69.787)"/>
                  <path id="Trazado_1000672" data-name="Trazado 1000672" d="M463.246,262.482a.66.66,0,0,1,.025,1.148,2.445,2.445,0,0,1-2.466.106c-1.939-.949-1.911-2.312-1.323-2.727.419-.3,2.565.812,3.765,1.474" transform="translate(-145.283 -82.576)"/>
                  <path id="Trazado_1000673" data-name="Trazado 1000673" d="M411.215,269.233c-8.926-6.191-5.739-13.635-5.694-16.233.083-4.841-1.576-20.128,2.207-18.307s10.249,10.843,8.387,14.542a7.45,7.45,0,0,1-1.914,2.4c2.286.965,4.26,1.9,5.285,2.393,2.242,1.08,10.546,6.775,14.777,11.894,6.927-4.382,9.958-4.231,12.286-3.563,2.057.589,2.03,6.52-1.6,9.172-2.224,1.626-4.321,4.579-13.029,4.79,0,0-14.192-2.568-20.705-7.085" transform="translate(-128.134 -74.217)"/>
                  <path id="Trazado_1000674" data-name="Trazado 1000674" d="M436.317,283.412c.591.336-3.963-.373-7.134-1.636-4.713-1.878-8.695-4.536-8.459-5,.271-.533,3.8,1.417,5.659,2.131,1.954.749-2.323-3.976-3.533-4.9-1.4-1.077-.278-1.1,1.1-.993a19.945,19.945,0,0,1,12.93,6.191c.794.854,2.7,3.049,2.167,4.305-.4-.226-.552-.686-.836-1.027a14.389,14.389,0,0,0-3.218-2.714c-2.78-1.826-4.467-.558-4.609-.319-.319.545,3.323,2.479,5.933,3.965" transform="translate(-133.128 -86.376)" fill="#474747"/>
                  <path id="Trazado_1000675" data-name="Trazado 1000675" d="M425.531,251.954c-2.481-1.2-5.829.483-7.477,3.751s-.972,6.888,1.51,8.085,5.829-.483,7.477-3.751.972-6.888-1.51-8.085" transform="translate(-132.001 -79.604)" fill="#fdaa9f"/>
                  <path id="Trazado_1000676" data-name="Trazado 1000676" d="M422.887,263.353a12.063,12.063,0,0,0,1.3-2.04,4.721,4.721,0,0,0,.366-1.073,2.939,2.939,0,0,0-.014-1.072l.472.208a8.2,8.2,0,0,1-1.643.587,4.009,4.009,0,0,1-.88.106,1.045,1.045,0,0,1-.824-.3,1.116,1.116,0,0,0,.792.015,6,6,0,0,0,.768-.277c.5-.213,1-.464,1.48-.72l.368-.2.1.405a2.992,2.992,0,0,1,.031,1.373,4,4,0,0,1-.509,1.222,5.368,5.368,0,0,1-1.809,1.759" transform="translate(-133.427 -81.827)"/>
                  <path id="Trazado_1000677" data-name="Trazado 1000677" d="M447.491,279.241s.286-6.717,4.57-6.324-4.57,6.324-4.57,6.324" transform="translate(-141.601 -86.354)"/>
                  <path id="Trazado_1000678" data-name="Trazado 1000678" d="M463.366,254.383a2.1,2.1,0,0,1-.777,1.135,3.088,3.088,0,0,1-1.283.585,3.788,3.788,0,0,1-1.388,0,5.913,5.913,0,0,1-.658-.18,5.067,5.067,0,0,1-.608-.307,5.848,5.848,0,0,1,.667-.024c.217-.013.43-.015.638-.021a8.273,8.273,0,0,0,1.213-.141,4.684,4.684,0,0,0,2.2-1.051" transform="translate(-145.132 -80.495)" fill="#26221c"/>
                  <path id="Trazado_1000679" data-name="Trazado 1000679" d="M464.083,252.915c-.582.161-1.066.245-1.513.4a3.5,3.5,0,0,0-.643.283,7.8,7.8,0,0,0-.673.447,1.319,1.319,0,0,1,.321-.848,1.717,1.717,0,0,1,.773-.528,2.076,2.076,0,0,1,.906-.086,1.637,1.637,0,0,1,.828.329" transform="translate(-145.956 -79.921)" fill="#26221c"/>
                  <path id="Trazado_1000680" data-name="Trazado 1000680" d="M457.91,232.154a6.417,6.417,0,0,1-1.583,1.5,7.982,7.982,0,0,1-1.973.98,6.788,6.788,0,0,1-2.181.36,5.7,5.7,0,0,1-2.15-.392,16.1,16.1,0,0,0,2.112-.141,10.616,10.616,0,0,0,2-.476,17.416,17.416,0,0,0,3.771-1.831" transform="translate(-142.402 -73.461)" fill="#26221c"/>
                  <path id="Trazado_1000681" data-name="Trazado 1000681" d="M170.732,98.644c-1.452-.58-2.55-2.458-4.241-3.049-1.511-.528-3.535.247-5.218-.255-1.554-.464-2.817-2.229-4.5-2.645-1.588-.392-3.525.578-5.219.251-1.614-.312-3.051-1.939-4.751-2.174-1.636-.226-3.458.947-5.164.809-1.65-.134-3.261-1.587-4.97-1.623-1.591-.034-3.127,1.345-4.626,1.4-1.593.057-3.225-1.2-4.715-1.061-1.592.152-2.953,1.7-4.425,1.939-1.588.252-3.363-.8-4.811-.472-1.579.355-2.732,2.07-4.142,2.485-1.57.463-3.466-.342-4.827.161-1.569.58-2.481,2.438-3.768,3.016" transform="translate(-33.336 -28.465)" fill="none" stroke="#de6528" stroke-miterlimit="10" stroke-width="1"/>
                  <path id="Trazado_1000682" data-name="Trazado 1000682" d="M189.937,92.267c-1.154-1.1-1.553-3.3-3.012-4.527-1.269-1.063-3.492-1.079-4.984-2.167-1.362-.993-2.051-3.116-3.595-4.08-1.446-.9-3.647-.594-5.247-1.428-1.52-.792-2.528-2.781-4.184-3.477-1.557-.654-3.556.062-5.035-.422-1.614-.528-2.809-2.277-4.315-2.63-1.667-.392-3.517.657-5.035.442-1.721-.245-3.21-1.749-4.713-1.822-1.794-.088-3.423,1.292-4.862,1.358" transform="translate(-45.869 -22.832)" fill="none" stroke="#de6528" stroke-miterlimit="10" stroke-width="1"/>
                  <path id="Trazado_1000683" data-name="Trazado 1000683" d="M240.186,273.671c1.267.7,2.012,2.643,3.5,3.382,1.328.66,3.32.09,4.81.746,1.374.606,2.293,2.467,3.8,3.045,1.414.543,3.34-.219,4.859.277,1.448.473,2.552,2.23,4.088,2.642,1.477.4,3.31-.569,4.864-.245,1.5.313,2.8,1.934,4.363,2.164,1.46.215,3.044-.975,4.43-.852,1.473.132,2.823,1.578,4.211,1.619,1.482.044,2.913-1.328,4.3-1.373,1.49-.048,3.009,1.22,4.379,1.088,1.494-.144,2.739-1.688,4.086-1.908,1.5-.244,3.17.813,4.479.507,1.511-.352,2.539-2.052,3.79-2.436" transform="translate(-76.003 -86.598)" fill="none" stroke="#de6528" stroke-miterlimit="10" stroke-width="1"/>
                  <path id="Trazado_1000684" data-name="Trazado 1000684" d="M157.024,246.762c-1.432.219-3.209-.861-4.837-.537-1.454.289-2.681,1.959-4.261,2.35-1.458.361-3.324-.55-4.865-.088-1.452.435-2.509,2.216-4.015,2.752-1.435.511-3.384-.2-4.852.409-1.411.59-2.271,2.475-3.7,3.168-1.379.671-3.4.18-4.775.956-1.286.723-1.812,2.633-2.984,3.383-1.246.8-3.2.477-4.322,1.293-1.2.872-1.494,2.832-2.56,3.712-1.149.949-3.127.874-4.13,1.817-1.094,1.027-1.135,3.01-2.066,4.008-1.037,1.11-3.006,1.3-3.857,2.339-.98,1.2-.753,3.174-1.508,4.242" transform="translate(-33.001 -77.894)" fill="none" stroke="#de6528" stroke-miterlimit="10" stroke-width="1"/>
                  <path id="Trazado_1000685" data-name="Trazado 1000685" d="M285.473,293.537c1.462.28,2.874,1.9,4.635,2.123,1.533.2,3.3-1,5.016-.9,1.572.1,3.179,1.509,4.876,1.492,1.591-.017,3.165-1.455,4.841-1.6,1.595-.139,3.4,1.01,5.049.727,1.539-.264,2.719-1.916,4.111-2.272,1.521-.389,3.349.481,4.7.01,1.5-.523,2.377-2.354,3.666-2.939,1.464-.664,3.418-.141,4.623-.831,1.442-.825,1.966-2.8,3.049-3.566" transform="translate(-90.333 -90.43)" fill="none" stroke="#de6528" stroke-miterlimit="10" stroke-width="1"/>
                  <path id="Trazado_1000686" data-name="Trazado 1000686" d="M44.236,205.519s-4.922,10.541-7.346,10.818S7.6,197.2,1.652,189.285s24.3-3.595,24.3-3.595Z" transform="translate(-0.277 -58.386)"/>
                  <path id="Trazado_1000687" data-name="Trazado 1000687" d="M27.164,185.345a2.011,2.011,0,0,1,1.444.476,2.333,2.333,0,0,1,.794,1.388,3.439,3.439,0,0,1-.094,1.546,4.1,4.1,0,0,1-.664,1.338,6.874,6.874,0,0,1,.07-.731l.068-.7a5.285,5.285,0,0,0-.052-1.323,2.723,2.723,0,0,0-1.567-1.992" transform="translate(-8.596 -58.647)" fill="#474747"/>
                  <path id="Trazado_1000688" data-name="Trazado 1000688" d="M20.277,184.327a2.011,2.011,0,0,1,1.444.476,2.333,2.333,0,0,1,.794,1.388,3.439,3.439,0,0,1-.094,1.546,6.309,6.309,0,0,1-.271.7,6.285,6.285,0,0,1-.392.636,6.874,6.874,0,0,1,.07-.731l.068-.7a5.286,5.286,0,0,0-.052-1.323,2.723,2.723,0,0,0-1.567-1.992" transform="translate(-6.416 -58.325)" fill="#474747"/>
                  <path id="Trazado_1000689" data-name="Trazado 1000689" d="M210.578,140.122s-74.2-43.264-92.034-31.9C93.5,124.166,41.773,154.864,37.633,160.23c0,0,3.59,19.016,19.452,25.138l70.833-42.6c5.868,4.678,61.905,41.539,61.905,41.539Z" transform="translate(-11.908 -33.642)" fill="#474747"/>
                  <g id="Grupo_1186181" data-name="Grupo 1186181" transform="translate(21.284 98.436)" opacity="0.18" style="mix-blend-mode: multiply;isolation: isolate">
                    <g id="Grupo_1186180" data-name="Grupo 1186180">
                      <g id="Grupo_1186179" data-name="Grupo 1186179" clip-path="url(#clip-path-12)">
                        <path id="Trazado_1000690" data-name="Trazado 1000690" d="M35.584,172.934c.014,10.638,5.181,18.082,2.749,19.718-1.116.751-4.166,1.04-7.2,1.132,7.393,5.477,14.167,9.867,15.328,9.734,1.526-.175,4.041-4.417,5.7-7.536a26.409,26.409,0,0,0,2.868,1.311l70.833-42.6c1.158.923,7.707,5.328,11.955,8.226l23.43-5.246,6.956-6.311c-6.627.278-25.278-1.371-29.741-2.8s-8.674-5.964-11.755-4.128c-32.57,19.4-63.3,40.076-71.148,42.485s-19.982-14.764-19.982-14.764.072.378.234,1.026Z" transform="translate(-31.137 -144.003)" fill="#504587"/>
                      </g>
                    </g>
                  </g>
                  <path id="Trazado_1000691" data-name="Trazado 1000691" d="M41.8,284.55s-5.743,10.136-8.182,10.23S5.942,273.482.633,265.138,25.144,263.4,25.144,263.4Z" transform="translate(0 -82.562)"/>
                  <path id="Trazado_1000692" data-name="Trazado 1000692" d="M26.491,262.871a2.005,2.005,0,0,1,1.4.586,2.325,2.325,0,0,1,.68,1.447,3.434,3.434,0,0,1-.217,1.533,6.12,6.12,0,0,1-.326.677,6.035,6.035,0,0,1-.441.6,7.008,7.008,0,0,1,.128-.723l.124-.693a5.307,5.307,0,0,0,.054-1.323,2.708,2.708,0,0,0-1.4-2.106" transform="translate(-8.383 -83.181)" fill="#474747"/>
                  <path id="Trazado_1000693" data-name="Trazado 1000693" d="M19.7,261.334a2.005,2.005,0,0,1,1.4.586,2.325,2.325,0,0,1,.68,1.447,3.434,3.434,0,0,1-.217,1.533,6.117,6.117,0,0,1-.326.677,6.19,6.19,0,0,1-.441.6,6.831,6.831,0,0,1,.128-.723l.124-.693a5.307,5.307,0,0,0,.054-1.323,2.708,2.708,0,0,0-1.4-2.106" transform="translate(-6.235 -82.694)" fill="#474747"/>
                  <path id="Trazado_1000694" data-name="Trazado 1000694" d="M206.831,151.25s-91.608,16.91-108.19,27.082c-24.6,15.092-64.05,49.458-64.05,49.458s4.652,21.574,17.882,22.476c0,0,57.621-36.436,68.152-40.679s24.76-9.04,80.859-4.689Z" transform="translate(-10.946 -47.86)" fill="#474747"/>
                  <path id="Trazado_1000695" data-name="Trazado 1000695" d="M371,194.21s11.464,9.065-5.517,28.629S317.269,239.1,317.269,239.1s-4.972-20.379-1.571-23.774l12.142-1.932s-33.4-8.458-38.958-8.661-18.757,1.481-18.757,1.481-12.01-4.135-8.592-17.783c6.174-24.649,14.091-33.835,16.916-37.177,0,0,39.766,1.468,58.094,9.56S371,194.21,371,194.21" transform="translate(-82.564 -47.86)" fill="#de6528"/>
                  <path id="Trazado_1000696" data-name="Trazado 1000696" d="M358.818,238.811a21.671,21.671,0,0,1,2.989-2.877,24.614,24.614,0,0,1,3.451-2.334,18.808,18.808,0,0,1,3.863-1.6,11.6,11.6,0,0,1,4.142-.363,17.525,17.525,0,0,0-3.984.872,26.718,26.718,0,0,0-3.693,1.688,40.546,40.546,0,0,0-3.462,2.161c-1.118.783-2.23,1.587-3.307,2.451" transform="translate(-113.542 -73.281)"/>
                  <g id="Grupo_1186184" data-name="Grupo 1186184" transform="translate(0.814 103.39)" opacity="0.18" style="mix-blend-mode: multiply;isolation: isolate">
                    <g id="Grupo_1186183" data-name="Grupo 1186183">
                      <g id="Grupo_1186182" data-name="Grupo 1186182" clip-path="url(#clip-path-13)">
                        <path id="Trazado_1000697" data-name="Trazado 1000697" d="M23.125,228.2c-.17,15.924,10.618,27.354,5.169,25.3-4.112-1.547-19.514-15.689-27.1-22.8C6.843,239.222,31.585,260.17,34,260.077c2.439-.094,8.182-10.23,8.182-10.23l0,0c6.728-4.283,55.108-35,64.9-38.946,10.508-4.234,21.118-10.219,77.225-6.569.231.03,3.633,1.88,3.633,1.88s13.2-1.684,18.757-1.481,38.958,8.66,38.958,8.66l-12.142,1.932a4.314,4.314,0,0,0-.955,2.256c3.941-.141,11.775-.67,16.362-2.643,6.312-2.716,18.372-11.371,18.372-11.371s-16.648-3.023-29.034-5.929-18.242-4.671-26.457-4.254-29.426-3.693-29.426-3.693c-1.227-14.475,13.889-38.436,13.889-38.436-15.039,2.177-21.458,39.192-21.458,39.192s-26.34,3.13-36.55,4.455-29.365,5.615-31.951,4.261-1.713,2.52-5.111,6.6-57.412,34.051-62.667,34.228-15.4-12.4-15.4-12.4.056.239.165.651l-.169-.033" transform="translate(-1.191 -151.25)" fill="#504587"/>
                      </g>
                    </g>
                  </g>
                  <path id="Trazado_1000698" data-name="Trazado 1000698" d="M187.284,165.681c1.905-.522,3.812-1.034,5.73-1.5s3.828-.963,5.753-1.4l5.768-1.334,5.784-1.261-.128.065c1.586-1.358,3.191-2.693,4.785-4.041l2.412-2,2.428-1.98-2.288,2.14-2.3,2.121c-1.55,1.4-3.089,2.81-4.648,4.2l-.053.048-.075.017-5.765,1.346-5.782,1.272c-1.926.433-3.862.814-5.8,1.207s-3.875.756-5.82,1.1" transform="translate(-59.263 -48.17)"/>
                  <path id="Trazado_1000699" data-name="Trazado 1000699" d="M219.436,251.026s-11.747.675-16.689.049-5.789-4.862-8.534.688-5.618,12.066-3.52,12.922,2.965.375,2.965.375,3.435,5.94,12.1,4.284c0,0,1.109.73,5.469-6.385,0,0,5.272.381,8.376-3.756s-.163-8.179-.163-8.179" transform="translate(-60.113 -78.773)" fill="#fdaa9f"/>
                  <path id="Trazado_1000700" data-name="Trazado 1000700" d="M197.931,258.573a41.222,41.222,0,0,1-1.057,4.83,48.418,48.418,0,0,1-1.508,4.706,23.255,23.255,0,0,1,.849-4.885,25.835,25.835,0,0,1,1.716-4.65" transform="translate(-61.82 -81.821)" fill="#26221c"/>
                  <path id="Trazado_1000701" data-name="Trazado 1000701" d="M204.358,263.271c-.361,1.678-.872,3.288-1.381,4.9l-.783,2.4a20.714,20.714,0,0,0-.669,2.438,7.7,7.7,0,0,1,.152-2.57,23.545,23.545,0,0,1,.649-2.479,24.723,24.723,0,0,1,2.032-4.688" transform="translate(-63.751 -83.307)" fill="#26221c"/>
                  <path id="Trazado_1000702" data-name="Trazado 1000702" d="M211.413,265.763c-.542,1.573-1.171,3.075-1.714,4.606-.284.759-.539,1.528-.757,2.3a11.384,11.384,0,0,0-.449,2.393,5.825,5.825,0,0,1-.072-2.5,12.544,12.544,0,0,1,.636-2.425,17.672,17.672,0,0,1,1.016-2.276,13.724,13.724,0,0,1,1.34-2.1" transform="translate(-65.919 -84.096)" fill="#26221c"/>
                  <path id="Trazado_1000703" data-name="Trazado 1000703" d="M222.333,264.279a3.732,3.732,0,0,1-.175,1.93,3.306,3.306,0,0,1-1.1,1.605,9.211,9.211,0,0,1,.452-1.829,7.131,7.131,0,0,1,.82-1.706" transform="translate(-69.951 -83.626)" fill="#26221c"/>
                  <g id="Grupo_1186187" data-name="Grupo 1186187" transform="translate(129.859 173.533)" opacity="0.18" style="mix-blend-mode: multiply;isolation: isolate">
                    <g id="Grupo_1186186" data-name="Grupo 1186186">
                      <g id="Grupo_1186185" data-name="Grupo 1186185" clip-path="url(#clip-path-14)">
                        <path id="Trazado_1000704" data-name="Trazado 1000704" d="M306,267.656c-8.8,1.685-34.214-4.573-35.282-5.458s-2.429.79-10.34,2.07-37.378-4.846-39.022-4.731-5.52,1.8-9.892,1.682c-2.025-.055-10.668-4.477-17.585-7.208-2.634,5.387-5.193,11.411-3.181,12.231,2.1.856,2.965.376,2.965.376s3.435,5.939,12.1,4.283c0,0,1.109.731,5.469-6.384a11.032,11.032,0,0,0,5.975-1.565l1.494.263,22.949,4.044c8.912,2.079,17.682,3.817,26.768,3.5a177.723,177.723,0,0,0,26.271.224c.086.37.137.582.137.582s31.234,3.308,48.215-16.257c.426-.49.82-.969,1.211-1.446C328.294,264,314.755,265.979,306,267.656" transform="translate(-189.972 -253.864)" fill="#504587"/>
                      </g>
                    </g>
                  </g>
                </g>
              </g>
            </g>
          </g>
        </g>
      </g>
    </g>
  </g>
</svg>
