<svg xmlns="http://www.w3.org/2000/svg" xmlns:xlink="http://www.w3.org/1999/xlink" width="80" height="80" viewBox="0 0 80 80">
  <defs>
    <clipPath id="clip-path">
      <rect id="Rect치ngulo_456448" data-name="Rect치ngulo 456448" width="59.075" height="62.722" fill="#12263f"/>
    </clipPath>
  </defs>
  <g id="Grupo_1183874" data-name="Grupo 1183874" transform="translate(-704.52 -3293.691)">
    <g id="Grupo_1183033" data-name="Grupo 1183033" transform="translate(524.852 -2227.309)">
      <rect id="Rect치ngulo_402006" data-name="Rect치ngulo 402006" width="80" height="80" rx="5" transform="translate(179.668 5521)" fill="#fa9757"/>
    </g>
    <g id="Grupo_1186196" data-name="Grupo 1186196" transform="translate(714.982 3302.33)">
      <g id="Grupo_1186195" data-name="Grupo 1186195" clip-path="url(#clip-path)">
        <path id="Trazado_1000762" data-name="Trazado 1000762" d="M9.272,62.174c-.243.88-1.976.666-1.868-.486L7.4,50.421a4.889,4.889,0,0,1-3.068-6.528c.633-1.727,2.711-4.721,3.023-6.236.8-3.878-1.414-9.547,1.763-12.831.346-.358,1.435-.928,1.525-1.064.267-.4.185-1.856.472-2.4A11.182,11.182,0,0,1,8.49,19.568a11.979,11.979,0,0,1-3.622,4.619c-.81.571-1.477,1.067-2.348.328-.931-.789-.4-1.681-.511-2.786a41.775,41.775,0,0,0-1.323-4.8C-.8,10.779-.479,2.284,7.806,2.159c.665-.01,2.334.471,2.743.379.256-.057,1.843-1.208,2.433-1.466C19.845-1.919,32.227,1.389,31.2,10.5c-.262,2.318-.972,3.5-3.04,4.493-.888.428-1.406.085-1.249,1.438.134,1.151,1.081,1.208.435,2.614a36.77,36.77,0,0,1-3.17,4.518c-1.662,1.844-3.231.432-5.015-.387l-.645,3.69.049.2c3.145,2.125,7.154,3.621,6.517,8.229-.049.353-.551,1.6-.513,1.691.093.211,1.327,1.133,1.656,1.484,5.027,5.358,9.116,13.91,2.509,19.779-.246.218-.929.552-1.021.705-.493.819.68,3.656-.953,3.763-1.4.092-1.133-3.158-.9-4.05.348-1.345,1.691-1.689,2.565-2.613,4.194-4.431.615-11.64-2.749-15.464-.589-.67-2.881-2.554-3.075-3.05-.341-.87.2-1.031.4-1.657a3.891,3.891,0,0,0-1.342-4.618c-2.557-2.068-6.113-3.8-8.8-5.789-1.3-.49-2.511.473-3.087,1.567a9.7,9.7,0,0,0-.5,1.387v5.257l1.5-2.815a4.186,4.186,0,0,1,7.6,2.892c-.193,2.079-4.133,8.51-5.2,10.961-.069.158-.36.81-.29.886l6.68,2.665c1.7-.213,4.583-2.329,5.848-.362a2.334,2.334,0,0,1,.27,1.944c-.122.389-.6.538-.557.93,3.443,2.057,1.191,7.031-2.818,5.881a49.5,49.5,0,0,1-5.491-2.354.905.905,0,0,1,.674-1.593L23.041,55a1.48,1.48,0,0,0,1.853-1.849c-.33-1.292-2.691-1.022-2.04-2.815.155-.428,1.336-1.081,1.012-1.419-.176-.183-3.716,1.37-4.616,1.248a61.343,61.343,0,0,1-6.994-2.9c-3.065-1.65.6-4.883,1.1-7.136-.678-.079-3.9-2.108-4.224-1.875-.708,2.1-2.366,4.228-3.07,6.269-1.557,4.517,5.236,5,7.912,6.676a.915.915,0,0,1,.011,1.56c-.986.477-3.577-1.326-4.709-1.491Zm9.914-49.224c.548.323,2.112-1.072,2.715-1.083.523-.01,1.8,1.126,2.535,1.4,2.332.881,4.531-.021,4.882-2.609C30.635.946,12.893-1.491,9.354,7.017c-1.282,3.082-1.714,8.634.623,11.3,1.048,1.195,2.11,1.681,3.523.695,2.2-1.533.784-1.655.248-3.053-1.35-3.528,2.219-6.82,4.786-4,.216.237.6.966.652,1M8.8,4.033C2.625,3.8,1.243,8.369,1.917,13.663c.38,2.984,1.68,5.747,2.021,8.729.245.283,1.846-1.749,2.01-1.99a12.9,12.9,0,0,0,1.406-2.822c.019-.232-.426-1.08-.514-1.463a16.846,16.846,0,0,1,.836-9.837C7.831,5.916,8.947,4.173,8.8,4.033m9.143,10.943c-.546-.513-.21-2.3-1.673-2.154-1.514.151-1.28,2.984.262,3.488.626.2,1.872.015,1.661,1.1-.2,1.019-1.036.577-1.548.82-.154.073-1.2,1.58-1.649,1.96-.4.336-1.887,1.051-1.974,1.165a17.981,17.981,0,0,0-.45,1.912c.011.425,1.01.492,1.458.72.889.454,1.842,1.3,2.7,1.854.527-1.132.305-4.576,1.762-4.839.868-.157,3.065,1.45,4.027,1.689.409-.742,3.053-3.909,3.07-4.458.008-.266-.391-.834-.45-1.271-.073-.536.03-1.091-.021-1.627-1.012.243-2.623-1.278-3.238-1.386-.54-.1-3.023,1.88-3.934,1.024m-3.651,23.58c.612-1.98,4.039-6.05.927-7.437-3-1.338-4.068,3.464-5.125,5.325Z" transform="translate(0 0)" fill="#12263f"/>
        <path id="Trazado_1000763" data-name="Trazado 1000763" d="M172.213,146.856c-3.255-3.336-5.292-7.533-3.426-12.183a9.354,9.354,0,0,1,14.343-3.834c.285.218,1.083,1.195,1.326,1.153a9.6,9.6,0,0,1,11.035-2.214c.9.417,4.6,2.776,2.517,3.68-.832.361-1.5-.828-2.1-1.27a7.5,7.5,0,0,0-9.393.44c-.92.813-1.444,2.375-2.821,1.416-.472-.329-.734-.921-1.1-1.254a7.53,7.53,0,0,0-12.123,2.626c-2,5.039,1.675,8.98,5.139,12.048,2.776,2.459,5.833,4.645,8.737,6.949.278.025.735-.366.981-.532,1.965-1.321,4.513-3.521,6.366-5.09,3.023-2.56,7.274-6.1,7.313-10.429.007-.783-.622-2.4.18-2.791,1.057-.52,1.443.5,1.531,1.379.54,5.353-2.738,8.834-6.429,12.083a85.437,85.437,0,0,1-8.176,6.575,2.584,2.584,0,0,1-3.11.156,74.923,74.923,0,0,1-7.778-6.188c-.952-.82-2.147-1.835-3.009-2.718" transform="translate(-141.7 -108.669)" fill="#12263f"/>
        <path id="Trazado_1000764" data-name="Trazado 1000764" d="M243.181,181.471c3.054-.317,3.548.691,3.3,3.536-.217,2.509-1.337,1.5-2.909,1.8-.723.136-.274,1.629-.4,2.272-.239,1.258-2.87,1.134-3.841,1.023-1.9-.216-1.448-1.839-1.491-3.3H235.57c-1.121,0-.972-3.408-.854-4.15.225-1.422,2.078-1.185,3.131-1.185.008-.956-.25-2.709.933-3.069.709-.216,4.4-.315,4.4.793Zm-3.452-1.255v2.275a1.953,1.953,0,0,1-.863.863H236.59c-.362,2.716.96,1.336,2.4,1.759a2.028,2.028,0,0,1,.739.831v2.275h1.57c.03-.991-.318-2.916,1.029-3.129,1.117-.177,2.275.575,2.275-.873s-1.162-.691-2.276-.872c-1.291-.211-1.012-2.16-1.028-3.13Z" transform="translate(-197.815 -150.291)" fill="#12263f"/>
      </g>
    </g>
  </g>
</svg>
