<svg xmlns="http://www.w3.org/2000/svg" xmlns:xlink="http://www.w3.org/1999/xlink" width="561" height="300" viewBox="0 0 561 300">
  <defs>
    <clipPath id="clip-path">
      <rect id="Rectángulo_456317" data-name="Rectángulo 456317" width="510" height="300" transform="translate(824.711 7118)" fill="#fff" stroke="#707070" stroke-width="1"/>
    </clipPath>
    <clipPath id="clip-path-2">
      <rect id="Rectángulo_456276" data-name="Rectángulo 456276" width="431.738" height="401.923" fill="#fa9757"/>
    </clipPath>
    <clipPath id="clip-path-3">
      <rect id="Rectángulo_456447" data-name="Rectángulo 456447" width="319.157" height="357.857" fill="none"/>
    </clipPath>
  </defs>
  <g id="Grupo_1186157" data-name="Grupo 1186157" transform="translate(10959 4057)">
    <rect id="Rectángulo_456275" data-name="Rectángulo 456275" width="561" height="300" transform="translate(-10959 -4057)" fill="#fff3d3"/>
    <g id="Enmascarar_grupo_1098961" data-name="Enmascarar grupo 1098961" transform="translate(-11766.711 -11175)" clip-path="url(#clip-path)">
      <g id="Grupo_1185812" data-name="Grupo 1185812" transform="translate(872.342 7123.37)">
        <g id="Grupo_1186022" data-name="Grupo 1186022">
          <g id="Grupo_1185723" data-name="Grupo 1185723">
            <g id="Grupo_1185722" data-name="Grupo 1185722" clip-path="url(#clip-path-2)">
              <path id="Trazado_1000296" data-name="Trazado 1000296" d="M410.294,84.665a117.845,117.845,0,0,0-43.3-66.38C351.726,6.716,331.568-2.785,308.62.748,257.388,8.637,202.957,79.1,145.837,68.083S42.772,102.029,50.324,173.023s133.014,126.32,244.305,95.591c95.622-26.4,133.3-110.835,115.665-183.949" transform="translate(-13.02 0)" fill="#fa9757"/>
              <path id="Trazado_1000297" data-name="Trazado 1000297" d="M107.384,68.711c15.92,0,17.084-24.788,1.078-24.788-15.92,0-17.084,24.788-1.078,24.788" transform="translate(-25.229 -11.551)" fill="#ffc025"/>
              <path id="Trazado_1000298" data-name="Trazado 1000298" d="M497.235,302.95c15.92,0,17.084-24.788,1.078-24.788-15.92,0-17.084,24.788-1.078,24.788" transform="translate(-127.752 -73.151)" fill="#ffc025"/>
              <path id="Trazado_1000299" data-name="Trazado 1000299" d="M62.525,99.091c11.393,0,12.226-17.739.772-17.739-11.393,0-12.226,17.739-.772,17.739" transform="translate(-14.288 -21.394)" fill="#ffdd8b"/>
              <path id="Trazado_1000300" data-name="Trazado 1000300" d="M17.192,213.868a9.974,9.974,0,0,0-6.869-3.2A10.4,10.4,0,0,0,3.2,213.26a7.41,7.41,0,0,0-2.184,3.095A7.459,7.459,0,0,0,0,220.129a9.9,9.9,0,0,0,9.463,10.323,10.4,10.4,0,0,0,7.121-2.594,7.432,7.432,0,0,0,2.184-3.095,7.459,7.459,0,0,0,1.018-3.774,10.009,10.009,0,0,0-2.594-7.121" transform="translate(0 -55.401)" fill="#ffdd8b"/>
              <path id="Trazado_1000301" data-name="Trazado 1000301" d="M576.136,227.858a9.974,9.974,0,0,0-6.869-3.2,10.4,10.4,0,0,0-7.121,2.594,11.017,11.017,0,0,0-3.2,6.869,9.9,9.9,0,0,0,9.463,10.323,10.4,10.4,0,0,0,7.121-2.594,11.018,11.018,0,0,0,3.2-6.869,10.01,10.01,0,0,0-2.594-7.121" transform="translate(-146.991 -59.08)" fill="#ffc025"/>
              <path id="Trazado_1000302" data-name="Trazado 1000302" d="M83.316,292.463a10.042,10.042,0,0,0-6.876,2.5,10.639,10.639,0,0,0-3.091,6.632,9.56,9.56,0,0,0,9.136,9.967,10.04,10.04,0,0,0,6.876-2.5,10.633,10.633,0,0,0,3.091-6.632,9.56,9.56,0,0,0-9.136-9.967" transform="translate(-19.289 -76.912)" fill="#ffc025"/>
              <path id="Trazado_1000303" data-name="Trazado 1000303" d="M500.523,0a10.042,10.042,0,0,0-6.876,2.5,7.17,7.17,0,0,0-2.109,2.989,7.2,7.2,0,0,0-.982,3.644,9.56,9.56,0,0,0,9.136,9.967,10.04,10.04,0,0,0,6.876-2.5,7.168,7.168,0,0,0,2.109-2.988,7.2,7.2,0,0,0,.982-3.645A9.56,9.56,0,0,0,500.523,0" transform="translate(-129.007)" fill="#ffdd8b"/>
              <path id="Trazado_1000304" data-name="Trazado 1000304" d="M556.749,181.623c-9.348,0-10.031,14.555-.633,14.555,9.348,0,10.032-14.555.633-14.555" transform="translate(-144.48 -47.763)" fill="#ffdd8b"/>
            </g>
          </g>
          <g id="Grupo_1186194" data-name="Grupo 1186194" transform="translate(56.291)">
            <path id="Trazado_1000705" data-name="Trazado 1000705" d="M112.529,385.828H266.04L218.094,198.249l-86.64-3.364Z" transform="translate(-16.636 -28.812)" fill="#7689a1"/>
            <g id="Grupo_1186193" data-name="Grupo 1186193" transform="translate(2 -0.841)">
              <g id="Grupo_1186192" data-name="Grupo 1186192" clip-path="url(#clip-path-3)">
                <path id="Trazado_1000706" data-name="Trazado 1000706" d="M218.095,198.759l-10.856-.422c-5.531,18.974-13.68,39.334-32.979,47.623-15.035,6.458-31.866,7.69-48.474,6.631L112.529,386.338H266.041Z" transform="translate(-16.636 -29.322)" fill="#697b8e"/>
                <path id="Trazado_1000707" data-name="Trazado 1000707" d="M127.36,330.224c14.9-4.075,31.543-10.476,40.265-20.01,0,0,1.261,21.87,23.132,35.749,15.085,9.573,12.961,29.149,10.193,40.375H266.04L218.094,198.76l-10.855-.422c-5.531,18.974-13.68,39.333-32.979,47.623-15.035,6.458-31.866,7.69-48.474,6.631L112.528,386.338h15.925Z" transform="translate(-16.636 -29.322)" fill="#627382"/>
                <path id="Trazado_1000708" data-name="Trazado 1000708" d="M212.777,199.367s10.094,7.15-.841,24.394S174.5,258.669,188.8,296.942,248.737,334.164,250,380.427h96.459s-4.142-12.407-20.125-22.08-41.612-3.146-32.359-32.587,18.9-26.294-5.072-52.37-30.282-71.919-31.965-83.7-9.673-31.123-29.02-29.861-15.141,39.534-15.141,39.534" transform="translate(-27.301 -23.621)" fill="#583f00"/>
                <path id="Trazado_1000709" data-name="Trazado 1000709" d="M311.061,353.647c.589-1.874,1.179-3.615,1.763-5.241-2.1,3.17-4.308,6.305-6.435,9.515-2.76,4.165-6.106,9.093-6.148,14.3-.05,6.109,3.833,10.955,8.1,14.959,9.323,8.744,21.7,12.971,32.195,20,.554.371,1.092.752,1.627,1.136h21.381s-4.142-12.407-20.125-22.08-41.612-3.146-32.359-32.587" transform="translate(-44.387 -51.508)" fill="#d16671"/>
                <path id="Trazado_1000710" data-name="Trazado 1000710" d="M259.018,377.091c-2.934-9.614,1.033-17.536,4.3-26.408,3.392-9.224,10.159-22.134,4.418-38.535-3.578-10.225-10.367-10.2-18.228-17.5-7.428-6.9-15.878-12.8-22.629-20.414-6.371-7.185-11.7-15.208-13.368-24.835a94.36,94.36,0,0,1-1.186-15.283c-.13.212-.249.419-.386.635C201,251.994,174.5,269.659,188.8,307.932S248.737,345.153,250,391.417h20.215c-5.188-3.451-9.3-8.1-11.195-14.327" transform="translate(-27.301 -34.612)" fill="#d16671"/>
                <path id="Trazado_1000711" data-name="Trazado 1000711" d="M226.012,279.116c-12.511-3.486-31.254-.838-51.252-6.236a275.45,275.45,0,0,1-29.223-9.546,97.639,97.639,0,0,1-6.88,12.994c5.744,3.674,54.977,34.953,71.072,38.192,19.065,3.837,36.391,12.26,47.5,5.134s-18.307-25.767-31.219-40.538" transform="translate(-20.499 -38.931)" fill="#ffb8bd"/>
                <path id="Trazado_1000712" data-name="Trazado 1000712" d="M226.039,279.975c-12.511-3.486-31.254-.838-51.252-6.236-5.834-1.575-11.008-3.15-15.419-4.594-6.771,2.89-13.635,5.552-20.527,8.142,6.426,4.106,54.957,34.881,70.914,38.092,19.065,3.837,36.391,12.26,47.5,5.134s-18.307-25.767-31.219-40.538" transform="translate(-20.526 -39.79)" fill="#fa9757"/>
                <path id="Trazado_1000713" data-name="Trazado 1000713" d="M116.892,320.632c-12.2-5.047,12.617-26.076,22.711-42.9,11.7-5.645,31.454-8.878,50.18-17.73a249.908,249.908,0,0,0,29.884-16.361s-.929-10.165,3.632-15.116c2.615-2.839,8.473-7.994,9.739-7.175s9.458.749,9.3,2.875-8.949,2.237-8.949,2.237l-3.692,3.757s6.892.974,14.595-5.6,10.318-4.052,9.9-1.3-7.037,6.255-7.037,6.255c-1.3,1.824,7.9-2.925,8.862-2.084s3.222,3.829-4.43,6.776-1.951,1.31,4.561-.652,4.83,2.208-5.082,7.427,6.335-3.509,6.564-.2-6.561,5.331-6.561,5.331-12.952,7.024-16.841,7.6-6.937.93-6.937.93-48.337,46.07-64.561,52.485c-18.085,7.15-33.646,18.506-45.843,13.458" transform="translate(-16.793 -32.591)" fill="#ffdd8b"/>
                <path id="Trazado_1000714" data-name="Trazado 1000714" d="M144.015,314.8c-5.618-1.464-11.975-3.751-17.093-7.2-9.6,11.785-18.277,22.5-10.03,25.917,12.2,5.047,27.758-6.309,45.843-13.459a64.9,64.9,0,0,0,11.877-7.035c-9.7,2.973-20.875,4.313-30.6,1.78" transform="translate(-16.793 -45.475)" fill="#fa9757"/>
                <path id="Trazado_1000715" data-name="Trazado 1000715" d="M109.772,163.791S88.743,166.314,83.7,188.185,82.435,255.9,58.041,287.021s-29.44,21.45-11.776,40.8,25.655,21.87,7.15,28.6S0,362.725,0,382.072H103.042s1.723-68.508,5.047-86.639c4.626-25.235,43.741-36.17,45.843-82.855s-27.758-48.787-44.161-48.787" transform="translate(0 -24.215)" fill="#583f00"/>
                <path id="Trazado_1000716" data-name="Trazado 1000716" d="M41.991,339.524c-.414,3.088,2.992,6.076,10.476,14.273,17.664,19.347,25.656,21.871,7.15,28.6-.92.335-1.883.651-2.878.954a36.685,36.685,0,0,0,13.728-4.1c8.055-4.552,9.389-13.933,2.959-20.783-8.272-8.812-20.115-14.666-31.435-18.938" transform="translate(-6.203 -50.195)" fill="#583f00"/>
                <path id="Trazado_1000717" data-name="Trazado 1000717" d="M6.362,415.845a84.659,84.659,0,0,1,3.588-12.158C3.98,406.747,0,411.016,0,417.539H3.366q1.355-.169,2.71-.358c.094-.458.189-.9.285-1.336" transform="translate(0 -59.681)" fill="#d16671"/>
                <path id="Trazado_1000718" data-name="Trazado 1000718" d="M117.308,163.791a22.614,22.614,0,0,0-2.6.531c-1.1,7.833-2.575,15.684-2.172,23.578.483,9.461,5.73,20.209,16.15,21.927,5.438.9,11,1.513,14.111,6.822,2.26,3.858,1.016,9.623.32,13.727a53.625,53.625,0,0,1-15.736,30.265c-7.226,7.195-22.65-18.408-32.762-19.575-21.321-2.46,16.4,17.221,4.92,40.183-4.328,8.657-9.454,35.866-6.905,44.882,2.174,7.686,3.957,16.479,1.113,24.255-6.4,17.5-25.567,26.028-42.033,31.447-.246.081-.494.157-.741.237h59.606s1.723-68.508,5.047-86.639c4.626-25.235,43.741-36.17,45.843-82.855s-27.758-48.787-44.161-48.787" transform="translate(-7.536 -24.215)" fill="#412f01"/>
                <path id="Trazado_1000719" data-name="Trazado 1000719" d="M162.53,267.606a238.848,238.848,0,0,1-27.579-9.5s.833-8.364-4.532-12.43c-3.077-2.332-2.666-4.305-5.536-6.355-1.226-.876-5.779-4.182-5.74-2.05.066,3.658,4.305,8.611,4.305,8.611l3.075,5.125s-9.636-2.87-21.526-5.74c-9.847-2.377-16.885-5.092-15.992-2.46s17.631,8.61,17.631,8.61c1.605,1.565-16.56-4.4-17.836-4.305-2.87.205,1.025,3.485,13.067,7.41,7.8,2.541-4.875-1.1-11.632-1.875s2.665,5.069,13.344,8.452c19.7,6.24-10.474-3.531-10.474-1.892,0,3.317,13.643,8.472,13.643,8.472s12.927,4.774,16.857,4.649,6.993-.313,6.993-.313,4.1,2.638,10.4,6.536a5.331,5.331,0,0,1,.73-.373c4.553-1.865,9.16-3.572,13.8-5.188q3.435-2.776,7.007-5.384" transform="translate(-12.995 -34.974)" fill="#ffdd8b"/>
                <path id="Trazado_1000720" data-name="Trazado 1000720" d="M170.061,272.422c-3.933-1.128-7.514-2.237-10.692-3.277-6.771,2.89-13.635,5.552-20.527,8.142,1.426.911,4.927,3.137,9.682,6.081a5.251,5.251,0,0,1,.731-.374c4.553-1.864,9.16-3.572,13.8-5.188q3.435-2.776,7.007-5.384" transform="translate(-20.526 -39.79)" fill="#fa9757"/>
                <path id="Trazado_1000721" data-name="Trazado 1000721" d="M136.118,139.149s-9.929.421-10.349,18.506-5.294,26.794,27.758,43.32c26.917,13.459,61.4,15.141,75.7-13.458s-7.991-26.076-10.935-39.534-21.66-11.356-21.66-11.356Z" transform="translate(-18.521 -20.181)" fill="#3a85a3"/>
                <path id="Trazado_1000722" data-name="Trazado 1000722" d="M157.313,193.6c-33.053-16.526-28.179-25.235-27.758-43.32a37.764,37.764,0,0,1,.721-6.763c-2.243,2.569-4.319,7.116-4.506,15.174-.421,18.085-5.294,26.794,27.758,43.32,26.917,13.458,61.4,15.14,75.7-13.459a60.142,60.142,0,0,0,2.983-6.923c-14.746,27.025-48.467,25.187-74.9,11.97" transform="translate(-18.521 -21.217)" fill="#2d6a7c"/>
                <path id="Trazado_1000723" data-name="Trazado 1000723" d="M140.957,139.481s-1.937,26.076,36.756,32.385,36.591-28.6,35.75-31.544-72.506-.841-72.506-.841" transform="translate(-20.837 -20.513)" fill="#2d6a7c"/>
                <path id="Trazado_1000724" data-name="Trazado 1000724" d="M136.084,110.237s-4.269-10.094-10.674-4.486-2.669,29.16,12.809,28.6-2.135-24.114-2.135-24.114" transform="translate(-18.099 -15.383)" fill="#ffdd8b"/>
                <path id="Trazado_1000725" data-name="Trazado 1000725" d="M124.126,116.187a7.609,7.609,0,0,1,.5-2.664,2.8,2.8,0,0,1,.915-1.219c.133-.067.272-.132.413-.19a2.91,2.91,0,0,1,.463-.056,2.308,2.308,0,0,1,.84.206,4.056,4.056,0,0,1,1.233.935l.437.5c.142.189.28.4.419.605a10.477,10.477,0,0,1,.7,1.231q.293.623.561,1.253c.159.423.345.842.477,1.272s.287.857.406,1.289c.254.862.492,1.726.671,2.6a47.238,47.238,0,0,1,.873,5.286l.063.572-.5.187a8.97,8.97,0,0,0-.9.388,5.8,5.8,0,0,0-.822.493,2.179,2.179,0,0,0-.563.569.476.476,0,0,0,0,.533,1.908,1.908,0,0,0,.267.32,3.338,3.338,0,0,0,.373.3,6.231,6.231,0,0,0,.885.514c.625.316,1.291.58,1.961.848a13.535,13.535,0,0,1-2.148-.352,6.807,6.807,0,0,1-1.06-.373,4.178,4.178,0,0,1-.524-.281,2.619,2.619,0,0,1-.489-.435,1.532,1.532,0,0,1-.327-.694,1.474,1.474,0,0,1,.075-.793,2.774,2.774,0,0,1,.773-1.078,6.982,6.982,0,0,1,.942-.715,8.527,8.527,0,0,1,1.018-.567l-.439.758c-.315-1.7-.686-3.419-1.079-5.109-.208-.844-.407-1.688-.636-2.522s-.492-1.651-.751-2.467q-.212-.6-.446-1.193c-.177-.365-.331-.8-.516-1.115-.093-.171-.171-.343-.274-.521l-.383-.54a3.868,3.868,0,0,0-.77-.764.813.813,0,0,0-.8-.143,2.181,2.181,0,0,0-.79.758,10.116,10.116,0,0,0-1.048,2.373" transform="translate(-18.351 -16.566)" fill="#06263a"/>
                <path id="Trazado_1000726" data-name="Trazado 1000726" d="M222.151,110.562s3.043-10.573,10.061-5.845,6.1,28.586-9.329,30.051-.733-24.206-.733-24.206" transform="translate(-31.909 -15.301)" fill="#ffdd8b"/>
                <path id="Trazado_1000727" data-name="Trazado 1000727" d="M237.444,116.187a10.116,10.116,0,0,0-1.048-2.373,2.181,2.181,0,0,0-.79-.758.813.813,0,0,0-.8.143,3.9,3.9,0,0,0-.771.764l-.383.54c-.1.177-.181.349-.274.521-.185.319-.339.75-.516,1.115q-.233.591-.446,1.193c-.259.816-.527,1.631-.751,2.467s-.428,1.678-.636,2.522c-.393,1.69-.764,3.408-1.079,5.109l-.439-.758a8.527,8.527,0,0,1,1.018.567,6.981,6.981,0,0,1,.942.715,2.774,2.774,0,0,1,.773,1.078,1.474,1.474,0,0,1,.075.793,1.532,1.532,0,0,1-.327.694,2.619,2.619,0,0,1-.489.435,4.178,4.178,0,0,1-.524.281,6.807,6.807,0,0,1-1.06.373,13.535,13.535,0,0,1-2.148.352c.67-.268,1.336-.532,1.961-.848a6.231,6.231,0,0,0,.885-.514,3.338,3.338,0,0,0,.373-.3,1.907,1.907,0,0,0,.267-.32.476.476,0,0,0,0-.533,2.179,2.179,0,0,0-.563-.569,5.8,5.8,0,0,0-.822-.493,8.967,8.967,0,0,0-.9-.388l-.5-.187.063-.572a47.242,47.242,0,0,1,.873-5.286c.18-.876.418-1.74.672-2.6.118-.432.27-.86.406-1.289s.317-.85.477-1.272q.267-.63.561-1.253a10.477,10.477,0,0,1,.7-1.231c.139-.2.277-.416.419-.605l.437-.5a4.056,4.056,0,0,1,1.233-.935,2.308,2.308,0,0,1,.84-.206,2.91,2.91,0,0,1,.463.056c.141.058.28.123.413.19a2.8,2.8,0,0,1,.915,1.219,7.608,7.608,0,0,1,.5,2.664" transform="translate(-33.673 -16.566)" fill="#06263a"/>
                <path id="Trazado_1000728" data-name="Trazado 1000728" d="M171.042,59.957s-33.555,1.682-35.1,45.423,32.523,58.881,54.721,48.787,27.877-40.375,21.682-61.124-16-34.768-41.3-33.086" transform="translate(-20.089 -8.844)" fill="#ffdd8b"/>
                <path id="Trazado_1000729" data-name="Trazado 1000729" d="M170.14,45.542s-33.1-2.17-29.576-22.521S164.359,5.2,170.329,3.03s26.132-6.6,31.015,12.122-19.265,38.259-33.917,35.273,2.713-4.884,2.713-4.884" transform="translate(-20.742 -0.143)" fill="#093c5b"/>
                <path id="Trazado_1000730" data-name="Trazado 1000730" d="M173.239,16.482a17.5,17.5,0,0,0-2.729-2.626q-1.47-1.2-3.05-2.252a33.71,33.71,0,0,0-6.684-3.5A16.961,16.961,0,0,0,153.448,6.9a11.1,11.1,0,0,0-3.566.911,11.4,11.4,0,0,0-3.052,2.047,14.685,14.685,0,0,0-2.366,2.848,20.816,20.816,0,0,0-1.738,3.3,15.8,15.8,0,0,0-.776,7.308c.107,1.249.305,2.486.493,3.745s.344,2.5.6,3.729a17.789,17.789,0,0,0,1.058,3.56,9.788,9.788,0,0,0,2,3.043l.015.016.009.011a16.314,16.314,0,0,0,6.173,4.205c.58.262,1.17.51,1.761.758l1.767.736c1.2.453,2.406.879,3.626,1.261.609.193,1.224.366,1.841.526s1.238.308,1.866.412c.625.124,1.256.206,1.888.286.628.05,1.28.112,1.911.108a46.835,46.835,0,0,0,7.645-.735,46.981,46.981,0,0,1-7.648,1.022c-.654.026-1.285-.009-1.939-.037-.644-.06-1.291-.112-1.928-.23-.642-.092-1.272-.24-1.9-.379s-1.255-.311-1.875-.493c-1.239-.36-2.47-.768-3.678-1.193l-1.806-.707c-.6-.235-1.2-.474-1.793-.728a16.627,16.627,0,0,1-6.475-4.348l.025.027a10.562,10.562,0,0,1-2.174-3.259,18.551,18.551,0,0,1-1.132-3.7c-.266-1.256-.443-2.52-.629-3.773s-.376-2.515-.479-3.792a16.541,16.541,0,0,1,.882-7.66,21.747,21.747,0,0,1,1.821-3.407,15.425,15.425,0,0,1,2.5-2.967,11.542,11.542,0,0,1,3.263-2.123,11.711,11.711,0,0,1,3.78-.9,17.467,17.467,0,0,1,7.531,1.37,31.725,31.725,0,0,1,6.659,3.717q1.552,1.107,2.992,2.356a17.535,17.535,0,0,1,2.654,2.716" transform="translate(-20.856 -0.93)" fill="#093c5b"/>
                <path id="Trazado_1000731" data-name="Trazado 1000731" d="M169.827,17.1a17.464,17.464,0,0,0-3.146-2.109c-1.1-.616-2.239-1.178-3.4-1.685a33.745,33.745,0,0,0-7.193-2.277,16.966,16.966,0,0,0-7.425.089,11.1,11.1,0,0,0-3.353,1.52,11.418,11.418,0,0,0-2.647,2.548,14.724,14.724,0,0,0-1.833,3.218,20.9,20.9,0,0,0-1.135,3.551,15.819,15.819,0,0,0,.512,7.331c.323,1.211.735,2.395,1.139,3.6s.776,2.406,1.237,3.569a17.81,17.81,0,0,0,1.663,3.32,9.812,9.812,0,0,0,2.5,2.649l.018.012.011.01a16.324,16.324,0,0,0,6.813,3.063c.618.156,1.241.3,1.867.438l1.869.417c1.265.235,2.522.444,3.79.608.633.084,1.268.146,1.9.2s1.273.088,1.91.08c.637.013,1.273-.016,1.91-.048.626-.06,1.279-.114,1.9-.227a47.046,47.046,0,0,0,7.4-2.059,46.975,46.975,0,0,1-7.352,2.341c-.64.14-1.266.216-1.915.3-.645.055-1.292.114-1.94.111-.648.021-1.294-.015-1.941-.041s-1.29-.088-1.932-.159c-1.282-.138-2.565-.325-3.83-.533l-1.9-.382c-.631-.127-1.262-.257-1.893-.4A16.616,16.616,0,0,1,146.3,43l.029.022a10.522,10.522,0,0,1-2.71-2.828,18.538,18.538,0,0,1-1.761-3.45c-.481-1.191-.877-2.4-1.278-3.6s-.81-2.411-1.134-3.651a16.552,16.552,0,0,1-.469-7.7,21.654,21.654,0,0,1,1.2-3.672,15.4,15.4,0,0,1,1.94-3.358,11.564,11.564,0,0,1,2.842-2.66,11.739,11.739,0,0,1,3.565-1.544,17.467,17.467,0,0,1,7.654.034,31.741,31.741,0,0,1,7.206,2.5q1.721.819,3.358,1.8a17.521,17.521,0,0,1,3.087,2.211" transform="translate(-20.506 -1.5)" fill="#093c5b"/>
                <path id="Trazado_1000732" data-name="Trazado 1000732" d="M176.591,10.125l.493-.873c.328-.567.781-1.413,1.421-2.454a19.949,19.949,0,0,1,2.622-3.542A9.773,9.773,0,0,1,185.984.318a14.076,14.076,0,0,1,6.763.223,33.452,33.452,0,0,1,7.093,2.685,16,16,0,0,1,6.084,5.387,15.316,15.316,0,0,1,1.759,3.85,37.7,37.7,0,0,1,1.02,4.093,33.067,33.067,0,0,1,.513,8.4A22.085,22.085,0,0,1,207.2,32.9c-.263.62-.647,1.174-.962,1.756-.378.543-.746,1.09-1.156,1.594l-.645.726-.32.36c-.183.17-.254.219-.386.334l-.7.591c-.244.191-.509.372-.759.556a23.941,23.941,0,0,1-6.169,3.092,47.484,47.484,0,0,1-5.577,1.523c-1.677.363-3.143.62-4.346.839l-3.769.683-.238-1.282,3.791-.644c1.2-.2,2.66-.444,4.312-.783a46.228,46.228,0,0,0,5.454-1.423,22.9,22.9,0,0,0,5.909-2.873c.234-.169.473-.324.709-.5l.707-.584.319-.265.3-.333.61-.672c.389-.467.739-.977,1.1-1.481.3-.545.67-1.06.924-1.645a21.141,21.141,0,0,0,2.007-7.58,32.224,32.224,0,0,0-.41-8.185,36.666,36.666,0,0,0-.929-4.034,14.614,14.614,0,0,0-1.609-3.7,15.424,15.424,0,0,0-5.774-5.29,33.007,33.007,0,0,0-6.939-2.77,13.771,13.771,0,0,0-6.606-.343,9.566,9.566,0,0,0-4.812,2.8,19.79,19.79,0,0,0-2.672,3.475c-.657,1.028-1.127,1.865-1.464,2.425l-.509.865" transform="translate(-26.107 0)" fill="#093c5b"/>
                <path id="Trazado_1000733" data-name="Trazado 1000733" d="M188.174,45.738l.84-.073c.534-.063,1.385-.083,2.334-.253l1.611-.249,1.891-.424c.67-.169,1.361-.414,2.1-.635.734-.247,1.465-.6,2.253-.917.741-.4,1.54-.791,2.308-1.282a19.96,19.96,0,0,0,2.272-1.68l1.1-.948,1.081-1.139a27,27,0,0,0,1.9-2.481A34.3,34.3,0,0,0,211,29.794a15.43,15.43,0,0,0,1.567-6.564,12.572,12.572,0,0,0-.593-3.343,16,16,0,0,0-1.434-3.084,21.291,21.291,0,0,0-4.369-5.032A26.711,26.711,0,0,0,203.6,9.835l-1.294-.888c-.429-.288-.886-.5-1.319-.753l-1.3-.71-1.323-.569c-.436-.178-.853-.391-1.286-.532l-1.277-.412a18.3,18.3,0,0,0-2.432-.647l-1.142-.252-1.094-.15a34.969,34.969,0,0,0-3.681-.343c-1.024-.063-1.832-.015-2.382-.029l-.843,0,.843-.013c.55.006,1.357-.052,2.383,0a34.91,34.91,0,0,1,3.692.294l1.1.135,1.15.238,1.212.246c.414.08.821.231,1.247.348l1.3.383c.441.131.864.335,1.31.5l1.349.542,1.335.689c.446.242.923.455,1.359.732l1.317.856a27.452,27.452,0,0,1,2.652,1.9,21.827,21.827,0,0,1,4.611,5.058,16.739,16.739,0,0,1,1.579,3.19,13.439,13.439,0,0,1,.718,3.54,6.893,6.893,0,0,1,.018.91,7.012,7.012,0,0,1-.037.914,11.844,11.844,0,0,1-.292,1.79c-.077.3-.107.545-.222.879l-.268.844c-.169.566-.38,1.114-.585,1.663a35.453,35.453,0,0,1-3.03,6.188,27.9,27.9,0,0,1-1.944,2.733l-1.038,1.179c-.425.416-.788.739-1.179,1.105a21.463,21.463,0,0,1-2.379,1.9c-.809.559-1.65,1.011-2.437,1.473-.829.374-1.611.775-2.384,1.079-.781.276-1.514.574-2.221.788l-1.995.548c-.627.141-1.212.246-1.736.354-1.066.235-1.836.283-2.389.375l-.835.113Z" transform="translate(-27.237 -0.668)" fill="#093c5b"/>
                <path id="Trazado_1000734" data-name="Trazado 1000734" d="M194.286,48.831s.417-.689,1.244-1.828a43.879,43.879,0,0,1,3.732-4.489,37.074,37.074,0,0,1,2.854-2.683,22.4,22.4,0,0,1,3.6-2.518,14.347,14.347,0,0,1,4.454-1.636,9.069,9.069,0,0,1,4.923.437,9.987,9.987,0,0,1,2.189,1.208l.967.728a11.311,11.311,0,0,0,.944.694,8.1,8.1,0,0,0,4.073,1.574,4.817,4.817,0,0,0,2.009-.349,5.582,5.582,0,0,0,1.647-1.118,10.2,10.2,0,0,0,2.1-3.123,19.42,19.42,0,0,0,1.522-5.541,9.042,9.042,0,0,0,.056-2.2,5.036,5.036,0,0,1,.082.573,10.057,10.057,0,0,1,.026,1.637,18.274,18.274,0,0,1-1.251,5.715,10.721,10.721,0,0,1-2.1,3.37,6.229,6.229,0,0,1-1.8,1.315,5.215,5.215,0,0,1-2.313.447,8.825,8.825,0,0,1-4.5-1.659c-.356-.218-.662-.463-.98-.7s-.651-.482-.954-.7a6.731,6.731,0,0,0-.978-.607,7.1,7.1,0,0,0-1.041-.48,8.253,8.253,0,0,0-4.494-.448,13.6,13.6,0,0,0-4.233,1.5,30.086,30.086,0,0,0-6.47,4.894,53.131,53.131,0,0,0-3.94,4.256c-.894,1.081-1.372,1.728-1.372,1.728" transform="translate(-28.723 -4.138)" fill="#093c5b"/>
                <path id="Trazado_1000735" data-name="Trazado 1000735" d="M181.34,57.378s.632-.5,1.808-1.271a44.034,44.034,0,0,1,5.077-2.884,37.1,37.1,0,0,1,3.617-1.5,22.279,22.279,0,0,1,4.259-1.085,14.34,14.34,0,0,1,4.744.039A9.073,9.073,0,0,1,205.3,52.82a7.741,7.741,0,0,1,.873.9,7.606,7.606,0,0,1,.748,1l.648,1.023a11.415,11.415,0,0,0,.639.983,8.093,8.093,0,0,0,3.256,2.909,4.8,4.8,0,0,0,2,.382,5.588,5.588,0,0,0,1.935-.464,10.211,10.211,0,0,0,3.064-2.183,19.449,19.449,0,0,0,3.38-4.648,9.06,9.06,0,0,0,.827-2.035,5.1,5.1,0,0,1-.125.564,10.063,10.063,0,0,1-.554,1.541,18.26,18.26,0,0,1-3.186,4.907,10.718,10.718,0,0,1-3.152,2.413,6.236,6.236,0,0,1-2.15.595,5.225,5.225,0,0,1-2.321-.4,8.827,8.827,0,0,1-3.623-3.139c-.257-.33-.457-.666-.67-1s-.438-.681-.644-.991a6.7,6.7,0,0,0-.7-.913,7.084,7.084,0,0,0-.805-.817,8.257,8.257,0,0,0-4.048-2,13.6,13.6,0,0,0-4.49-.087,30.076,30.076,0,0,0-7.781,2.3,52.852,52.852,0,0,0-5.187,2.593c-1.219.7-1.894,1.132-1.894,1.132" transform="translate(-26.809 -7.46)" fill="#093c5b"/>
                <path id="Trazado_1000736" data-name="Trazado 1000736" d="M194.657,52.757l.25-1.105c.117-.36.206-.733.349-1.086a9.576,9.576,0,0,1,.464-1.043,7.321,7.321,0,0,1,.584-.987l.327-.474.377-.435a7.379,7.379,0,0,1,.816-.816,7.818,7.818,0,0,1,.911-.71,7.332,7.332,0,0,1,1.006-.573c.676-.341,1.321-.727,2.028-1.02s1.388-.637,2.093-.919l2.118-.837,2.142-.76.016-.005.011,0,.9-.177c.305-.04.615-.052.923-.078.308-.009.62.023.929.034.308.032.613.1.919.153.3.078.595.181.891.271l.85.378.8.473.739.55c.269.249.437.424.66.639a6.931,6.931,0,0,1,.595.736,8.35,8.35,0,0,1,.888,1.629c.243.557.424,1.127.619,1.678s.382,1.1.625,1.614a11.007,11.007,0,0,0,.777,1.534,4.543,4.543,0,0,0,.48.661,4.247,4.247,0,0,0,.57.6,3.984,3.984,0,0,0,.644.522,3.9,3.9,0,0,0,.71.428,3.821,3.821,0,0,0,.763.328,4.017,4.017,0,0,0,.8.225c.528.11,1.166.22,1.721.313.577.093,1.146.19,1.717.229a7.04,7.04,0,0,0,1.686-.035,3.956,3.956,0,0,0,.793-.2,5.757,5.757,0,0,0,.7-.375l0,0,.027-.02.548-.395.484-.49.41-.56c.13-.192.223-.407.337-.61a3.983,3.983,0,0,0,.26-.648,3.134,3.134,0,0,0,.179-.674,2.721,2.721,0,0,0,.093-.691,3.13,3.13,0,0,0-.007-.7,6.173,6.173,0,0,0-.3-1.38,1.721,1.721,0,0,0-.34-.575.619.619,0,0,0-.577-.153,1.549,1.549,0,0,0-.592.335,4.735,4.735,0,0,0-.494.517,7.844,7.844,0,0,0-.8,1.207,7.847,7.847,0,0,1,.72-1.269,4.211,4.211,0,0,1,.476-.565,1.714,1.714,0,0,1,.643-.4.828.828,0,0,1,.774.166,1.918,1.918,0,0,1,.433.643,6.362,6.362,0,0,1,.4,1.436,3.467,3.467,0,0,1,.048.752,3.038,3.038,0,0,1-.061.751,3.23,3.23,0,0,1-.167.735,4.48,4.48,0,0,1-.259.708c-.116.224-.21.46-.345.673l-.429.627-.522.562-.618.475.031-.021a5.831,5.831,0,0,1-.833.482,4.556,4.556,0,0,1-.906.261,7.645,7.645,0,0,1-1.833.1,15.6,15.6,0,0,1-1.788-.191c-.607-.1-1.13-.18-1.757-.3a4.71,4.71,0,0,1-.9-.241,6.883,6.883,0,0,1-1.663-.833,4.7,4.7,0,0,1-.732-.579,5.019,5.019,0,0,1-.647-.672,5.248,5.248,0,0,1-.562-.76,11.657,11.657,0,0,1-.833-1.6c-.265-.546-.461-1.116-.668-1.669s-.393-1.106-.611-1.631a7.565,7.565,0,0,0-.78-1.473,5.639,5.639,0,0,0-.5-.643l-.6-.6-.672-.511-.717-.437-.76-.349c-.265-.082-.527-.177-.8-.25-.273-.046-.544-.112-.82-.146-.278-.011-.555-.043-.833-.039-.279.022-.559.029-.837.061l-.83.154.027-.008-2.141.718-2.123.761c-.706.258-1.387.56-2.084.838-.7.262-1.367.633-2.05.95a7.009,7.009,0,0,0-.977.516,9.257,9.257,0,0,0-.9.643,7.029,7.029,0,0,0-.824.743l-.386.4-.34.441a7.259,7.259,0,0,0-.618.931,9.411,9.411,0,0,0-.509,1c-.156.341-.272.7-.412,1.049Z" transform="translate(-28.778 -6.169)" fill="#093c5b"/>
                <path id="Trazado_1000737" data-name="Trazado 1000737" d="M172.67,52.166s-.487-.649-1.4-1.733a53.188,53.188,0,0,0-4.011-4.263,30.441,30.441,0,0,0-6.572-4.884,13.958,13.958,0,0,0-4.282-1.5,8.564,8.564,0,0,0-4.546.434,9.113,9.113,0,0,0-2.051,1.075c-.308.22-.644.452-.966.7s-.63.486-.992.7a9.13,9.13,0,0,1-4.533,1.68,5.2,5.2,0,0,1-2.338-.41,6.346,6.346,0,0,1-1.85-1.283,10.565,10.565,0,0,1-2.166-3.372A16.166,16.166,0,0,1,136,36.106a18.5,18.5,0,0,1-.333-2.551,9.9,9.9,0,0,1,.024-1.652,4.96,4.96,0,0,1,.083-.578,8.945,8.945,0,0,0,.058,2.216,19.08,19.08,0,0,0,1.572,5.581,10.039,10.039,0,0,0,2.158,3.119,4.956,4.956,0,0,0,3.726,1.405,8.408,8.408,0,0,0,4.118-1.6c.322-.2.638-.458.959-.7s.637-.474.983-.728a9.8,9.8,0,0,1,2.222-1.195,9.384,9.384,0,0,1,4.969-.42,14.727,14.727,0,0,1,4.5,1.628,22.682,22.682,0,0,1,3.656,2.511,37.066,37.066,0,0,1,2.9,2.683,44.211,44.211,0,0,1,3.806,4.5c.844,1.144,1.27,1.836,1.27,1.836" transform="translate(-20.053 -4.631)" fill="#093c5b"/>
                <path id="Trazado_1000738" data-name="Trazado 1000738" d="M172.033,56.091,171.7,55c-.145-.353-.261-.714-.424-1.056a9.292,9.292,0,0,0-.522-1.006A7.02,7.02,0,0,0,170.12,52a6.232,6.232,0,0,0-.742-.843,7.4,7.4,0,0,0-.841-.741,9.936,9.936,0,0,0-.919-.639,8.152,8.152,0,0,0-.994-.51c-.692-.318-1.369-.684-2.078-.945-.7-.277-1.394-.579-2.11-.833l-2.148-.758-2.165-.715.026.008-.84-.153c-.281-.034-.564-.039-.846-.062-.282-.006-.562.028-.844.038-.279.029-.554.1-.831.143-.272.068-.537.167-.805.247-.261.107-.514.232-.771.346l-.729.434-.684.51c-.165.147-.411.4-.613.6a5,5,0,0,0-.516.644,7.389,7.389,0,0,0-.8,1.479c-.225.527-.422,1.081-.627,1.644s-.414,1.133-.686,1.684c-.129.279-.258.557-.4.816a5.324,5.324,0,0,1-.462.8,5.1,5.1,0,0,1-.577.761,4.776,4.776,0,0,1-.663.669,4.561,4.561,0,0,1-.747.574l-.395.26-.424.207-.425.2-.447.148a4.527,4.527,0,0,1-.908.235l-.89.157-.885.141a15.952,15.952,0,0,1-1.807.187,7.928,7.928,0,0,1-1.851-.1,4.805,4.805,0,0,1-.915-.261,5.937,5.937,0,0,1-.844-.481l.031.021-.625-.471-.528-.562c-.152-.2-.292-.418-.437-.626s-.234-.45-.353-.674a4.42,4.42,0,0,1-.265-.711,3.213,3.213,0,0,1-.17-.738,3.036,3.036,0,0,1-.062-.755,3.4,3.4,0,0,1,.049-.756,6.278,6.278,0,0,1,.407-1.442,1.949,1.949,0,0,1,.444-.642.85.85,0,0,1,.781-.153,1.735,1.735,0,0,1,.648.4,4.245,4.245,0,0,1,.483.562,7.9,7.9,0,0,1,.733,1.271,7.818,7.818,0,0,0-.813-1.208,5.029,5.029,0,0,0-.5-.516,1.592,1.592,0,0,0-.6-.334.641.641,0,0,0-.585.143,1.73,1.73,0,0,0-.349.573,6.066,6.066,0,0,0-.313,1.384,3.1,3.1,0,0,0-.009.7,2.7,2.7,0,0,0,.095.694,3.116,3.116,0,0,0,.182.677,3.981,3.981,0,0,0,.265.648c.117.2.21.419.344.61l.417.559.49.488.555.393.028.019,0,0a5.9,5.9,0,0,0,.716.375,4.106,4.106,0,0,0,.8.2,7.293,7.293,0,0,0,1.705.037c.577-.038,1.153-.135,1.736-.228l.875-.149.866-.161a3.934,3.934,0,0,0,.814-.22l.4-.135.377-.187.376-.187.348-.236a3.827,3.827,0,0,0,.659-.518,4.019,4.019,0,0,0,.584-.6,4.274,4.274,0,0,0,.494-.662,4.58,4.58,0,0,0,.424-.748c.139-.267.257-.529.374-.793.25-.519.439-1.071.643-1.626s.385-1.13.634-1.693a8.214,8.214,0,0,1,.913-1.64,6.274,6.274,0,0,1,.608-.735c.229-.215.4-.394.676-.638l.752-.549.809-.469c.287-.125.57-.261.861-.375.3-.089.6-.194.9-.267.309-.049.617-.121.928-.15.313-.01.626-.043.938-.032s.624.037.931.078l.914.177.011,0,.015.006,2.168.757,2.143.833c.713.28,1.413.613,2.118.916s1.373.674,2.056,1.016a8.079,8.079,0,0,1,1.949,1.272,7.758,7.758,0,0,1,.833.815,6.519,6.519,0,0,1,.722.911,7.137,7.137,0,0,1,.6.99,9.305,9.305,0,0,1,.477,1.05c.149.354.239.731.36,1.093Z" transform="translate(-19.738 -6.661)" fill="#093c5b"/>
                <path id="Trazado_1000739" data-name="Trazado 1000739" d="M134.923,105.982s-9.839-30.512,15.27-48.7c27.486-19.907,51.3,2.994,57.909,9.533,7.666,7.588,10.941,27.478,6.137,48.788L211.26,87.983s-9.3-4.062-10.363-16.679c0,0-34.417-14.9-54.706,2.8,0,0-1.191,15.811-9.464,21.139,0,0,1.4,6.251-1.8,10.736" transform="translate(-19.666 -7.292)" fill="#093f67"/>
                <path id="Trazado_1000740" data-name="Trazado 1000740" d="M202.547,69.141S193.831,84.613,159.57,84.3c0,0,14.426-3.79,21.94-8.211,0,0-21.339,6.632-29.152,8.842l9.317-6.947s-30.655,1.263-24.043,45.155a58.7,58.7,0,0,1-6.612-26.209c-.6-29.367,25.545-53.05,46.883-42s24.645,14.21,24.645,14.21" transform="translate(-19.368 -7.712)" fill="#093f67"/>
                <path id="Trazado_1000741" data-name="Trazado 1000741" d="M206.129,73.939s-.046.157-.163.441a9.069,9.069,0,0,1-.581,1.2,17.083,17.083,0,0,1-1.131,1.738,17.644,17.644,0,0,1-1.772,2.027,26.344,26.344,0,0,1-2.388,2.118c-.442.355-.935.666-1.419,1.012a12.808,12.808,0,0,1-1.538.972l-1.645.918c-.556.308-1.157.541-1.742.82-.595.258-1.178.559-1.792.788l-1.852.671a37.16,37.16,0,0,1-3.763,1.105c-.627.156-1.241.348-1.862.47l-1.84.349a33.787,33.787,0,0,1-3.5.557l-3.154.34c-.972.135-1.876.118-2.672.155l-2.062.067-1.795.043,1.785-.2,2.048-.212c.787-.1,1.684-.142,2.646-.31l3.115-.472c1.11-.134,2.251-.438,3.446-.664l1.814-.372c.613-.13,1.215-.328,1.831-.491a37.036,37.036,0,0,0,3.69-1.139l1.832-.633c.607-.216,1.181-.5,1.768-.749.578-.265,1.173-.486,1.721-.78l1.622-.875a16.18,16.18,0,0,0,1.526-.917c.487-.319.985-.6,1.431-.931a25.966,25.966,0,0,0,2.424-1.97,11.887,11.887,0,0,0,1-.968c.3-.323.605-.615.857-.918a16.76,16.76,0,0,0,1.233-1.63,11.743,11.743,0,0,0,.677-1.133c.141-.27.2-.423.2-.423" transform="translate(-25.053 -10.931)" fill="#093f67"/>
                <path id="Trazado_1000742" data-name="Trazado 1000742" d="M146.126,85.8s-.315.566-.827,1.575-1.2,2.47-1.972,4.242c-.379.89-.784,1.855-1.168,2.893s-.766,2.14-1.155,3.28c-.369,1.148-.741,2.337-1.046,3.564-.326,1.222-.586,2.479-.827,3.738s-.436,2.528-.558,3.783c-.064.628-.126,1.25-.149,1.868-.043.617-.062,1.227-.058,1.827-.02.6.012,1.19.027,1.767s.049,1.142.095,1.691.1,1.082.175,1.6.135,1.011.239,1.481c.166.949.391,1.8.578,2.565.212.755.433,1.4.6,1.942l.634,1.661-.783-1.6c-.209-.527-.478-1.164-.746-1.91a23.806,23.806,0,0,1-.739-2.561c-.125-.474-.221-.974-.308-1.494s-.192-1.057-.248-1.615a25.984,25.984,0,0,1-.239-3.52c-.013-.613,0-1.235.032-1.864.015-.631.069-1.265.124-1.905.107-1.282.3-2.574.516-3.859.262-1.278.546-2.551.893-3.785.329-1.24.722-2.439,1.112-3.594a58.037,58.037,0,0,1,2.579-6.137c.845-1.755,1.674-3.153,2.251-4.128s.965-1.5.965-1.5" transform="translate(-20.35 -12.684)" fill="#093f67"/>
                <path id="Trazado_1000743" data-name="Trazado 1000743" d="M224.977,92.838s.1.49.248,1.354.353,2.1.528,3.589.39,3.231.519,5.1.235,3.875.275,5.881c.006,2.006-.051,4.014-.188,5.894a36.055,36.055,0,0,1-.738,5.1,17.224,17.224,0,0,1-.558,1.986,12.409,12.409,0,0,1-.6,1.473,6.1,6.1,0,0,1-.5.891l-.193.3.153-.326a7.782,7.782,0,0,0,.389-.932,12.185,12.185,0,0,0,.453-1.5c.143-.587.27-1.257.4-1.988a46.723,46.723,0,0,0,.481-5.058c.1-1.859.118-3.849.079-5.839,0-1.99-.07-3.981-.164-5.848s-.163-3.611-.268-5.1c-.191-2.992-.319-4.986-.319-4.986" transform="translate(-33.083 -13.725)" fill="#093f67"/>
                <path id="Trazado_1000744" data-name="Trazado 1000744" d="M114.729,74.612c-.319-.068-.638-.134-.958-.181a4.093,4.093,0,0,0-.955-.039,1.84,1.84,0,0,0-.873.283,1.7,1.7,0,0,0-.353.288,2.325,2.325,0,0,0-.281.37,2.184,2.184,0,0,0-.2.409,2.572,2.572,0,0,0-.137.44,5.981,5.981,0,0,0-.155.93,15.31,15.31,0,0,0-.043,1.922v-.02c.092.493.164.988.269,1.475.156.478.291.96.46,1.431l.614,1.373.735,1.312.867,1.227c.321.383.66.751.987,1.127.17.181.367.334.55.5l.556.5c.193.154.406.279.608.419l.612.412.018.012.014.008.525.308a5.007,5.007,0,0,0,.555.242,3.353,3.353,0,0,0,.581.179,3.638,3.638,0,0,0,.606.112,8.559,8.559,0,0,0,1.265.077l1.311-.014h.694c.222.02.432.025.664.057a4.783,4.783,0,0,1,.723.185,3.555,3.555,0,0,1,.656.3,3.938,3.938,0,0,1,.591.395,6.573,6.573,0,0,1,.527.451c.33.314.639.633.935.96l.02.023,0,.006.421.64.356.676a10.541,10.541,0,0,1,.523,1.421,13.156,13.156,0,0,1,.307,1.469q.1.741.142,1.483c.082,1.98-.117,3.929-.217,5.884-.049-.978-.049-1.96-.062-2.937s-.056-1.953-.148-2.916c-.049-.481-.114-.96-.2-1.432a12.52,12.52,0,0,0-.352-1.39,10.085,10.085,0,0,0-.545-1.309l-.355-.608-.41-.569.024.028a8.872,8.872,0,0,0-1.912-1.64,2.9,2.9,0,0,0-.542-.241,4.471,4.471,0,0,0-.552-.138c-.2-.027-.435-.031-.65-.047l-.625.012-1.326.032a9.5,9.5,0,0,1-1.366-.065,4.283,4.283,0,0,1-.69-.118,4.058,4.058,0,0,1-.68-.2,4.772,4.772,0,0,1-.649-.291l-.608-.368.031.02-.66-.454c-.216-.156-.446-.3-.65-.464l-.586-.537c-.192-.182-.4-.35-.577-.545-.342-.4-.693-.8-1.024-1.2l-.891-1.3-.751-1.385c-.212-.48-.393-.975-.589-1.461-.157-.5-.279-1.015-.418-1.519-.09-.518-.146-1.045-.218-1.564v-.02a15.634,15.634,0,0,1,.13-1.974,5.055,5.055,0,0,1,.223-.981,2.916,2.916,0,0,1,.187-.479,2.684,2.684,0,0,1,.26-.449,2.575,2.575,0,0,1,.336-.381,1.928,1.928,0,0,1,.422-.3,2.039,2.039,0,0,1,.981-.247,3.747,3.747,0,0,1,.983.118c.319.078.63.172.941.27" transform="translate(-16.302 -10.973)" fill="#093f67"/>
                <path id="Trazado_1000745" data-name="Trazado 1000745" d="M132.177,105.554l-.343,0-.412,0c-.161-.017-.347-.055-.558-.092a5.38,5.38,0,0,1-1.435-.532A8.139,8.139,0,0,1,127.8,103.8c-.556-.47-1.1-1.036-1.676-1.611s-1.176-1.225-1.764-1.889-1.22-1.329-1.877-1.975a14.482,14.482,0,0,0-2.157-1.721,7.583,7.583,0,0,0-2.426-1.153,7.314,7.314,0,0,0-2.6-.089,12.064,12.064,0,0,0-2.417.595c-.364.137-.75.311-1.058.437-.328.2-.669.37-.953.563a8.519,8.519,0,0,0-1.488,1.17,6.647,6.647,0,0,0-.863,1.193c-.2.359-.356.649-.451.851l-.152.308.111-.325a8.012,8.012,0,0,1,.349-.908,6.869,6.869,0,0,1,.774-1.319,7.124,7.124,0,0,1,1.466-1.357c.294-.225.608-.408.929-.626.39-.2.723-.367,1.115-.544a10.026,10.026,0,0,1,2.539-.744,8.05,8.05,0,0,1,2.871.048,6.983,6.983,0,0,1,1.419.494c.221.111.41.193.657.328l.626.392a15.29,15.29,0,0,1,2.243,1.86c.666.681,1.29,1.373,1.875,2.051,1.162,1.346,2.212,2.648,3.219,3.63a10.011,10.011,0,0,0,1.472,1.212,5.158,5.158,0,0,0,1.318.639l.527.15.409.049.34.041" transform="translate(-15.955 -13.978)" fill="#093f67"/>
                <path id="Trazado_1000746" data-name="Trazado 1000746" d="M228.007,103.681c.35-1.124.734-2.239,1.176-3.334a21.079,21.079,0,0,1,1.564-3.192,13.248,13.248,0,0,1,1.025-1.474,9.087,9.087,0,0,1,1.259-1.31,6.467,6.467,0,0,1,.737-.552,6.808,6.808,0,0,1,.816-.45,8.628,8.628,0,0,1,.885-.31c.305-.066.619-.1.929-.154l-.066.01.918-.225.943-.163a7.577,7.577,0,0,1,1.94-.024c.674.044,1.248.227,1.838.3a4.037,4.037,0,0,0,1.673-.069,6.08,6.08,0,0,0,1.526-.8,6.777,6.777,0,0,0,.638-.541,4.372,4.372,0,0,0,.516-.669,3.958,3.958,0,0,0,.585-1.577,5.5,5.5,0,0,0-.042-1.724,7.178,7.178,0,0,0-.558-1.668,8.2,8.2,0,0,0-.919-1.519,6.46,6.46,0,0,0-.58-.677l-.153-.163a1.688,1.688,0,0,0-.152-.117L244.132,83a8.031,8.031,0,0,0-.753-.528l-.789-.41a4.811,4.811,0,0,0-.831-.348c-.287-.1-.567-.221-.861-.3a11.05,11.05,0,0,0-1.782-.387,1.584,1.584,0,0,0-1.479.723,5.549,5.549,0,0,0-.614,1.72,5.225,5.225,0,0,1,.479-1.8,1.806,1.806,0,0,1,1.639-.922,11.532,11.532,0,0,1,1.863.274c.307.067.6.182.9.272a5.252,5.252,0,0,1,.891.331l.873.414a8.278,8.278,0,0,1,.785.5l.384.26a1.846,1.846,0,0,1,.22.16l.172.168a7.119,7.119,0,0,1,.656.7,7.628,7.628,0,0,1,1.051,1.613,7.887,7.887,0,0,1,.64,1.833,6.267,6.267,0,0,1,.072,1.968,4.734,4.734,0,0,1-.668,1.881,5.24,5.24,0,0,1-.605.8,7.4,7.4,0,0,1-.767.665,6.242,6.242,0,0,1-1.745.916,4.823,4.823,0,0,1-2.007.066c-.637-.087-1.253-.284-1.818-.319a6.806,6.806,0,0,0-1.756,0l-.886.141-.886.2h0l-.065.011c-.27.043-.544.071-.811.124-.26.089-.529.148-.782.258a6.1,6.1,0,0,0-.743.372,5.948,5.948,0,0,0-.694.476,8.558,8.558,0,0,0-1.23,1.181,12.873,12.873,0,0,0-1.045,1.379,27.035,27.035,0,0,0-1.713,3.049c-.509,1.057-.963,2.141-1.422,3.225" transform="translate(-33.708 -11.938)" fill="#093f67"/>
                <path id="Trazado_1000747" data-name="Trazado 1000747" d="M228.36,104.154l.556-.832.3-.433c.12-.15.267-.3.416-.469a7,7,0,0,1,1.081-1.061l.678-.544c.239-.182.518-.322.79-.493a9.071,9.071,0,0,1,1.826-.862,7.192,7.192,0,0,1,1.033-.283,5.112,5.112,0,0,1,1.081-.194l1.116-.084c.374,0,.75.045,1.125.067a5.707,5.707,0,0,1,2.209.579,6.94,6.94,0,0,1,1.819,1.232,8.448,8.448,0,0,1,1.334,1.523,12.139,12.139,0,0,1,1.854,4.03c.09.307.127.556.162.723s.05.257.05.257-.12-.345-.364-.93a15.932,15.932,0,0,0-1.181-2.318,11.708,11.708,0,0,0-1-1.4,10.1,10.1,0,0,0-1.333-1.342,6.91,6.91,0,0,0-1.675-1.058,4.974,4.974,0,0,0-1.957-.483c-.348-.024-.7-.069-1.042-.077l-1.035.065a5.67,5.67,0,0,0-1.007.153,6.447,6.447,0,0,0-.971.224,11.036,11.036,0,0,0-1.762.7c-.268.141-.545.252-.785.408l-.686.468a9.967,9.967,0,0,0-1.138.9c-.164.143-.326.271-.464.4l-.352.391-.681.734" transform="translate(-33.761 -14.621)" fill="#093f67"/>
                <path id="Trazado_1000748" data-name="Trazado 1000748" d="M179.4,138.757s13.458-2.734,13.669-1.893-5.678,5.678-5.678,5.678-2.943,1.682-7.991-3.785" transform="translate(-26.523 -20.21)" fill="#fa9757"/>
                <path id="Trazado_1000749" data-name="Trazado 1000749" d="M188.041,141.877a11.318,11.318,0,0,1,1.213-1.772,17.869,17.869,0,0,1,1.4-1.517,22.011,22.011,0,0,1,3.175-2.531l-.336,1.585a19.679,19.679,0,0,1-1.063-2.59,13.407,13.407,0,0,1-.376-1.383,9.324,9.324,0,0,1-.229-1.467,9.372,9.372,0,0,1,1.138.953,13.459,13.459,0,0,1,.991,1.035,19.863,19.863,0,0,1,1.67,2.246l.546.851-.882.735a22.022,22.022,0,0,1-3.344,2.305,17.9,17.9,0,0,1-1.858.9,11.347,11.347,0,0,1-2.047.647" transform="translate(-27.8 -19.545)" fill="#06263a"/>
                <path id="Trazado_1000750" data-name="Trazado 1000750" d="M165.684,140.01c0,1.859-4.331,3.364-9.674,3.364s-9.673-1.506-9.673-3.364,4.331-3.364,9.673-3.364,9.674,1.506,9.674,3.364" transform="translate(-21.634 -20.202)" fill="#fa9757"/>
                <path id="Trazado_1000751" data-name="Trazado 1000751" d="M219.974,140.01c0,1.859-4.331,3.364-9.674,3.364s-9.673-1.506-9.673-3.364,4.331-3.364,9.673-3.364,9.674,1.506,9.674,3.364" transform="translate(-29.661 -20.202)" fill="#fa9757"/>
                <path id="Trazado_1000752" data-name="Trazado 1000752" d="M199.774,152.651l.942.562a14.988,14.988,0,0,0,2.038,1.026,5.722,5.722,0,0,0,.567.2,5.545,5.545,0,0,0,.561.145,4.262,4.262,0,0,0,.537.091,4.2,4.2,0,0,0,.5.043c.155,0,.3.009.433.014l.339-.024c.193-.009.311-.009.311-.009s-.09.065-.261.168a2.516,2.516,0,0,1-.764.33,2.283,2.283,0,0,1-.554.1,2.559,2.559,0,0,1-.633.015,3.335,3.335,0,0,1-.671-.094,6.725,6.725,0,0,1-.667-.2,5.6,5.6,0,0,1-1.179-.66,5.284,5.284,0,0,1-.86-.78,3.878,3.878,0,0,1-.634-.932" transform="translate(-29.534 -22.568)" fill="#06263a"/>
                <path id="Trazado_1000753" data-name="Trazado 1000753" d="M194.2,149.114a4.949,4.949,0,0,1,.67-.39,10.828,10.828,0,0,1,1.882-.734c.4-.111.844-.214,1.318-.3a11.832,11.832,0,0,1,1.509-.153,9.588,9.588,0,0,1,1.64.04,11.621,11.621,0,0,1,1.7.28,13.362,13.362,0,0,1,1.652.571c.262.13.52.267.77.406a3.634,3.634,0,0,1,.714.457,6.657,6.657,0,0,1,1.2,1.071,5.784,5.784,0,0,1,.848,1.148c.21.389.377.752.517,1.067a8.9,8.9,0,0,1,.214.884,6.863,6.863,0,0,1,.121.76s-.228-.193-.564-.526c-.169-.166-.37-.363-.579-.589-.256-.2-.538-.406-.818-.643a7.467,7.467,0,0,0-.971-.654,8.514,8.514,0,0,0-1.119-.6c-.374-.217-.839-.316-1.248-.512-.447-.128-.893-.283-1.356-.4s-.93-.236-1.409-.3c-.238-.037-.472-.087-.706-.135-.238-.029-.472-.059-.7-.1-.926-.142-1.819-.233-2.6-.329l-1.923-.225-.758-.1" transform="translate(-28.71 -21.81)" fill="#06263a"/>
                <path id="Trazado_1000754" data-name="Trazado 1000754" d="M206.3,143.315l32.385-23.552s-.841-4.837,3.575-6.1,8.2,4.206,5.467,7.991-6.939.842-6.939.842l-31.544,22.711Z" transform="translate(-30.5 -16.777)" fill="#fff"/>
                <path id="Trazado_1000755" data-name="Trazado 1000755" d="M247.637,118.618a2.208,2.208,0,1,0,2.208-2.208,2.208,2.208,0,0,0-2.208,2.208" transform="translate(-36.61 -17.21)" fill="#ff7c84"/>
                <line id="Línea_27047" data-name="Línea 27047" x1="29.861" y2="21.239" transform="translate(182.742 102.144)" fill="none" stroke="#ff7c84" stroke-linecap="round" stroke-miterlimit="10" stroke-width="0.987"/>
                <path id="Trazado_1000756" data-name="Trazado 1000756" d="M171.074,96.5a8.719,8.719,0,0,1-.666.971,20.077,20.077,0,0,1-2.055,2.286,25.2,25.2,0,0,1-3.378,2.7c-.653.452-1.367.858-2.089,1.276-.744.381-1.5.774-2.282,1.106a24.378,24.378,0,0,1-2.389.879,18.048,18.048,0,0,1-2.395.615,15.924,15.924,0,0,1-2.293.331,14.718,14.718,0,0,1-2.075.067c-.646-.027-1.233-.081-1.748-.13-.518-.072-.966-.189-1.331-.268-.729-.17-1.133-.306-1.133-.306s.415-.158,1.117-.364c.351-.1.772-.225,1.249-.347.475-.164,1-.349,1.578-.518.576-.147,1.182-.407,1.825-.616s1.311-.465,2-.722c.695-.233,1.391-.542,2.109-.818s1.434-.6,2.159-.9,1.432-.645,2.154-.931c.7-.341,1.409-.632,2.083-.95l3.744-1.715c1.115-.5,2.062-.918,2.737-1.207s1.078-.448,1.078-.448" transform="translate(-21.768 -14.267)" fill="#06263a"/>
                <path id="Trazado_1000757" data-name="Trazado 1000757" d="M191.661,96.5s.4.16,1.078.448,1.622.707,2.736,1.207l3.744,1.715c.674.318,1.385.609,2.083.95.722.286,1.424.644,2.154.931s1.437.631,2.159.9,1.414.585,2.108.818c.69.257,1.353.527,2,.722s1.25.47,1.825.616c.574.17,1.1.354,1.579.518.476.122.9.244,1.249.347.7.206,1.116.364,1.116.364s-.4.136-1.133.306c-.364.078-.812.2-1.33.268-.516.049-1.1.1-1.749.13a14.722,14.722,0,0,1-2.075-.067,15.929,15.929,0,0,1-2.292-.331,18.014,18.014,0,0,1-2.395-.615,24.392,24.392,0,0,1-2.389-.879c-.784-.332-1.537-.725-2.281-1.106-.723-.418-1.438-.824-2.09-1.276a25.145,25.145,0,0,1-3.378-2.7,19.994,19.994,0,0,1-2.055-2.286,8.571,8.571,0,0,1-.666-.971" transform="translate(-28.335 -14.267)" fill="#06263a"/>
                <path id="Trazado_1000758" data-name="Trazado 1000758" d="M151.519,118.187s.836,13.458,8.131,13.458c10.164,0,10.655-15.14,10.655-15.14s-2.8-7.711-9.253-7.992c0,0-7.36,1.052-9.533,9.674" transform="translate(-22.4 -16.042)" fill="#ffdd8b"/>
                <path id="Trazado_1000759" data-name="Trazado 1000759" d="M151.824,117.977s.108.469.357,1.242c.123.388.3.847.5,1.359a16.147,16.147,0,0,0,.811,1.631c.167.281.368.553.557.839.233.254.42.553.675.8a5.747,5.747,0,0,0,.8.706c.148.1.295.209.438.32s.323.172.482.262a4.866,4.866,0,0,0,1.029.433,6.186,6.186,0,0,0,1.126.269,6.974,6.974,0,0,0,1.2.107l.305.02.077.005.038,0c-.043,0,.108,0-.093.005h.01l.022,0,.174-.015.7-.061a5.637,5.637,0,0,0,.671-.066l.521-.139a5.117,5.117,0,0,0,.527-.136l.539-.222a7.693,7.693,0,0,0,1.968-1.209,11.807,11.807,0,0,0,1.588-1.632c.447-.594.856-1.186,1.2-1.762a27.994,27.994,0,0,0,1.5-2.959c.325-.75.5-1.2.5-1.2s.013.119.017.343a9.659,9.659,0,0,1-.024.971,13.957,13.957,0,0,1-.665,3.436c-.128.344-.245.712-.4,1.082-.17.363-.342.743-.553,1.12a10.655,10.655,0,0,1-1.63,2.23,7.692,7.692,0,0,1-1.133.989,6.581,6.581,0,0,1-1.336.81l-.726.335a5.6,5.6,0,0,1-.808.24l-.833.2a6.059,6.059,0,0,1-.717.08l-.7.05-.174.013-.147.006-.049,0-.1-.007-.391-.029a7.88,7.88,0,0,1-1.548-.205,6.927,6.927,0,0,1-1.494-.467l-.708-.32a5.511,5.511,0,0,1-.648-.411c-.207-.147-.423-.278-.613-.436s-.359-.34-.53-.51a7.644,7.644,0,0,1-.889-1.078,11.181,11.181,0,0,1-.655-1.117c-.152-.386-.309-.75-.426-1.107a10.427,10.427,0,0,1-.488-3.5,7.085,7.085,0,0,1,.137-1.311" transform="translate(-22.425 -17.234)" fill="#06263a"/>
                <path id="Trazado_1000760" data-name="Trazado 1000760" d="M212.75,118.187s-.843,13.771-8.131,13.458c-9.813-.42-10.655-15.14-10.655-15.14s2.8-7.711,9.253-7.992c0,0,7.36,1.052,9.533,9.674" transform="translate(-28.675 -16.042)" fill="#ffdd8b"/>
                <path id="Trazado_1000761" data-name="Trazado 1000761" d="M212.844,117.977a7.083,7.083,0,0,1,.137,1.311,10.444,10.444,0,0,1-.487,3.5c-.118.357-.275.721-.427,1.107a11.178,11.178,0,0,1-.655,1.117,7.643,7.643,0,0,1-.889,1.078c-.171.17-.347.343-.53.51s-.406.29-.613.436a5.511,5.511,0,0,1-.648.411l-.708.32a6.927,6.927,0,0,1-1.494.467,7.88,7.88,0,0,1-1.548.205l-.391.029-.1.007-.049,0-.147-.006-.174-.013-.7-.05a6.059,6.059,0,0,1-.717-.08l-.833-.2a5.6,5.6,0,0,1-.808-.24l-.726-.335a6.557,6.557,0,0,1-1.336-.81,7.691,7.691,0,0,1-1.133-.989,10.656,10.656,0,0,1-1.63-2.23c-.211-.377-.383-.757-.553-1.12-.154-.37-.271-.738-.4-1.082a14,14,0,0,1-.665-3.436,9.408,9.408,0,0,1-.024-.971c0-.224.017-.343.017-.343s.17.449.5,1.2a27.672,27.672,0,0,0,1.5,2.959c.349.576.758,1.168,1.2,1.762a11.806,11.806,0,0,0,1.588,1.632,7.694,7.694,0,0,0,1.968,1.209l.539.222a5.118,5.118,0,0,0,.527.136l.521.139a5.638,5.638,0,0,0,.671.066l.7.061.174.015.022,0h.01c-.2-.009-.05,0-.093-.005l.038,0,.077-.005.305-.02a6.974,6.974,0,0,0,1.2-.107,6.186,6.186,0,0,0,1.126-.269,4.866,4.866,0,0,0,1.029-.433c.159-.089.331-.161.482-.262s.29-.217.438-.32a5.747,5.747,0,0,0,.8-.706c.255-.247.441-.546.675-.8.189-.286.39-.558.557-.839a16.147,16.147,0,0,0,.811-1.631c.205-.512.379-.971.5-1.359.249-.774.357-1.242.357-1.242" transform="translate(-28.769 -17.234)" fill="#06263a"/>
              </g>
            </g>
          </g>
        </g>
      </g>
    </g>
  </g>
</svg>
