<svg xmlns="http://www.w3.org/2000/svg" xmlns:xlink="http://www.w3.org/1999/xlink" width="295" height="223.461" viewBox="0 0 295 223.461">
  <defs>
    <clipPath id="clip-path">
      <rect id="Rect치ngulo_456453" data-name="Rect치ngulo 456453" width="267.711" height="223.46" transform="translate(0 0)" fill="none"/>
    </clipPath>
  </defs>
  <g id="Grupo_1185714" data-name="Grupo 1185714" transform="translate(-285.668 -2239.143)">
    <rect id="Rect치ngulo_401121" data-name="Rect치ngulo 401121" width="295" height="134" rx="10" transform="translate(285.668 2328.604)" fill="#fa9757"/>
    <g id="Grupo_1186206" data-name="Grupo 1186206" transform="translate(299.313 2239.143)">
      <g id="Grupo_1186206-2" data-name="Grupo 1186206" transform="translate(0 0.001)" clip-path="url(#clip-path)">
        <path id="Trazado_1000808" data-name="Trazado 1000808" d="M634.361,13.318c0,7.352,7.251,13.317,16.2,13.317q.708,0,1.4-.051a4.3,4.3,0,0,1,2.657.725,18.166,18.166,0,0,0,7.667,2.488c-.034-.022-.062-.045-.1-.067a4.391,4.391,0,0,1-.163-7.01,12.2,12.2,0,0,0,4.735-9.4C666.759,5.96,659.507,0,650.56,0s-16.2,5.959-16.2,13.317" transform="translate(-503.855 -0.001)" fill="#f1cdbe"/>
        <path id="Trazado_1000809" data-name="Trazado 1000809" d="M669.583,25.564v6.4h5.755v5.755h6.4V31.962h5.755v-6.4h-5.755V19.816h-6.4v5.748Z" transform="translate(-531.831 -15.739)" fill="#d27358"/>
        <path id="Trazado_1000810" data-name="Trazado 1000810" d="M486.064,35.852c0,8.068-7.088,14.615-15.834,14.615q-.692,0-1.367-.056a3.869,3.869,0,0,0-2.6.8,16.361,16.361,0,0,1-7.494,2.731c.033-.025.061-.049.093-.074a5.186,5.186,0,0,0,.159-7.693A14,14,0,0,1,454.4,35.852c0-8.075,7.088-14.615,15.834-14.615s15.834,6.54,15.834,14.615" transform="translate(-360.913 -16.868)" fill="#f1cdbe"/>
        <path id="Trazado_1000811" data-name="Trazado 1000811" d="M938.683,885.006a56.036,56.036,0,0,1,19.565-1.952c.593.046,1.191.1,1.786.166l-1.437-5.251,5.554,5.783c1.831.265,3.659.564,5.488.837l-1.009-3.74,4.509,4.213a44.578,44.578,0,0,0,9.639.267l-3.405-5.68,7.565,4.96a.67.67,0,0,0,.1-.021,33.668,33.668,0,0,0,9.065-4.063q-3.516-1.421-7.03-2.845l10.9.3c4.331-3,8.56-6.279,13.308-8.494a40.184,40.184,0,0,0-14.921-7.562,58.242,58.242,0,0,1-8.57,4.071l4.984-4.893a48,48,0,0,0-9-.815q-3.337,2.816-6.667,5.635,1.589-2.754,3.18-5.505a50.332,50.332,0,0,0-5.93.783l-7.045,7.544,3.542-6.733a55.688,55.688,0,0,0-8.4,3l-4.01,6.516,1.333-5.242a75.663,75.663,0,0,0-23.1,18.719" transform="translate(-745.57 -683.301)" fill="#30df8e"/>
        <path id="Trazado_1000812" data-name="Trazado 1000812" d="M931.562,917.183a.291.291,0,0,1-.153-.539A115.017,115.017,0,0,1,996.6,899.862a.29.29,0,0,1,.277.3.283.283,0,0,1-.3.277,114.483,114.483,0,0,0-64.853,16.7.287.287,0,0,1-.152.043" transform="translate(-739.683 -714.634)" fill="#473424"/>
        <path id="Trazado_1000813" data-name="Trazado 1000813" d="M1129.276,919.2a.292.292,0,0,1-.187-.068l-10.842-9.076a.291.291,0,0,1,.374-.447l10.842,9.076a.291.291,0,0,1-.187.515" transform="translate(-888.109 -722.422)" fill="#473424"/>
        <path id="Trazado_1000814" data-name="Trazado 1000814" d="M1092.469,891.664a.291.291,0,0,1-.218-.1l-6.94-7.852a.291.291,0,0,1,0-.387l7.792-8.7a.291.291,0,1,1,.433.389l-7.62,8.51,6.769,7.658a.291.291,0,0,1-.218.484" transform="translate(-861.974 -694.612)" fill="#473424"/>
        <path id="Trazado_1000815" data-name="Trazado 1000815" d="M1046.493,933.227a.288.288,0,0,1-.184-.066l-3.811-3.117a.291.291,0,1,1,.368-.45l3.811,3.117a.291.291,0,0,1-.184.516" transform="translate(-827.942 -738.298)" fill="#473424"/>
        <path id="Trazado_1000816" data-name="Trazado 1000816" d="M951.962,667.162c3.209,1.435,4.056,5.864,2.757,9.13a14.228,14.228,0,0,1-2.816,4.3l-1.839,7.96-.963-5.218-1.073.969q-1.542,1.4-3.043,2.847L945.059,699l-2.348-9.6q-2.673,2.7-5.186,5.566l-.637,11.886-2.592-8.084q-3.092,3.794-5.906,7.808l-.965,9.363-1.313-6.006q-1.157,1.767-2.262,3.57c-4.078,6.673-7.921,14.071-14.616,18.035,6.874-1.14,13.772-2.329,20.346-4.635,1.317-.461,2.624-.974,3.912-1.534l-3.736-2.016,8.047-.13a36.947,36.947,0,0,0,9.023-6.983l-9.82,1.6,12.547-4.961a57.143,57.143,0,0,0,4.43-7.524l-7.88,2.295,9.745-6.094c.485-1.01.967-2.017,1.459-3.018.476-.976.968-1.952,1.45-2.928l-4.293.38,5.6-3.114a42.468,42.468,0,0,0,2.367-6.214c.017-.067.039-.134.053-.2l-4.534,1.639,5.212-5.005a16.979,16.979,0,0,0-1.1-9.117c-1.754-3.945-5.785-7.04-10.1-6.819" transform="translate(-722.179 -529.899)" fill="#d0fae7"/>
        <path id="Trazado_1000817" data-name="Trazado 1000817" d="M905.135,789.858a.291.291,0,0,1-.135-.549,114.49,114.49,0,0,0,49-49.9.291.291,0,1,1,.521.26,115.077,115.077,0,0,1-49.248,50.16.291.291,0,0,1-.134.033" transform="translate(-718.692 -587.161)" fill="#473424"/>
        <path id="Trazado_1000818" data-name="Trazado 1000818" d="M1020.68,872.851a.291.291,0,0,1-.291-.289l-.062-7.593a.291.291,0,0,1,.289-.293h0a.291.291,0,0,1,.291.289l.059,7.2c3.733-1.165,13.979-4.343,14.715-4.343h.014a.29.29,0,0,1,.267.313.3.3,0,0,1-.3.268c-.632.035-9.248,2.669-14.9,4.435a.31.31,0,0,1-.087.013" transform="translate(-810.417 -686.788)" fill="#473424"/>
        <path id="Trazado_1000819" data-name="Trazado 1000819" d="M1098.978,779.106a.294.294,0,0,1-.132-.032.29.29,0,0,1-.156-.224l-.939-7.767a.291.291,0,0,1,.578-.069l.887,7.338,8.149-4.491a.291.291,0,0,1,.281.509l-8.526,4.7a.286.286,0,0,1-.14.036" transform="translate(-871.91 -612.19)" fill="#473424"/>
        <path id="Trazado_1000820" data-name="Trazado 1000820" d="M1064.706,814.057h0a.291.291,0,0,1-.288-.294l.107-11.2a.31.31,0,0,1,.294-.288.291.291,0,0,1,.288.294l-.107,11.2a.291.291,0,0,1-.291.288" transform="translate(-845.435 -637.222)" fill="#473424"/>
        <path id="Trazado_1000821" data-name="Trazado 1000821" d="M985.308,927.1a.291.291,0,0,1-.028-.58l12.016-1.2a.286.286,0,0,1,.318.26.291.291,0,0,1-.26.318l-12.016,1.2-.029,0" transform="translate(-782.371 -734.956)" fill="#473424"/>
        <path id="Trazado_1000822" data-name="Trazado 1000822" d="M925.629,661.575l1.019,9.288-2.82-5.854c-.811,1.633-1.584,3.3-2.365,4.957l1.361,5.408-2.4-3.216c-.772,1.593-1.568,3.17-2.434,4.7l-.1.182,3.622,11.18-5.009-8.845c-1.231,2.026-2.5,4.046-3.521,6.157l3.019,6.93-4.183-4.136a19.539,19.539,0,0,0-.61,2.16,23.34,23.34,0,0,0,1.1,12.476,66.524,66.524,0,0,0,5.248,10.895l.135-.074c1.357-6.984,7.489-11.83,11.732-17.537a40.905,40.905,0,0,0,3.449-5.553l-5.99,1.234,7.478-4.334c.876-1.984,1.648-4.023,2.357-6.093l-6.136.9,7.037-3.623c.685-2.147,1.325-4.314,1.966-6.468l-7.677,2.546,8.631-5.7q.664-2.152,1.4-4.295l-5.5,1.585,7.374-6.51a40.877,40.877,0,0,1,8.622-13.482,26.043,26.043,0,0,0-16.555,3.756l-4.15,15.07-.833-11.037a35.813,35.813,0,0,0-5.255,7.334" transform="translate(-723.406 -513.328)" fill="#074528"/>
        <path id="Trazado_1000823" data-name="Trazado 1000823" d="M941.294,737.785l-.041,0a.291.291,0,0,1-.247-.329,148.835,148.835,0,0,1,24.8-63.28.291.291,0,1,1,.478.331,148.251,148.251,0,0,0-24.706,63.031.291.291,0,0,1-.288.25" transform="translate(-747.412 -535.376)" fill="#d0fae7"/>
        <path id="Trazado_1000824" data-name="Trazado 1000824" d="M994.616,735.149a.289.289,0,0,1-.117-.024.293.293,0,0,1-.165-.194l-2.546-9.893a.291.291,0,0,1,.564-.145l2.454,9.535c2.473-1.323,6.154-3.333,6.513-3.644a.291.291,0,0,1,.5.285c-.048.117-.149.358-7.068,4.048a.291.291,0,0,1-.137.034" transform="translate(-787.741 -575.588)" fill="#d0fae7"/>
        <path id="Trazado_1000825" data-name="Trazado 1000825" d="M976.015,773.374a.291.291,0,0,1-.272-.187l-3.4-8.888a.291.291,0,0,1,.544-.208l3.4,8.888a.291.291,0,0,1-.272.395" transform="translate(-772.292 -606.747)" fill="#d0fae7"/>
        <path id="Trazado_1000826" data-name="Trazado 1000826" d="M969.554,838.82a.291.291,0,0,1-.143-.545l9.947-5.625a.291.291,0,0,1,.286.507l-9.947,5.625a.29.29,0,0,1-.143.038" transform="translate(-769.858 -661.322)" fill="#d0fae7"/>
        <path id="Trazado_1000827" data-name="Trazado 1000827" d="M966.31,801.728a.291.291,0,0,1-.26-.159l-3.664-7.21a.291.291,0,0,1,.519-.264l3.664,7.21a.291.291,0,0,1-.128.391.286.286,0,0,1-.131.032" transform="translate(-764.371 -630.601)" fill="#473424"/>
        <path id="Trazado_1000828" data-name="Trazado 1000828" d="M940.264,849.023a.291.291,0,0,1-.272-.188l-4.746-12.526a.291.291,0,0,1,.545-.206l4.622,12.2,6.923-4.19a.291.291,0,0,1,.3.5l-7.222,4.371a.29.29,0,0,1-.151.042" transform="translate(-742.824 -663.945)" fill="#d0fae7"/>
        <path id="Trazado_1000829" data-name="Trazado 1000829" d="M211.613,681.991a54.581,54.581,0,0,1-2.891-18.932c.014-.579.039-1.164.071-1.746l-5.035,1.664,5.343-5.7c.165-1.795.363-3.588.536-5.38l-3.587,1.171,3.87-4.6a43.443,43.443,0,0,0-.229-9.39l-5.352,3.6,4.441-7.61a.645.645,0,0,0-.026-.093,32.781,32.781,0,0,0-4.412-8.612q-1.2,3.492-2.411,6.982-.131-5.3-.26-10.62c-3.142-4.06-6.541-8.008-8.937-12.514a39.146,39.146,0,0,0-6.6,14.9,56.71,56.71,0,0,1,4.394,8.13l-5.012-4.6a46.775,46.775,0,0,0-.336,8.8q2.908,3.1,5.819,6.2-2.759-1.406-5.516-2.814a49.119,49.119,0,0,0,1.062,5.729l7.7,6.47-6.729-3.1a54.26,54.26,0,0,0,3.347,8.014l6.541,3.57-5.166-1.031a73.7,73.7,0,0,0,19.38,21.518" transform="translate(-147.025 -484.678)" fill="#30df8e"/>
        <path id="Trazado_1000830" data-name="Trazado 1000830" d="M240.15,723.064a.291.291,0,0,1-.24-.126,112.084,112.084,0,0,1-19.631-62.561.291.291,0,0,1,.29-.292h0a.291.291,0,0,1,.291.29,111.494,111.494,0,0,0,19.529,62.232.291.291,0,0,1-.074.4.287.287,0,0,1-.165.052" transform="translate(-174.961 -524.287)" fill="#473424"/>
        <path id="Trazado_1000831" data-name="Trazado 1000831" d="M236.055,743.353a.289.289,0,0,1-.175-.058.292.292,0,0,1-.057-.408l8.278-11.006a.291.291,0,0,1,.465.35l-8.278,11.006a.29.29,0,0,1-.233.116" transform="translate(-187.261 -581.22)" fill="#473424"/>
        <path id="Trazado_1000832" data-name="Trazado 1000832" d="M210.605,789.887a.289.289,0,0,1-.182-.064l-8.861-7.139a.291.291,0,0,1,.365-.454l8.66,6.977,7.1-6.967a.291.291,0,1,1,.408.415l-7.286,7.148a.29.29,0,0,1-.2.083" transform="translate(-160.008 -621.245)" fill="#473424"/>
        <path id="Trazado_1000833" data-name="Trazado 1000833" d="M259.34,843.6a.291.291,0,0,1-.234-.463l2.839-3.865a.291.291,0,1,1,.469.345l-2.839,3.865a.29.29,0,0,1-.235.119" transform="translate(-205.755 -666.514)" fill="#473424"/>
        <path id="Trazado_1000834" data-name="Trazado 1000834" d="M.045,756.172c1.233-3.194,5.5-4.242,8.741-3.145a13.859,13.859,0,0,1,4.327,2.521l7.836,1.385-5.027,1.2,1,.994q1.437,1.429,2.923,2.816l11.527-.674-9.223,2.771q2.767,2.463,5.677,4.763l11.594.017-7.732,2.931q3.847,2.816,7.895,5.349l9.157.464-5.775,1.582q1.777,1.035,3.588,2.019c6.7,3.628,14.089,6.991,18.283,13.3-1.457-6.629-2.964-13.278-5.54-19.555-.515-1.257-1.081-2.5-1.691-3.727l-1.772,3.736L55.3,767.1a35.984,35.984,0,0,0-7.249-8.423L50.1,768.15,44.643,756.2A55.681,55.681,0,0,0,37.1,752.27l2.632,7.549-6.422-9.17c-1.007-.42-2.011-.838-3.01-1.266-.974-.414-1.948-.843-2.922-1.261l.588,4.157-3.313-5.293A41.36,41.36,0,0,0,18.488,745c-.066-.013-.132-.031-.2-.042l1.824,4.327-5.133-4.815A16.537,16.537,0,0,0,6.166,746C2.417,747.909-.39,751.987.045,756.172" transform="translate(0 -591.259)" fill="#d0fae7"/>
        <path id="Trazado_1000835" data-name="Trazado 1000835" d="M120.273,814.952a.292.292,0,0,1-.251-.143A111.5,111.5,0,0,0,69,769.683a.291.291,0,1,1,.232-.533,112.088,112.088,0,0,1,51.291,45.364.291.291,0,0,1-.25.439" transform="translate(-54.666 -610.895)" fill="#473424"/>
        <path id="Trazado_1000836" data-name="Trazado 1000836" d="M197.378,826.113a.291.291,0,0,1-.017-.582l6.991-.422c-1.336-3.607-4.984-13.515-4.968-14.1a.3.3,0,0,1,.3-.283.291.291,0,0,1,.283.288c.068.618,3.066,8.861,5.069,14.262a.291.291,0,0,1-.255.392l-7.382.445h-.018" transform="translate(-156.541 -643.937)" fill="#473424"/>
        <path id="Trazado_1000837" data-name="Trazado 1000837" d="M102.1,776.58a.291.291,0,0,1-.05-.578l7.082-1.234-4.776-7.689a.291.291,0,0,1,.495-.307l5,8.055a.291.291,0,0,1-.2.44l-7.507,1.308a.257.257,0,0,1-.05,0" transform="translate(-80.862 -608.917)" fill="#473424"/>
        <path id="Trazado_1000838" data-name="Trazado 1000838" d="M134.413,841.252a.291.291,0,0,1-.012-.582l10.9-.464a.294.294,0,0,1,.3.279.291.291,0,0,1-.278.3l-10.9.464Z" transform="translate(-106.53 -667.352)" fill="#473424"/>
        <path id="Trazado_1000839" data-name="Trazado 1000839" d="M256.967,869.355a.291.291,0,0,1-.287-.247l-1.772-11.627a.291.291,0,0,1,.575-.088l1.772,11.627a.291.291,0,0,1-.244.332.3.3,0,0,1-.044,0" transform="translate(-202.463 -680.807)" fill="#473424"/>
        <path id="Trazado_1000840" data-name="Trazado 1000840" d="M760.183,754.9c0,4.868-3.124,17.261-3.124,17.261h-21.3s1.334-11.474,1.2-14.321-3.21-39.759-3.21-39.759-7.484,41.873-7.438,43.062,2.939,11.018,2.939,11.018H709.5s-2.893-12.531-2.662-17.63c.211-4.67-1.156-51.26-1.387-58.968,4.029.647,18.377,2.807,26.073,1.9,7.478-.872,24.943-4.928,30.663-6.275.41,2.233.846,4.683,1.116,6.48.647,4.254-3.118,52.363-3.118,57.231" transform="translate(-560.318 -548.991)" fill="#b66950"/>
        <path id="Trazado_1000841" data-name="Trazado 1000841" d="M852.645,784.22a.291.291,0,0,1-.115-.558l13.494-5.792a.291.291,0,1,1,.23.534L852.76,784.2a.283.283,0,0,1-.115.024" transform="translate(-677.001 -617.821)" fill="#59261f"/>
        <path id="Trazado_1000842" data-name="Trazado 1000842" d="M852.535,807.732a.291.291,0,0,1-.064-.575l5.971-1.363a.291.291,0,0,1,.13.567l-5.971,1.363a.287.287,0,0,1-.065.007" transform="translate(-676.914 -640.014)" fill="#59261f"/>
        <path id="Trazado_1000843" data-name="Trazado 1000843" d="M780.032,799.138a.29.29,0,0,1-.1-.016c-4.032-1.429-8.171-2.7-12.3-3.777a.291.291,0,1,1,.147-.563c4.147,1.081,8.3,2.356,12.35,3.79a.291.291,0,0,1-.1.566" transform="translate(-609.536 -631.265)" fill="#59261f"/>
        <path id="Trazado_1000844" data-name="Trazado 1000844" d="M907.907,1026.006a.291.291,0,0,1-.008-.582,14.487,14.487,0,0,0,7.919-2.668.291.291,0,1,1,.338.474,15.081,15.081,0,0,1-8.24,2.776Z" transform="translate(-720.894 -812.303)" fill="#59261f"/>
        <path id="Trazado_1000845" data-name="Trazado 1000845" d="M734.175,1022.2a7.337,7.337,0,0,1-6.367-3.808.291.291,0,1,1,.514-.274,6.733,6.733,0,0,0,6.119,3.494.291.291,0,0,1,.025.582q-.145.006-.291.006" transform="translate(-578.05 -808.543)" fill="#59261f"/>
        <path id="Trazado_1000846" data-name="Trazado 1000846" d="M812.274,122.45a5.86,5.86,0,0,1-2.642,3.243,5.053,5.053,0,0,1-1.044.456c-.152.053-.634.178-1.017.271-.225.819-.628,2.821-.826,3.3a10.627,10.627,0,0,1-2.867,3.283,28.768,28.768,0,0,1-4.948,3.428,7.009,7.009,0,0,1-6.262-.885,29.243,29.243,0,0,1-4.062-5.053v-.007a9.785,9.785,0,0,1-1.585-3.554c-.059-.515.112-2.537.119-3.369-.324-.2-.76-.482-.9-.575a5.782,5.782,0,0,1-.879-.727,5.891,5.891,0,0,1-1.638-3.851,4.714,4.714,0,0,1,.74-2.788,3.6,3.6,0,0,1,.9-.938.842.842,0,0,1,.416-.271,2.8,2.8,0,0,1,.542-.238,2.847,2.847,0,0,1,.522-.125,3.154,3.154,0,0,1,1,.033h.007a33.211,33.211,0,0,1,1.869-6.256c1.473-3.3,3.6-3.9,4.71-3.6a23.079,23.079,0,0,0,5.628,1.631,22.665,22.665,0,0,0,5.866-.013c1.143.02,3.025,1.2,3.521,4.769a32.966,32.966,0,0,1,.073,6.527v.007a3.048,3.048,0,0,1,.964.244,2.7,2.7,0,0,1,.462.264,2.8,2.8,0,0,1,.463.377.887.887,0,0,1,.33.376,3.623,3.623,0,0,1,.608,1.149,4.734,4.734,0,0,1-.066,2.887" transform="translate(-622.482 -82.733)" fill="#e3a086"/>
        <path id="Trazado_1000847" data-name="Trazado 1000847" d="M820.955,95.077a2.7,2.7,0,0,0-.462-.264,3.047,3.047,0,0,0-.964-.244v-.007a32.942,32.942,0,0,0-.073-6.526c-.5-3.574-2.378-4.749-3.521-4.769a22.673,22.673,0,0,1-5.866.013,23.092,23.092,0,0,1-5.628-1.632c-1.11-.3-3.237.3-4.71,3.6a33.189,33.189,0,0,0-1.87,6.256h-.007a3.155,3.155,0,0,0-1-.033,2.838,2.838,0,0,0-.522.125s-.971-17.9,14.777-15.675,9.842,19.156,9.842,19.156" transform="translate(-632.498 -60.15)" fill="#a3552e"/>
        <path id="Trazado_1000848" data-name="Trazado 1000848" d="M846.6,166.072h-.087a.291.291,0,0,1-.288-.294.272.272,0,0,1,.295-.288,6.88,6.88,0,0,0,3.445-.888,1.127,1.127,0,0,0,.472-1.347,36.082,36.082,0,0,1-1.606-7.4.291.291,0,1,1,.579-.063,35.511,35.511,0,0,0,1.58,7.281,1.709,1.709,0,0,1-.739,2.037,7.458,7.458,0,0,1-3.65.963" transform="translate(-672.13 -123.534)" fill="#c36d59"/>
        <path id="Trazado_1000849" data-name="Trazado 1000849" d="M829.57,157.745a1.576,1.576,0,1,1-1.294-1.995,1.69,1.69,0,0,1,1.294,1.995" transform="translate(-656.433 -123.698)" fill="#473424"/>
        <path id="Trazado_1000850" data-name="Trazado 1000850" d="M876.833,164.422a1.576,1.576,0,1,1-1.294-1.995,1.69,1.69,0,0,1,1.294,1.995" transform="translate(-693.973 -129.001)" fill="#473424"/>
        <path id="Trazado_1000851" data-name="Trazado 1000851" d="M823.468,137.991a11.189,11.189,0,0,0-3.96.482,1.036,1.036,0,0,0-.554.542,1.053,1.053,0,0,0-.008.8,1.039,1.039,0,0,0,.543.554,1.162,1.162,0,0,0,.8.008c.07-.021.14-.04.21-.06a9.862,9.862,0,0,1,2.391-.3c.1,0,.195,0,.292.01a1.1,1.1,0,0,0,.763-.2,1.029,1.029,0,0,0-.475-1.84" transform="translate(-650.406 -109.588)" fill="#473424"/>
        <path id="Trazado_1000852" data-name="Trazado 1000852" d="M872.573,143.055a11.187,11.187,0,0,1,3.672,1.56,1.036,1.036,0,0,1,.382.675,1.051,1.051,0,0,1-.214.77,1.037,1.037,0,0,1-.675.382,1.164,1.164,0,0,1-.77-.214c-.061-.04-.123-.077-.185-.116a9.861,9.861,0,0,0-2.214-.949c-.094-.024-.188-.05-.284-.071a1.1,1.1,0,0,1-.678-.4,1.028,1.028,0,0,1,.966-1.637" transform="translate(-692.128 -113.608)" fill="#473424"/>
        <path id="Trazado_1000853" data-name="Trazado 1000853" d="M839.072,216.317a3.548,3.548,0,0,1-4.1,1.407,3.4,3.4,0,0,1-2.211-3.578.444.444,0,0,1,.59-.415l5.5,1.915a.437.437,0,0,1,.221.671" transform="translate(-661.441 -169.741)" fill="#fff"/>
        <path id="Trazado_1000854" data-name="Trazado 1000854" d="M799.248,173.058h-.021a.291.291,0,0,1-.27-.311l.448-6.368a.286.286,0,0,1,.311-.27.29.29,0,0,1,.27.311l-.448,6.368a.291.291,0,0,1-.29.271" transform="translate(-634.589 -131.935)" fill="#c36d59"/>
        <path id="Trazado_1000855" data-name="Trazado 1000855" d="M898.537,186.188a.291.291,0,0,1-.287-.344l1.215-6.562a.291.291,0,0,1,.573.106l-1.215,6.562a.291.291,0,0,1-.286.238" transform="translate(-713.451 -142.209)" fill="#c36d59"/>
        <path id="Trazado_1000856" data-name="Trazado 1000856" d="M793.115,166.907a.3.3,0,0,1-.052,0,.292.292,0,0,1-.235-.338,10.946,10.946,0,0,0-.731-5.267.291.291,0,0,1,.536-.227,11.333,11.333,0,0,1,.768,5.6.291.291,0,0,1-.286.239" transform="translate(-629.122 -127.793)" fill="#c36d59"/>
        <path id="Trazado_1000857" data-name="Trazado 1000857" d="M904.671,181.235h-.03a.291.291,0,0,1-.26-.319,11.335,11.335,0,0,1,2.288-5.164.291.291,0,0,1,.453.366,10.948,10.948,0,0,0-2.161,4.858.291.291,0,0,1-.289.261" transform="translate(-718.323 -139.508)" fill="#c36d59"/>
        <path id="Trazado_1000858" data-name="Trazado 1000858" d="M813.556,234.673v.013c-5.78,11.078-17.657,5.331-17.657,5.331a4.644,4.644,0,0,0,1.367-1.559c.614-1.215.9-4.465,1.017-6.3a29.246,29.246,0,0,0,4.063,5.053,7.01,7.01,0,0,0,6.262.885,28.783,28.783,0,0,0,4.948-3.428" transform="translate(-632.16 -184.401)" fill="#c36d59"/>
        <path id="Trazado_1000859" data-name="Trazado 1000859" d="M809.322,250.875a12.476,12.476,0,0,1-11.084,6.011,14.467,14.467,0,0,1-11.811-6.011,8.7,8.7,0,0,0,1.949-1.116s11.877,5.747,17.657-5.331c.053,1.189.119,2.616.225,3.613a3.213,3.213,0,0,0,1.869,2.332,6.192,6.192,0,0,0,1.2.5" transform="translate(-624.637 -194.143)" fill="#e3a086"/>
        <path id="Trazado_1000860" data-name="Trazado 1000860" d="M880.942,185.759a2.349,2.349,0,1,1-2.061-2.032,2.078,2.078,0,0,1,2.061,2.032" transform="translate(-696.102 -145.914)" fill="#e48c7e"/>
        <path id="Trazado_1000861" data-name="Trazado 1000861" d="M812.4,178.352a2.349,2.349,0,1,1-2.061-2.032,2.078,2.078,0,0,1,2.061,2.032" transform="translate(-641.664 -140.03)" fill="#e48c7e"/>
        <path id="Trazado_1000862" data-name="Trazado 1000862" d="M726.535,307.184s-.918.581-2.134,1.275c-1.737,1-4.076,2.233-5.093,2.285-1.711.079-9.915,1.486-9.915,1.486l.614,5.324,3.607,38.947s-.68.165-1.85.443c-5.72,1.348-23.186,5.4-30.663,6.275-7.7.905-22.043-1.255-26.073-1.9-.687-.112-1.077-.178-1.077-.178s1.275-23.549,1.592-25.993c.568-4.36-1.592-25.987-1.592-25.987l-11.943-5.985c-.68-4,7.564-19.738,8.607-23.311s18.377-8.865,19.3-9.314,1.777.931,1.777.931a14.467,14.467,0,0,0,11.811,6.011,12.476,12.476,0,0,0,11.084-6.011,6.191,6.191,0,0,1-1.2-.5c.383-.932,1.909-.515,1.909-.515s18.2,7.326,20.464,9.9,10.774,26.825,10.774,26.825" transform="translate(-509.898 -214.748)" fill="#f1cdbe"/>
        <path id="Trazado_1000863" data-name="Trazado 1000863" d="M801.84,419.455c0,1.077-.806,7.53-2.708,9.089-1.4,1.149-4.591,2.028-11.249.4h-.007a65.39,65.39,0,0,1-8.759-2.887A100.683,100.683,0,0,1,756.968,413.7c-7.187.033-8.594-4.987-9.545-7.775s-1.651-6.533-2.814-7.524-5.053-1.255-5.542-2.021,1.07-1.566,1.07-1.566a1.778,1.778,0,0,1-1.777-1.559c0-.581,1.777-1.1,1.777-1.1s-.747-.258-.793-.76,1.222-1.077,1.222-1.077-.707-1.5.37-1.466a15.77,15.77,0,0,1,5.417,1.625c1.057.733,6.533,4.756,6.976,4.895s6.916,10.965,6.916,10.965l26.323,5.324-.614-5.324s8.2-1.407,9.915-1.486c1.017-.053,3.356-1.281,5.093-2.286.244,4.347.878,16.019.878,16.891" transform="translate(-586.459 -308.853)" fill="#e3a086"/>
        <path id="Trazado_1000864" data-name="Trazado 1000864" d="M757.3,399.642a.289.289,0,0,1-.164-.051c-.127-.086-3.112-2.125-4-2.857-.682-.562-4.007-1.345-5.23-1.6a.291.291,0,0,1-.226-.344.287.287,0,0,1,.344-.226c.465.1,4.566.965,5.482,1.719.867.714,3.927,2.8,3.958,2.825a.291.291,0,0,1-.164.532" transform="translate(-593.853 -313.387)" fill="#c36d59"/>
        <path id="Trazado_1000865" data-name="Trazado 1000865" d="M753.5,407.994a.291.291,0,0,1-.2-.079,28.964,28.964,0,0,0-3.225-2.652,25.149,25.149,0,0,0-4.256-1.2.291.291,0,0,1,.115-.571,24.709,24.709,0,0,1,4.424,1.258,28.528,28.528,0,0,1,3.339,2.735.291.291,0,0,1-.2.5" transform="translate(-592.196 -320.483)" fill="#c36d59"/>
        <path id="Trazado_1000866" data-name="Trazado 1000866" d="M753.005,419.323a.286.286,0,0,1-.175-.059,15.291,15.291,0,0,0-3.256-1.978,31.9,31.9,0,0,0-3.708-.271.291.291,0,1,1,.013-.582,31.465,31.465,0,0,1,3.823.286,15.607,15.607,0,0,1,3.477,2.08.291.291,0,0,1-.175.524" transform="translate(-592.195 -330.761)" fill="#c36d59"/>
        <path id="Trazado_1000867" data-name="Trazado 1000867" d="M833.8,476.019a.291.291,0,0,1-.241-.453l2.019-3.009a.291.291,0,0,1,.483.324l-2.019,3.009a.291.291,0,0,1-.242.129" transform="translate(-662.034 -375.236)" fill="#c36d59"/>
        <path id="Trazado_1000868" data-name="Trazado 1000868" d="M978.6,501.788a.292.292,0,0,1-.236-.121c-1.352-1.871-6.793-2.774-6.848-2.783a.291.291,0,1,1,.093-.574c.234.038,5.735.953,7.227,3.016a.291.291,0,0,1-.236.462" transform="translate(-771.456 -395.791)" fill="#c36d59"/>
        <path id="Trazado_1000869" data-name="Trazado 1000869" d="M957.592,397.115a.291.291,0,0,1-.289-.258c-.411-3.56-2.82-19.487-2.844-19.647a.291.291,0,1,1,.575-.088c.024.161,2.435,16.1,2.847,19.668a.292.292,0,0,1-.256.323l-.034,0" transform="translate(-758.097 -299.341)" fill="#d19884"/>
        <path id="Trazado_1000870" data-name="Trazado 1000870" d="M975.722,408.687h-.014a.291.291,0,0,1-.277-.3l.643-13.544a.285.285,0,0,1,.3-.277.291.291,0,0,1,.277.3l-.643,13.544a.291.291,0,0,1-.291.278" transform="translate(-774.757 -313.388)" fill="#d19884"/>
        <path id="Trazado_1000871" data-name="Trazado 1000871" d="M789.073,285.708c-.2,0-.4,0-.607-.014-7.93-.369-13.741-7.157-13.8-7.226a.291.291,0,1,1,.445-.375c.056.066,5.709,6.663,13.381,7.019,7.64.363,12.764-6.425,12.815-6.494a.291.291,0,0,1,.468.347c-.051.069-5.084,6.743-12.7,6.743" transform="translate(-615.242 -220.8)" fill="#d19884"/>
        <path id="Trazado_1000872" data-name="Trazado 1000872" d="M888.632,374.7a7.962,7.962,0,1,1-9.3-6.356,7.962,7.962,0,0,1,9.3,6.356" transform="translate(-693.275 -292.457)" fill="#d27358"/>
        <path id="Trazado_1000873" data-name="Trazado 1000873" d="M894.689,386.966c.129.967.2,4.286-4.237,6.728-5.053-.354-6.381-3.4-6.67-4.328a2.794,2.794,0,0,1-.073-.274,15.392,15.392,0,0,0,7.384-4.673,2.977,2.977,0,0,1,3.547,2.267,2.748,2.748,0,0,1,.049.279" transform="translate(-701.849 -305.278)" fill="#fbf4f2"/>
        <path id="Trazado_1000874" data-name="Trazado 1000874" d="M327.487,129.806c-.674,3.323-3,8.97-4.314,9.935a2.058,2.058,0,0,1-.661.291c-1.988.555-6.612.126-7.7-.469s-6.672-2.708-8.68-8.363v-.007a11.555,11.555,0,0,1-.4-1.447q-.109-.456-.178-.951a6.141,6.141,0,0,1-3.441-1.519,6.331,6.331,0,0,1-2.081-4.023,5.262,5.262,0,0,1,.581-3.072,2.344,2.344,0,0,1,.172-.271,3.761,3.761,0,0,1,2.279-1.618,3.333,3.333,0,0,1,1.4.013c3.858-1.876,2.847-5.674,2.94-7.629a6.029,6.029,0,0,1,1.592-3.488L309,107a6.954,6.954,0,0,1,3.66,1.354c1.123.746,2.147,1.631,3.336,2.266a5.158,5.158,0,0,0,3.878.608,4.1,4.1,0,0,1-1.414-1.916,11.646,11.646,0,0,0,8.257.819,11.812,11.812,0,0,1,.938,4.928l.013.007s.013.231.026.634c.093,2.437.377,11.256-.2,14.1" transform="translate(-238.28 -84.99)" fill="#e3a086"/>
        <path id="Trazado_1000875" data-name="Trazado 1000875" d="M401.371,170.258a.291.291,0,0,1-.1-.565,6.871,6.871,0,0,0,2.909-2.047,1.126,1.126,0,0,0-.034-1.427,36.062,36.062,0,0,1-4.116-6.357.291.291,0,1,1,.519-.263,35.5,35.5,0,0,0,4.049,6.254,1.71,1.71,0,0,1,.028,2.167,7.45,7.45,0,0,1-3.157,2.219.291.291,0,0,1-.1.018" transform="translate(-317.709 -126.639)" fill="#c36d59"/>
        <path id="Trazado_1000876" data-name="Trazado 1000876" d="M372.484,161.14a1.576,1.576,0,1,1-1.437-1.894,1.69,1.69,0,0,1,1.437,1.894" transform="translate(-293.376 -126.482)" fill="#473424"/>
        <path id="Trazado_1000877" data-name="Trazado 1000877" d="M420.11,164.331a1.576,1.576,0,1,1-1.437-1.894,1.69,1.69,0,0,1,1.437,1.894" transform="translate(-331.204 -129.017)" fill="#473424"/>
        <path id="Trazado_1000878" data-name="Trazado 1000878" d="M364.846,141.131a11.189,11.189,0,0,0-3.914.771,1.035,1.035,0,0,0-.513.582,1.052,1.052,0,0,0,.05.8,1.038,1.038,0,0,0,.582.513,1.164,1.164,0,0,0,.8-.05c.068-.027.137-.05.205-.076a9.857,9.857,0,0,1,2.362-.473c.1,0,.195-.01.292-.012a1.1,1.1,0,0,0,.746-.252,1.029,1.029,0,0,0-.608-1.8" transform="translate(-286.227 -112.096)" fill="#473424"/>
        <path id="Trazado_1000879" data-name="Trazado 1000879" d="M414.072,143.518a11.188,11.188,0,0,1,3.776,1.286,1.035,1.035,0,0,1,.431.645,1.05,1.05,0,0,1-.157.784,1.036,1.036,0,0,1-.645.43,1.163,1.163,0,0,1-.784-.156c-.064-.035-.129-.068-.193-.1a9.862,9.862,0,0,0-2.278-.784c-.1-.017-.192-.036-.288-.05a1.1,1.1,0,0,1-.705-.349,1.028,1.028,0,0,1,.843-1.7" transform="translate(-328.013 -113.985)" fill="#473424"/>
        <path id="Trazado_1000880" data-name="Trazado 1000880" d="M312.733,179.238a.291.291,0,0,1-.291-.284,7.8,7.8,0,0,0-2.57-5.545.291.291,0,0,1,.387-.435,8.392,8.392,0,0,1,2.764,5.965.291.291,0,0,1-.284.3Z" transform="translate(-246.046 -137.33)" fill="#c36d59"/>
        <path id="Trazado_1000881" data-name="Trazado 1000881" d="M322.245,77.442a11.032,11.032,0,0,1-1.163,3.3,10.258,10.258,0,0,0-1.13,3.3h-.039c-.013-.4-.027-.634-.027-.634l-.013-.007a11.81,11.81,0,0,0-.938-4.928,11.645,11.645,0,0,1-8.257-.819,4.093,4.093,0,0,0,1.414,1.916,5.158,5.158,0,0,1-3.878-.608c-1.189-.634-2.213-1.519-3.336-2.266a6.955,6.955,0,0,0-3.659-1.354l-.007.185a6.029,6.029,0,0,0-1.592,3.488c-.093,1.955.918,5.753-2.939,7.629a3.339,3.339,0,0,0-1.4-.013A3.761,3.761,0,0,0,293,88.249a28.7,28.7,0,0,1-2.6-7.973A8.422,8.422,0,0,1,290.34,77a3.611,3.611,0,0,1,1.79-2.464,3.241,3.241,0,0,1-.112-2.292,4.057,4.057,0,0,1,2.378-1.968,31.958,31.958,0,0,1,6.685-1.8,67.643,67.643,0,0,1,15.166-1.281,6.262,6.262,0,0,1,2.913.634,4.544,4.544,0,0,1,1.995,3.072,11.933,11.933,0,0,1,.079,3.362,3.617,3.617,0,0,1,1.011,3.184" transform="translate(-230.501 -53.328)" fill="#473424"/>
        <path id="Trazado_1000882" data-name="Trazado 1000882" d="M346.536,236.276a9.4,9.4,0,0,1-.713,2.173c-15.893-1.691-16.012-13.469-16.012-13.832,2.008,5.654,7.59,7.768,8.68,8.363s5.714,1.024,7.7.469l.086.713Z" transform="translate(-261.96 -178.407)" fill="#c36d59"/>
        <path id="Trazado_1000883" data-name="Trazado 1000883" d="M331.695,232.838a5.062,5.062,0,0,1-4.4,3.309c-4.195.086-15.272-8.759-15.272-8.759a22.423,22.423,0,0,0,.9-2.107c1.249-3.316,2.352-7.729,2.352-7.729h.007a11.572,11.572,0,0,0,.4,1.447v.007c0,.363.119,12.141,16.012,13.832" transform="translate(-247.831 -172.796)" fill="#e3a086"/>
        <path id="Trazado_1000884" data-name="Trazado 1000884" d="M380.276,214.827a5.43,5.43,0,0,1-5.2-3.758.291.291,0,0,1,.554-.18,4.854,4.854,0,0,0,5.247,3.317.291.291,0,1,1,.075.577,5.2,5.2,0,0,1-.682.044" transform="translate(-297.905 -167.344)" fill="#473424"/>
        <path id="Trazado_1000885" data-name="Trazado 1000885" d="M292.838,76.873a.291.291,0,0,1-.285-.232,8.885,8.885,0,0,1,.522-5.256.291.291,0,1,1,.535.229,8.3,8.3,0,0,0-.488,4.908.291.291,0,0,1-.225.344.3.3,0,0,1-.06.006" transform="translate(-232.222 -56.56)" fill="#473424"/>
        <path id="Trazado_1000886" data-name="Trazado 1000886" d="M286.745,88.68a.291.291,0,0,1-.218-.1,5.43,5.43,0,0,1-1.333-3.123.291.291,0,0,1,.266-.314.287.287,0,0,1,.314.266,4.846,4.846,0,0,0,1.19,2.786.291.291,0,0,1-.218.484" transform="translate(-226.521 -67.628)" fill="#473424"/>
        <path id="Trazado_1000887" data-name="Trazado 1000887" d="M348.612,110.215a4.749,4.749,0,0,1-2.028-.474,11.528,11.528,0,0,1-2.759-2.106c-.191-.179-.382-.358-.574-.533a6.446,6.446,0,0,0-3.451-1.882.291.291,0,1,1,.058-.579,6.962,6.962,0,0,1,3.784,2.031c.2.177.388.358.581.539a11.078,11.078,0,0,0,2.614,2.007,3.308,3.308,0,0,0,3.594-.243.291.291,0,0,1,.4.422,3.16,3.16,0,0,1-2.221.819" transform="translate(-269.686 -83.111)" fill="#473424"/>
        <path id="Trazado_1000888" data-name="Trazado 1000888" d="M238.856,285.388s-1.222,17.412-.733,25.372,2.821,32.658,2.821,32.658-.178.211-.509.568c-1.783,1.969-7.953,8.508-13.33,10.939-6.361,2.874-24.3,1.222-31.463,0a19.922,19.922,0,0,1-8.66-3.415,7.941,7.941,0,0,1-1.255-1.116l2.939-26.931-2.92-21.376c-1.427.39-2.53.687-2.53.687a38.071,38.071,0,0,1-6.606-.489c-1.552-.317-3.58-2.5-5.014-4.3-1.07-1.321-1.817-2.437-1.817-2.437,1.625-6.764,6.982-26.409,8.171-28.094s18.919-11.263,18.919-11.263a7.192,7.192,0,0,1,3.072-1.07,22.444,22.444,0,0,1-.9,2.107s11.078,8.845,15.272,8.759a5.063,5.063,0,0,0,4.4-3.309,9.4,9.4,0,0,0,.713-2.173l-.258-2.114s9.281,1.533,14.242,3.006,14.2,19.4,14.2,19.4l-1.592.918Z" transform="translate(-134.852 -202.636)" fill="#f1cdbe"/>
        <path id="Trazado_1000889" data-name="Trazado 1000889" d="M214.7,407.386c.013.746-1.077,1.8-1.077,1.8a6.654,6.654,0,0,1,.218,1.532,2.714,2.714,0,0,1-1.685,2.015c-1.07.568-6.077.324-9.915.033a10.472,10.472,0,0,0-5.938,1,46.47,46.47,0,0,1-6.229,5.291c-6.414,4.637-13.865,8.138-15.345,6.652-2.021-2.021-2.576-3.9-2.576-7.623s1.321-16.256,1.321-16.256l.007-.007c1.434,1.8,3.461,3.983,5.014,4.3a38.067,38.067,0,0,0,6.605.489s7.392-1.988,8.634-2.484,7.848-6.315,8.693-7.59,2.708-7.57,2.847-8.9.225-1.757,1.255-1.777,1.9.6,2.351,2.88-.779,7.193-.793,8.231,3.613.172,4.8.555,1.07,3.514,1.07,3.514a4.815,4.815,0,0,1,1.348,2.418,3.02,3.02,0,0,1-1.037,2.054,7.56,7.56,0,0,1,.429,1.869" transform="translate(-136.739 -306.482)" fill="#e3a086"/>
        <path id="Trazado_1000890" data-name="Trazado 1000890" d="M179.826,481.9a.292.292,0,0,1-.26-.421c.077-.155,1.954-3.807,7.484-4.991,5.384-1.152,12.4-3.19,12.468-3.211a.291.291,0,0,1,.163.559c-.07.02-7.1,2.064-12.508,3.221-5.242,1.122-7.067,4.646-7.084,4.681a.292.292,0,0,1-.261.161" transform="translate(-142.6 -375.903)" fill="#c36d59"/>
        <path id="Trazado_1000891" data-name="Trazado 1000891" d="M354.829,458.363a.291.291,0,0,1-.057-.576,11.442,11.442,0,0,1,4.135-.119.291.291,0,1,1-.166.558,11.109,11.109,0,0,0-3.856.132.272.272,0,0,1-.057.006" transform="translate(-281.599 -363.384)" fill="#c36d59"/>
        <path id="Trazado_1000892" data-name="Trazado 1000892" d="M359.135,479.4a.292.292,0,0,1-.121-.027c-1.36-.623-4.09.013-4.117.018a.291.291,0,1,1-.134-.566c.12-.029,2.953-.687,4.494.019a.291.291,0,0,1-.122.555" transform="translate(-281.6 -380.076)" fill="#c36d59"/>
        <path id="Trazado_1000893" data-name="Trazado 1000893" d="M360.868,497.355a.288.288,0,0,1-.1-.018,4.1,4.1,0,0,0-2.824-.009.291.291,0,0,1-.238-.531,4.6,4.6,0,0,1,3.261-.007.291.291,0,0,1-.1.565" transform="translate(-283.98 -394.356)" fill="#c36d59"/>
        <path id="Trazado_1000894" data-name="Trazado 1000894" d="M229.113,328.111a.291.291,0,0,1-.286-.24c-.6-3.389-1.218-6.893-2.862-9.975-1.805-3.382-4.712-5.648-7.775-6.063a.291.291,0,1,1,.078-.577c3.249.439,6.318,2.819,8.211,6.365,1.688,3.163,2.315,6.714,2.922,10.148a.291.291,0,0,1-.236.337.266.266,0,0,1-.051,0" transform="translate(-173.101 -247.22)" fill="#d19884"/>
        <path id="Trazado_1000895" data-name="Trazado 1000895" d="M274.786,435.7a.291.291,0,0,1-.29-.28,49.476,49.476,0,0,0-.952-7.879.291.291,0,1,1,.57-.116,50.044,50.044,0,0,1,.964,7.972.291.291,0,0,1-.279.3Z" transform="translate(-217.263 -339.304)" fill="#d19884"/>
        <path id="Trazado_1000896" data-name="Trazado 1000896" d="M267.7,446.7a.291.291,0,0,1-.276-.2l-1.661-4.956a.291.291,0,0,1,.552-.185l1.66,4.956a.29.29,0,0,1-.184.368.274.274,0,0,1-.092.015" transform="translate(-211.078 -350.402)" fill="#d19884"/>
        <path id="Trazado_1000897" data-name="Trazado 1000897" d="M492.59,356.787a.291.291,0,0,1-.278-.2l-2.919-9.216a.291.291,0,0,1,.555-.176l2.919,9.216a.291.291,0,0,1-.189.366.3.3,0,0,1-.088.014" transform="translate(-388.701 -275.604)" fill="#d19884"/>
        <path id="Trazado_1000898" data-name="Trazado 1000898" d="M507.609,361.755a.291.291,0,0,1-.285-.235,53.118,53.118,0,0,1-.859-6.658.291.291,0,1,1,.581-.037,52.544,52.544,0,0,0,.85,6.584.291.291,0,0,1-.23.341.3.3,0,0,1-.056.005" transform="translate(-402.27 -281.61)" fill="#d19884"/>
        <path id="Trazado_1000899" data-name="Trazado 1000899" d="M283.9,693.544a42.146,42.146,0,0,1-27.25-9.973.291.291,0,0,1,.38-.441,41.46,41.46,0,0,0,35.049,8.981.3.3,0,0,1,.345.224.292.292,0,0,1-.224.346,39.857,39.857,0,0,1-8.3.863" transform="translate(-203.77 -542.535)" fill="#d19884"/>
        <path id="Trazado_1000900" data-name="Trazado 1000900" d="M336.734,699.895a39.262,39.262,0,0,1-19.973-5.474.291.291,0,0,1,.3-.5,38.639,38.639,0,0,0,22.9,5.255.291.291,0,0,1,.05.58c-1.087.094-2.18.14-3.27.14" transform="translate(-251.481 -551.129)" fill="#d19884"/>
        <path id="Trazado_1000901" data-name="Trazado 1000901" d="M312.3,768.894H286.864l3.21-14.321s-6.883-27.268-6.883-27.816c0,.185-3.461,42.137-3.461,42.137H256.749s.231-18.681,0-18.727-7.161-39.621-7.53-46.187a37.138,37.138,0,0,1,.826-9.38,19.925,19.925,0,0,0,8.66,3.415c7.167,1.222,25.1,2.874,31.463,0,5.377-2.431,11.547-8.97,13.33-10.939,1.79,9.505,11.19,59.655,11.646,64.1.5,4.908-2.847,17.716-2.847,17.716" transform="translate(-197.914 -545.726)" fill="#66839c"/>
        <path id="Trazado_1000902" data-name="Trazado 1000902" d="M410.564,805.79a.291.291,0,0,1-.291-.29c-.03-8.893,5.495-27.893,5.551-28.084a.291.291,0,0,1,.559.164c-.056.19-5.557,19.109-5.527,27.918a.291.291,0,0,1-.29.292Z" transform="translate(-325.868 -617.314)" fill="#3d526c"/>
        <path id="Trazado_1000903" data-name="Trazado 1000903" d="M445.4,753.764a.291.291,0,0,1-.154-.538,42.139,42.139,0,0,1,11.858-5.049.291.291,0,1,1,.144.564,41.567,41.567,0,0,0-11.695,4.98.29.29,0,0,1-.153.044" transform="translate(-353.535 -594.248)" fill="#3d526c"/>
        <path id="Trazado_1000904" data-name="Trazado 1000904" d="M448.2,773.559a.291.291,0,0,1-.092-.567,50.585,50.585,0,0,1,5.912-1.565.291.291,0,0,1,.115.571,49.916,49.916,0,0,0-5.844,1.547.283.283,0,0,1-.092.015" transform="translate(-355.759 -612.718)" fill="#3d526c"/>
        <path id="Trazado_1000905" data-name="Trazado 1000905" d="M269.517,803.344a.284.284,0,0,1-.065-.007.291.291,0,0,1-.219-.349c1.4-6.1,1.315-12.9-.255-21.408-.7-3.773-1.62-7.569-2.512-11.24-.786-3.234-1.6-6.579-2.257-9.9a117.683,117.683,0,0,1-2.095-28.531.279.279,0,0,1,.3-.276.291.291,0,0,1,.277.3,117.085,117.085,0,0,0,2.084,28.39c.655,3.311,1.466,6.649,2.251,9.878.894,3.679,1.819,7.482,2.519,11.271,1.586,8.587,1.665,15.464.251,21.643a.291.291,0,0,1-.283.226" transform="translate(-208.08 -581.112)" fill="#3d526c"/>
        <path id="Trazado_1000906" data-name="Trazado 1000906" d="M346.543,1037.84a9.486,9.486,0,0,1-7.493-3.646.291.291,0,1,1,.466-.349,8.849,8.849,0,0,0,9.4,3.065.291.291,0,0,1,.171.557,8.7,8.7,0,0,1-2.542.372" transform="translate(-269.252 -821.062)" fill="#3d526c"/>
        <path id="Trazado_1000907" data-name="Trazado 1000907" d="M526.928,1008.135H526.9a9.357,9.357,0,0,1-7-4.457.291.291,0,0,1,.5-.3,8.761,8.761,0,0,0,6.558,4.174.291.291,0,0,1-.028.581" transform="translate(-412.908 -796.843)" fill="#3d526c"/>
        <path id="Trazado_1000908" data-name="Trazado 1000908" d="M420.231,365.831a7.962,7.962,0,1,1-9.295-6.356,7.962,7.962,0,0,1,9.295,6.356" transform="translate(-321.237 -285.412)" fill="#d27358"/>
        <path id="Trazado_1000909" data-name="Trazado 1000909" d="M426.287,378.1c.129.967.2,4.286-4.237,6.728-5.053-.354-6.381-3.4-6.67-4.328a2.772,2.772,0,0,1-.073-.274,2.979,2.979,0,0,1,5.16-2.589,2.979,2.979,0,0,1,5.771.184,2.732,2.732,0,0,1,.049.279" transform="translate(-329.811 -298.233)" fill="#fbf4f2"/>
        <path id="Trazado_1000910" data-name="Trazado 1000910" d="M474.071,578.281a5.586,5.586,0,0,1-.376,1.714c-3.508,1.024-7.993,1.869-9.783.211-3.124-2.893-5.546-15.454-4.892-18.024.436-1.7,1.361-7.986,1.929-12.016a7.485,7.485,0,0,0,2.114.852,46.929,46.929,0,0,0,7.834.429,23.566,23.566,0,0,0,.363,6.427c.694,3.144,2.719,17.988,2.811,20.406" transform="translate(-364.501 -436.982)" fill="#e5907d"/>
        <path id="Trazado_1000911" data-name="Trazado 1000911" d="M532.623,405.919a8.422,8.422,0,0,1-1.929,1.533,7.484,7.484,0,0,1-2.114.852,46.214,46.214,0,0,1-7.834.429,23.421,23.421,0,0,1-.37,6.427,129.361,129.361,0,0,0-1.711,13.859,7.345,7.345,0,0,0,.344,2.074,79.845,79.845,0,0,1,3.488,17.954,5.193,5.193,0,0,1-.944,1.05c-2.213,2.021-8.97,6.282-26.746,6.493h-.119c-16.256-.376-22.941-3.025-25.181-4.247a5.742,5.742,0,0,1-.951-.608c.872-10.384,3.475-17.075,4.459-20.6a7.536,7.536,0,0,0,.376-2.087,127.891,127.891,0,0,0-1.717-13.852,23.572,23.572,0,0,1-.363-6.427,46.925,46.925,0,0,1-7.834-.429,7.482,7.482,0,0,1-2.114-.852,8.427,8.427,0,0,1-1.929-1.533s3.4-21.362,3.858-24,4.835-5.113,6.533-5.813,13.515-5.509,13.971-5.568c.291-.04.647.324.879.608a9.025,9.025,0,0,1-1.149.489s4.71,8.693,11.289,12.921c0,0,11.289-5.509,13.6-13.225,0,0-.429-.073-1.037-.211.225-.284.595-.66.885-.621.456.059,12.267,4.868,13.964,5.569s6.077,3.184,6.54,5.819,3.858,23.992,3.858,23.992" transform="translate(-364.915 -294.307)" fill="#fbf4f2"/>
        <path id="Trazado_1000912" data-name="Trazado 1000912" d="M753.215,580.308c-1.8,1.664-6.308.806-9.816-.225-.231-.852.766-7.988.785-8.543a129.381,129.381,0,0,1,1.711-13.859,23.423,23.423,0,0,0,.37-6.427,46.218,46.218,0,0,0,7.834-.429,7.484,7.484,0,0,0,2.114-.852c.568,4.029,1.493,10.318,1.929,12.022.654,2.57-1.8,15.419-4.927,18.313" transform="translate(-590.433 -436.828)" fill="#e5907d"/>
        <path id="Trazado_1000913" data-name="Trazado 1000913" d="M547.152,437.192a7.962,7.962,0,1,1-9.295-6.356,7.962,7.962,0,0,1,9.295,6.356" transform="translate(-422.046 -342.092)" fill="#d27358"/>
        <path id="Trazado_1000914" data-name="Trazado 1000914" d="M553.207,449.458c.129.967.2,4.286-4.237,6.728-5.053-.354-6.381-3.4-6.67-4.328a2.772,2.772,0,0,1-.073-.274,15.4,15.4,0,0,0,7.385-4.673,2.977,2.977,0,0,1,3.547,2.267,2.743,2.743,0,0,1,.049.279" transform="translate(-430.62 -354.914)" fill="#fbf4f2"/>
        <path id="Trazado_1000915" data-name="Trazado 1000915" d="M513.844,463.425a.291.291,0,0,1-.29-.268c0-.06-.486-6.079-.486-9.222s2.118-15.7,2.208-16.23a.291.291,0,1,1,.574.1c-.022.13-2.2,13.027-2.2,16.134s.48,9.115.485,9.175a.291.291,0,0,1-.267.313h-.024" transform="translate(-407.516 -347.463)" fill="#e5b5a7"/>
        <path id="Trazado_1000916" data-name="Trazado 1000916" d="M737.825,480.767l-.042,0a.291.291,0,0,1-.246-.331c.01-.063.924-6.379.073-10.213s-4.885-10.865-4.926-10.935a.291.291,0,1,1,.5-.291c.168.291,4.118,7.169,4.99,11.1s-.027,10.161-.066,10.424a.291.291,0,0,1-.288.249" transform="translate(-581.92 -364.451)" fill="#e5b5a7"/>
        <path id="Trazado_1000917" data-name="Trazado 1000917" d="M499.248,507.618a.291.291,0,0,1-.282-.22l-2.482-9.868a.291.291,0,1,1,.565-.142l2.482,9.868a.291.291,0,0,1-.211.353.3.3,0,0,1-.071.009" transform="translate(-394.336 -394.887)" fill="#e5b5a7"/>
        <path id="Trazado_1000918" data-name="Trazado 1000918" d="M764.177,510.722a.291.291,0,0,1-.287-.338l1.653-10a.288.288,0,0,1,.335-.24.291.291,0,0,1,.24.334l-1.653,10a.291.291,0,0,1-.287.244" transform="translate(-606.733 -397.246)" fill="#e5b5a7"/>
        <path id="Trazado_1000919" data-name="Trazado 1000919" d="M542.669,743.912a14.812,14.812,0,0,1-2.146-.147c-8.961-1.322-21.834-9.234-21.963-9.314a.291.291,0,1,1,.306-.494c.128.079,12.9,7.928,21.741,9.232,8.811,1.3,24.615-6.954,24.774-7.038a.291.291,0,1,1,.271.515c-.6.318-13.875,7.246-22.984,7.246" transform="translate(-411.769 -582.927)" fill="#e5b5a7"/>
        <path id="Trazado_1000920" data-name="Trazado 1000920" d="M550.309,824.611H528.365v.033H506.474s-6.533-45.447-6.288-54.814a34.689,34.689,0,0,1,1.684-10.318c2.239,1.222,8.924,3.871,25.181,4.247h.119c17.776-.212,24.533-4.472,26.746-6.493a41.78,41.78,0,0,1,3.1,14.77c.244,9.36-6.711,52.574-6.711,52.574" transform="translate(-397.278 -601.476)" fill="#475e72"/>
        <path id="Trazado_1000921" data-name="Trazado 1000921" d="M561.213,799.941a.3.3,0,0,1-.108-.021L543.6,792.942a.291.291,0,0,1,.216-.541l17.506,6.978a.291.291,0,0,1-.108.562" transform="translate(-431.62 -629.366)" fill="#303045"/>
        <path id="Trazado_1000922" data-name="Trazado 1000922" d="M553.758,828.351h-.028l-15.43-1.469a.291.291,0,0,1,.055-.58l15.43,1.469a.291.291,0,0,1-.027.581" transform="translate(-427.347 -656.307)" fill="#303045"/>
        <path id="Trazado_1000923" data-name="Trazado 1000923" d="M654.984,805.875a.291.291,0,0,1-.094-.567l18.769-6.366a.291.291,0,0,1,.187.551l-18.769,6.366a.3.3,0,0,1-.093.015" transform="translate(-520.004 -634.566)" fill="#303045"/>
        <path id="Trazado_1000924" data-name="Trazado 1000924" d="M622.8,894.826a.291.291,0,0,1-.291-.288c-.242-20.894,2.716-48.74,2.746-49.019a.291.291,0,0,1,.579.063c-.03.278-2.985,28.09-2.743,48.949a.291.291,0,0,1-.288.294Z" transform="translate(-494.427 -671.367)" fill="#303045"/>
        <path id="Trazado_1000925" data-name="Trazado 1000925" d="M729.286,829.885a.287.287,0,0,1-.054-.005.291.291,0,0,1-.232-.34c.078-.415,7.817-41.628,7.908-49.771.09-8.095-3.646-15.732-3.683-15.808a.291.291,0,1,1,.522-.258c.038.077,3.835,7.835,3.743,16.073-.091,8.194-7.84,49.456-7.918,49.873a.291.291,0,0,1-.286.237" transform="translate(-579.02 -606.459)" fill="#303045"/>
        <path id="Trazado_1000926" data-name="Trazado 1000926" d="M613.41,203.87l-.185.172a3.21,3.21,0,0,0-.925-.608,3.022,3.022,0,0,0-.964-.225l-.073.04a6.8,6.8,0,0,1-.509-4.4,11.581,11.581,0,0,0,.086-4.518,2.26,2.26,0,0,0-2.867-1.81c-.614.113-1.2.337-1.81.482a8.049,8.049,0,0,1-6.275-1.427,7.96,7.96,0,0,0-3.072-1.744,3.7,3.7,0,0,0-3.29,1.453,8.085,8.085,0,0,0-1.46,3.422,34.209,34.209,0,0,1-.832,3.666,3.328,3.328,0,0,1-1.625,2.127c-.026.013-.059.027-.086.039h-.007a2.965,2.965,0,0,0-.9,0,3.366,3.366,0,0,0-.714.205s-.159-10.14,6.619-13.9a12.744,12.744,0,0,1,7.92-1.249,12.533,12.533,0,0,1,8.158,3.845c4.908,5.417,2.814,14.427,2.814,14.427" transform="translate(-466.951 -147.309)" fill="#e9be95"/>
        <path id="Trazado_1000927" data-name="Trazado 1000927" d="M605.156,225.2a5.792,5.792,0,0,1-2.576,3.29,5.106,5.106,0,0,1-1.037.482,4.406,4.406,0,0,1-.713.2l-.852,2.074a13.13,13.13,0,0,1-3.514,4.175,15.627,15.627,0,0,1-5.04,2.847,5.657,5.657,0,0,1-4.71-.575,16.534,16.534,0,0,1-5.456-5.919v-.007a10.782,10.782,0,0,1-1.156-2.953l-.324-2.219a6.137,6.137,0,0,1-.641-.363,5.165,5.165,0,0,1-.892-.713,5.833,5.833,0,0,1-1.711-3.818,4.692,4.692,0,0,1,.687-2.8,3.737,3.737,0,0,1,1.645-1.407,3.379,3.379,0,0,1,.713-.2,2.965,2.965,0,0,1,.9,0h.007a.323.323,0,0,1,.079.007c0-.013.007-.033.007-.046a3.33,3.33,0,0,0,1.625-2.127,34.28,34.28,0,0,0,.832-3.666,8.085,8.085,0,0,1,1.46-3.422,3.7,3.7,0,0,1,3.29-1.453,7.963,7.963,0,0,1,3.072,1.744,8.05,8.05,0,0,0,6.275,1.427c.608-.145,1.2-.37,1.81-.482a2.26,2.26,0,0,1,2.867,1.81,11.581,11.581,0,0,1-.086,4.518,6.8,6.8,0,0,0,.509,4.4l.073-.04a3.02,3.02,0,0,1,.964.224,3.21,3.21,0,0,1,.925.608,3.813,3.813,0,0,1,.978,1.526,4.685,4.685,0,0,1-.013,2.887" transform="translate(-457.918 -164.051)" fill="#e5907d"/>
        <path id="Trazado_1000928" data-name="Trazado 1000928" d="M642.506,275.421q-.307,0-.617-.027a.291.291,0,0,1-.265-.315.285.285,0,0,1,.315-.265,6.154,6.154,0,0,0,3.031-.485.714.714,0,0,0,.337-.961,29.3,29.3,0,0,1-1.65-6.126.291.291,0,1,1,.575-.088,28.729,28.729,0,0,0,1.617,6,1.289,1.289,0,0,1-.644,1.7,6.653,6.653,0,0,1-2.7.559" transform="translate(-509.623 -211.999)" fill="#c36d59"/>
        <path id="Trazado_1000929" data-name="Trazado 1000929" d="M622.181,260.424a1.576,1.576,0,1,1-1.427-1.9,1.689,1.689,0,0,1,1.427,1.9" transform="translate(-491.704 -205.334)" fill="#473424"/>
        <path id="Trazado_1000930" data-name="Trazado 1000930" d="M669.788,263.882a1.576,1.576,0,1,1-1.427-1.9,1.689,1.689,0,0,1,1.427,1.9" transform="translate(-529.517 -208.081)" fill="#473424"/>
        <path id="Trazado_1000931" data-name="Trazado 1000931" d="M616.407,241.741a8.952,8.952,0,0,0-3.135.6.828.828,0,0,0-.413.463.84.84,0,0,0,.037.638.83.83,0,0,0,.463.413.93.93,0,0,0,.638-.037c.054-.021.109-.039.164-.059a7.9,7.9,0,0,1,1.892-.368c.078,0,.156-.007.234-.008a.88.88,0,0,0,.6-.2.823.823,0,0,0-.478-1.443" transform="translate(-486.741 -192.008)" fill="#473424"/>
        <path id="Trazado_1000932" data-name="Trazado 1000932" d="M666.249,244.571a8.944,8.944,0,0,1,3.015,1.046.826.826,0,0,1,.341.518.842.842,0,0,1-.129.626.832.832,0,0,1-.518.342.932.932,0,0,1-.626-.129c-.051-.029-.1-.055-.154-.083a7.9,7.9,0,0,0-1.819-.638c-.077-.014-.153-.029-.23-.041a.881.881,0,0,1-.563-.283.823.823,0,0,1,.682-1.358" transform="translate(-528.481 -194.25)" fill="#473424"/>
        <path id="Trazado_1000933" data-name="Trazado 1000933" d="M635.217,318.611a3.548,3.548,0,0,1-3.991,1.681,3.4,3.4,0,0,1-2.449-3.419.444.444,0,0,1,.561-.454l5.613,1.538a.437.437,0,0,1,.266.654" transform="translate(-499.42 -251.31)" fill="#fff"/>
        <path id="Trazado_1000934" data-name="Trazado 1000934" d="M591.214,277.151h-.02a.291.291,0,0,1-.271-.31l.446-6.736a.3.3,0,0,1,.31-.271.291.291,0,0,1,.271.31l-.446,6.737a.291.291,0,0,1-.29.272" transform="translate(-469.354 -214.321)" fill="#c36d59"/>
        <path id="Trazado_1000935" data-name="Trazado 1000935" d="M693.534,293.6a.305.305,0,0,1-.059-.006.291.291,0,0,1-.226-.344l1.18-5.717a.291.291,0,0,1,.57.118l-1.18,5.717a.291.291,0,0,1-.285.232" transform="translate(-550.623 -228.198)" fill="#c36d59"/>
        <path id="Trazado_1000936" data-name="Trazado 1000936" d="M583.392,272.666h-.011a.291.291,0,0,1-.28-.3,11.769,11.769,0,0,0-1.239-5.018.291.291,0,1,1,.515-.27,12.17,12.17,0,0,1,1.305,5.309.291.291,0,0,1-.291.281" transform="translate(-462.13 -212.007)" fill="#c36d59"/>
        <path id="Trazado_1000937" data-name="Trazado 1000937" d="M698.847,289.4l-.038,0a.291.291,0,0,1-.251-.327,9.456,9.456,0,0,1,2.552-4.782.291.291,0,0,1,.409.415,9.024,9.024,0,0,0-2.384,4.443.291.291,0,0,1-.288.253" transform="translate(-554.843 -225.734)" fill="#c36d59"/>
        <path id="Trazado_1000938" data-name="Trazado 1000938" d="M630.023,147.808a8.4,8.4,0,0,1-2.774,4.069,12.532,12.532,0,0,0-8.158-3.845,12.744,12.744,0,0,0-7.92,1.249l-.053-.093a9.228,9.228,0,0,1-2.2-4.2,6.071,6.071,0,0,1,3.468-6.064,8.922,8.922,0,0,1,7.253.033c1.724.713,3.27,1.836,5.047,2.411a13.508,13.508,0,0,1,3.725,1.282,4.811,4.811,0,0,1,1.612,5.159" transform="translate(-483.604 -109.743)" fill="#e9be95"/>
        <path id="Trazado_1000939" data-name="Trazado 1000939" d="M605.373,334.433c.016-.559.06-1.131.109-1.625a15.628,15.628,0,0,1-5.04,2.847,5.658,5.658,0,0,1-4.71-.575,16.533,16.533,0,0,1-5.456-5.919c-.02.271-.476,6.3-1.48,7.6a4.492,4.492,0,0,1-.915.858c6.171,2.027,12.61.257,17.492-3.183" transform="translate(-466.937 -261.444)" fill="#c76d5e"/>
        <path id="Trazado_1000940" data-name="Trazado 1000940" d="M600.386,358.65c-1.176-.264-3.012-.766-3.62-1.414a.881.881,0,0,1-.125-.159,5.071,5.071,0,0,1-.28-2.292c-4.883,3.439-11.322,5.21-17.492,3.183a7.931,7.931,0,0,1-1.185.708,9.012,9.012,0,0,1-1.149.489s4.71,8.693,11.289,12.921c0,0,11.289-5.509,13.6-13.224,0,0-.429-.073-1.037-.212" transform="translate(-457.924 -281.797)" fill="#e5907d"/>
        <path id="Trazado_1000941" data-name="Trazado 1000941" d="M666.151,162.157c-.084,0-.169,0-.254-.012a.291.291,0,0,1-.263-.316.287.287,0,0,1,.316-.264c1.434.134,2.608-1.186,3.477-2.348a11.832,11.832,0,0,0,1.74-2.9,4.157,4.157,0,0,0,.02-3.168,4.424,4.424,0,0,0-3.429-2.231,14.1,14.1,0,0,0-4.038.214l-.41.06a11.051,11.051,0,0,1-4.643-.037.291.291,0,0,1,.159-.56,10.588,10.588,0,0,0,4.4.022l.408-.06a14.56,14.56,0,0,1,4.207-.215,4.882,4.882,0,0,1,3.875,2.565,4.73,4.73,0,0,1,0,3.613,12.309,12.309,0,0,1-1.82,3.048c-.911,1.219-2.149,2.591-3.741,2.591" transform="translate(-522.992 -119.346)" fill="#e9be95"/>
        <path id="Trazado_1000942" data-name="Trazado 1000942" d="M603.536,152.458a.289.289,0,0,1-.054-.005,8.757,8.757,0,0,1-4.953-2.594,5.527,5.527,0,0,1-1.233-5.4,5.931,5.931,0,0,1,2.6-2.976,13.771,13.771,0,0,1,3.638-1.4.291.291,0,0,1,.148.563,13.257,13.257,0,0,0-3.485,1.337,5.355,5.355,0,0,0-2.35,2.673,4.942,4.942,0,0,0,1.12,4.82,8.19,8.19,0,0,0,4.626,2.409.291.291,0,0,1-.054.577" transform="translate(-474.204 -111.254)" fill="#e9be95"/>
        <path id="Trazado_1000943" data-name="Trazado 1000943" d="M703.89,195.561a.291.291,0,0,1-.04-.579c2.308-.321,4.266-2.024,5.839-3.391a.291.291,0,1,1,.382.439c-1.631,1.418-3.662,3.183-6.141,3.528a.267.267,0,0,1-.04,0" transform="translate(-558.849 -152.118)" fill="#e9be95"/>
        <path id="Trazado_1000944" data-name="Trazado 1000944" d="M706.608,209.405a.291.291,0,0,1-.014-.582,13.756,13.756,0,0,0,4.763-1.1.291.291,0,0,1,.229.536,14.346,14.346,0,0,1-4.964,1.142h-.014" transform="translate(-561.008 -164.974)" fill="#e9be95"/>
        <path id="Trazado_1000945" data-name="Trazado 1000945" d="M609.072,284.063a2.277,2.277,0,1,1-2.116-2.168,2.149,2.149,0,0,1,2.116,2.168" transform="translate(-480.181 -223.896)" fill="#d36f61"/>
        <path id="Trazado_1000946" data-name="Trazado 1000946" d="M674.587,287.551a2.277,2.277,0,1,1-2.116-2.168,2.149,2.149,0,0,1,2.116,2.168" transform="translate(-532.217 -226.667)" fill="#d36f61"/>
        <path id="Trazado_1000947" data-name="Trazado 1000947" d="M723.93,634.19a2.141,2.141,0,0,0,.652.279c1.758,1.3,3.97,2.7,6.17,2.119a3.763,3.763,0,0,0,2.416-2.142c.413-.856.623-1.8,1-2.684a4.912,4.912,0,0,0,.687-.78.342.342,0,0,0-.047-.448c.565-1.042.861-2.521.093-4.942a10.852,10.852,0,0,1-1.525-4.494c-.035-2.078.534-4.927-.049-5.376-.856-.659-1.82,1.121-2.035,2.552s-1.927,14.326-1.927,14.326l-5.588-.2a1.218,1.218,0,0,0,.151,1.793" transform="translate(-574.604 -488.939)" fill="#e5907d"/>
        <path id="Trazado_1000948" data-name="Trazado 1000948" d="M729.586,634.321c1.454.12,2.047-1.157,2.574-2.294l.107-.231a4.165,4.165,0,0,1,.652-.872c.992-1.132,2.351-2.683,1.143-6.508a.259.259,0,0,0-.024-.053,10.65,10.65,0,0,1-1.494-4.379c-.011-.665.235-2.608.265-3.148.067-1.247.112-2.071-.433-2.425a1.423,1.423,0,0,0-1.227-.164,5.968,5.968,0,0,0-1.268,2.873.266.266,0,0,0,.251.284.273.273,0,0,0,.325-.208c.092-.611.563-2.362.921-2.486a.747.747,0,0,1,.654.095c.293.191.248,1.027.2,2-.029.547-.276,2.5-.265,3.178a10.819,10.819,0,0,0,1.546,4.583c1.12,3.572-.139,5.008-1.058,6.058a4.478,4.478,0,0,0-.724.981l-.108.233c-.64,1.379-1.111,2.195-2.252,1.952a20.28,20.28,0,0,0-2.471-.257c-1.484-.1-3.332-.229-3.9-.642-.8-.581-.124-1.424-.1-1.46a.23.23,0,0,0-.074-.348.321.321,0,0,0-.4.054,1.41,1.41,0,0,0,.2,2.131c.72.519,2.51.643,4.241.762a20.015,20.015,0,0,1,2.374.244,2.719,2.719,0,0,0,.348.052" transform="translate(-573.481 -487.823)" fill="#c76d5e"/>
        <path id="Trazado_1000949" data-name="Trazado 1000949" d="M497.655,638.212a2.145,2.145,0,0,1-.652.279c-1.758,1.3-3.97,2.7-6.17,2.119a3.763,3.763,0,0,1-2.416-2.142c-.413-.856-.623-1.8-1-2.683a4.919,4.919,0,0,1-.687-.78.342.342,0,0,1,.047-.448c-.565-1.042-.861-2.521-.093-4.942a10.853,10.853,0,0,0,1.525-4.494c.035-2.078-.534-4.927.049-5.376.856-.659,1.82,1.121,2.035,2.552s1.927,14.326,1.927,14.326l5.588-.2a1.218,1.218,0,0,1-.151,1.793" transform="translate(-386.19 -492.134)" fill="#e5907d"/>
        <path id="Trazado_1000950" data-name="Trazado 1000950" d="M489.742,638.344c-1.454.12-2.047-1.157-2.574-2.294l-.107-.231a4.168,4.168,0,0,0-.652-.872c-.992-1.132-2.351-2.683-1.143-6.508a.252.252,0,0,1,.024-.053,10.65,10.65,0,0,0,1.494-4.379c.011-.665-.235-2.608-.265-3.148-.067-1.247-.112-2.071.433-2.425a1.423,1.423,0,0,1,1.227-.164,5.967,5.967,0,0,1,1.268,2.873.266.266,0,0,1-.251.284.272.272,0,0,1-.325-.208c-.092-.611-.563-2.362-.921-2.486a.746.746,0,0,0-.654.095c-.293.191-.248,1.027-.2,2,.03.547.276,2.5.265,3.178a10.82,10.82,0,0,1-1.546,4.583c-1.12,3.572.139,5.008,1.059,6.058a4.471,4.471,0,0,1,.724.981l.108.233c.64,1.378,1.111,2.195,2.253,1.952a20.255,20.255,0,0,1,2.471-.257c1.484-.1,3.332-.229,3.9-.642.8-.581.124-1.424.1-1.46a.23.23,0,0,1,.074-.348.321.321,0,0,1,.4.054,1.41,1.41,0,0,1-.2,2.131c-.72.519-2.51.643-4.241.761a20.016,20.016,0,0,0-2.375.244,2.722,2.722,0,0,1-.347.052" transform="translate(-385.055 -491.019)" fill="#c76d5e"/>
        <path id="Trazado_1000951" data-name="Trazado 1000951" d="M750.5,509.689a4.794,4.794,0,0,1-5.443,4.233,4.238,4.238,0,0,1-2.129-.912,3.4,3.4,0,0,1-.819-.791,7.535,7.535,0,0,1-.968-3.912,23.062,23.062,0,0,0-2.671-8.933.418.418,0,0,1-.056-.695.364.364,0,0,1,.526-.056,12.391,12.391,0,0,1,8.363,3.687c1.812,1.86,3.479,4.688,3.2,7.379" transform="translate(-586.374 -395.971)" fill="#a3552e"/>
        <path id="Trazado_1000952" data-name="Trazado 1000952" d="M714.2,408.855a4.656,4.656,0,1,0,4.5-4.807,4.656,4.656,0,0,0-4.5,4.807" transform="translate(-567.267 -320.922)" fill="#a3552e"/>
        <path id="Trazado_1000953" data-name="Trazado 1000953" d="M724.26,414.553a2.5,2.5,0,1,0,2.343-3.1,2.779,2.779,0,0,0-2.343,3.1" transform="translate(-575.258 -326.805)" fill="#e3a086"/>
        <path id="Trazado_1000954" data-name="Trazado 1000954" d="M651.459,410.938a4.656,4.656,0,1,1-4.807-4.5,4.656,4.656,0,0,1,4.807,4.5" transform="translate(-510.042 -322.822)" fill="#a3552e"/>
        <path id="Trazado_1000955" data-name="Trazado 1000955" d="M658.428,416.739a2.5,2.5,0,1,1-2.544-2.938,2.779,2.779,0,0,1,2.544,2.938" transform="translate(-519.088 -328.67)" fill="#e3a086"/>
        <path id="Trazado_1000956" data-name="Trazado 1000956" d="M672.98,428.5c.2,6.082-4.657,8.39-10.738,8.592s-11.083-1.78-11.284-7.861a11.017,11.017,0,0,1,22.023-.731" transform="translate(-517.032 -331.889)" fill="#a3552e"/>
        <path id="Trazado_1000957" data-name="Trazado 1000957" d="M692.582,465.97c.079,2.372-1.815,3.315-4.188,3.394s-4.325-.736-4.4-3.109a4.3,4.3,0,0,1,8.591-.285" transform="translate(-543.273 -366.807)" fill="#e3a086"/>
        <path id="Trazado_1000958" data-name="Trazado 1000958" d="M677.8,450.13a1.384,1.384,0,1,1-1.417-1.576,1.51,1.51,0,0,1,1.417,1.576" transform="translate(-536.19 -356.274)" fill="#473424"/>
        <path id="Trazado_1000959" data-name="Trazado 1000959" d="M720.9,446.949a1.384,1.384,0,1,1-1.417-1.576,1.51,1.51,0,0,1,1.417,1.576" transform="translate(-570.426 -353.747)" fill="#473424"/>
        <path id="Trazado_1000960" data-name="Trazado 1000960" d="M694.095,464.159s-2.574.4-2.636,1.192,1.572,1.4,2.721,1.363a2.874,2.874,0,0,0,2.23-2.028c.109-.617-1.529-.8-2.315-.527" transform="translate(-549.205 -368.57)" fill="#473424"/>
        <path id="Trazado_1000961" data-name="Trazado 1000961" d="M706.834,475.788a.291.291,0,0,1-.074-.572,2.756,2.756,0,0,0,1.908-1.914.291.291,0,0,1,.563.147,3.309,3.309,0,0,1-2.323,2.33.283.283,0,0,1-.074.01" transform="translate(-561.187 -375.757)" fill="#473424"/>
        <path id="Trazado_1000962" data-name="Trazado 1000962" d="M665.209,468.057a1.49,1.49,0,1,1-1.539-1.44,1.49,1.49,0,0,1,1.539,1.44" transform="translate(-525.991 -370.62)" fill="#e48c7e"/>
        <path id="Trazado_1000963" data-name="Trazado 1000963" d="M732.86,465.366a1.49,1.49,0,1,1-1.539-1.44,1.49,1.49,0,0,1,1.539,1.44" transform="translate(-579.724 -368.484)" fill="#e48c7e"/>
        <path id="Trazado_1000964" data-name="Trazado 1000964" d="M663.937,500.3l-7.216.24s-3.815,4.4-3.546,7.646.465,7.46,11.26,7.1,12.05-2.6,12.734-4.665-4.161-10.5-6.539-10.9Z" transform="translate(-518.788 -396.911)" fill="#a3552e"/>
        <path id="Trazado_1000965" data-name="Trazado 1000965" d="M528.891,495.359s.053-7.819,3.1-8.147,6.654,1.252,10.31,1.2,7.707-2.652,9.416-1.244,2.735,8.191,2.735,8.191Z" transform="translate(-420.083 -386.612)" fill="#e48c7e"/>
        <path id="Trazado_1000966" data-name="Trazado 1000966" d="M508.132,509.495s.075-7.208,4.392-7.51,9.417,1.155,14.59,1.105,10.906-2.445,13.325-1.147,3.871,7.551,3.871,7.551Z" transform="translate(-403.595 -398.374)" fill="#30df8e"/>
        <path id="Trazado_1000967" data-name="Trazado 1000967" d="M633.989,526.036s.052-6.362,3.035-6.629,6.507,1.019,10.082.976,7.536-2.158,9.208-1.012,2.675,6.665,2.675,6.665Z" transform="translate(-503.56 -412.252)" fill="#d27358"/>
        <rect id="Rect치ngulo_456452" data-name="Rect치ngulo 456452" width="51.841" height="33.993" transform="translate(104.299 110.504)" fill="#e9be95"/>
        <path id="Trazado_1000968" data-name="Trazado 1000968" d="M493.865,537.137l-3.395,6.7h57.115l-1.878-6.7Z" transform="translate(-389.567 -426.633)" fill="#e79e6e"/>
        <path id="Trazado_1000969" data-name="Trazado 1000969" d="M704.152,658.62a.291.291,0,0,1-.184-.517l9.412-7.664a.291.291,0,1,1,.368.451l-9.412,7.664a.291.291,0,0,1-.184.065" transform="translate(-559.057 -516.574)" fill="#e79e6e"/>
        <path id="Trazado_1000970" data-name="Trazado 1000970" d="M699.093,670.3a.291.291,0,0,1-.222-.479l2.811-3.317a.291.291,0,0,1,.444.376l-2.811,3.316a.289.289,0,0,1-.222.1" transform="translate(-555.039 -529.304)" fill="#e79e6e"/>
        <path id="Trazado_1000971" data-name="Trazado 1000971" d="M487.838,52.722v6.4h5.755v5.755h6.4V59.12h5.755v-6.4h-5.755V46.974h-6.4v5.748Z" transform="translate(-387.476 -37.311)" fill="#d27358"/>
      </g>
    </g>
  </g>
</svg>
