<svg xmlns="http://www.w3.org/2000/svg" xmlns:xlink="http://www.w3.org/1999/xlink" width="156" height="156" viewBox="0 0 156 156">
  <defs>
    <clipPath id="clip-path">
      <rect id="Rectángulo_456450" data-name="Rectángulo 456450" width="47.931" height="81.657" fill="#12263f"/>
    </clipPath>
  </defs>
  <g id="Grupo_1183880" data-name="Grupo 1183880" transform="translate(-1234.554 -458.054)">
    <g id="Elipse_12108" data-name="Elipse 12108" transform="translate(1241.554 465.054)" fill="#30df8e" stroke="rgba(255,255,255,0.4)" stroke-width="7">
      <circle cx="71" cy="71" r="71" stroke="none"/>
      <circle cx="71" cy="71" r="74.5" fill="none"/>
    </g>
    <g id="Grupo_1186200" data-name="Grupo 1186200" transform="translate(1288.588 492.852)">
      <g id="Grupo_1186199" data-name="Grupo 1186199" clip-path="url(#clip-path)">
        <path id="Trazado_1000780" data-name="Trazado 1000780" d="M6.374,25.918c4.131.288,8.1-2.65,9.716-6.341.414-.947.706-3.542,1.872-3.638,1.261-.1,1.376,1.562,1.822,2.4,3.555,6.661,15.049,7.9,21.771,7.581v-4.4c0-.636,1.176-.837,1.7-.681,1.229.369.617,4.281.744,5.362a5.5,5.5,0,0,1-.929,10.739c-.52.083-1.612-.116-1.934.112-.2.138-1.269,3.73-1.649,4.488a18.566,18.566,0,0,1-7.569,7.567c-.391.216-2.018.77-2.131.937-.323.477.046,2.638-.1,3.35,1.4.513,2.9.723,4.3,1.264C44.735,58.8,47.017,69.547,45.856,80.024a1.641,1.641,0,0,1-1.226,1.633H3.3A1.581,1.581,0,0,1,2.092,80.21c-.364-2.6-.2-11.767.907-14,.437-.883,1.355-1.253,2.062-.426.658.769-.422,3.062-.525,4.214-.264,2.973.19,6.293,0,9.3H43.4V69.588c0-5.5-6.592-11.714-11.615-13.135a29.583,29.583,0,0,1-3.526-.77,3.259,3.259,0,0,1-1.018-1.027V50.975c0-.475-2.505.106-2.96.113-1.068.016-2.162-.342-3.169-.335-.17,0-.417.073-.417.222v3.682a3.259,3.259,0,0,1-1.018,1.027c-.876.43-2.94.579-4.138.976a17.5,17.5,0,0,0-5.482,3.108c-.61.527-2.339,2.714-2.66,2.861a1.209,1.209,0,0,1-1.727-1.519c.408-1.11,3.352-3.66,4.408-4.388A21.119,21.119,0,0,1,18.21,53.5c-.056-.7.266-3.188-.175-3.553-.345-.285-2.158-.917-2.8-1.293a18.2,18.2,0,0,1-6.925-7.393c-.343-.714-1.333-4.082-1.516-4.211-.32-.227-1.414-.03-1.934-.112A5.5,5.5,0,0,1,3.933,26.2c.192-3.581-.3-7.489-.02-11.03a4.659,4.659,0,0,1,3.081-4.487c.5-.206,1.386-.192,1.732-.518.487-.459,1.56-2.654,2.249-3.478C20.559-4.791,39.622-.861,43.3,13.644c.3,1.2,1.118,3.557-.507,4.011-1.5.42-1.694-2.962-2-3.96C37,1.248,20.115-1.744,12.425,8.753c-.593.81-1.789,3.436-2.171,3.76-.675.574-1.742.126-2.6.469a2.988,2.988,0,0,0-1.28,1.584ZM38.9,28.373c-7.37-.158-15.8-1.59-20.556-7.768-1.952,3.718-4.964,6.651-9.188,7.54-.5,5.849-.362,11.263,3.867,15.776A15.076,15.076,0,0,0,38.03,38.858a19.459,19.459,0,0,0,.866-3.02Zm-32.317,0c-5.514-.652-5.565,6.869,0,6.136Zm34.772,6.136c5.565.733,5.514-6.788,0-6.136Z" transform="translate(0 0)" fill="#12263f"/>
        <path id="Trazado_1000781" data-name="Trazado 1000781" d="M43.541,361.637a4.9,4.9,0,0,1,1.57-.015c2,.161,5.508,1.415,7.228,1.352.9-.033,2.9-2.354,3.959-.883,1.161,1.608-2.651,3.038-3.759,3.32L43.4,363.737c-.652-.341-.615-1.878.138-2.1" transform="translate(-34.16 -287.61)" fill="#12263f"/>
        <path id="Trazado_1000782" data-name="Trazado 1000782" d="M43.656,336.745a3.089,3.089,0,0,1,.945-.022c2.177.133,5.653,1.454,7.609,1.381,1.087-.04,2.792-2.1,3.872-.99,1.6,1.642-2.591,3.172-3.654,3.453l-8.98-1.66a1.172,1.172,0,0,1,.207-2.162" transform="translate(-34.064 -267.829)" fill="#12263f"/>
        <path id="Trazado_1000783" data-name="Trazado 1000783" d="M126.087,361.588c1.021-.178,2.561,1.352,3.182,1.352,1.645,0,4.734-1.185,6.61-1.357.576-.053,1.543-.214,1.9.3a1.213,1.213,0,0,1-.7,1.924,77.085,77.085,0,0,1-8.15,1.575,12,12,0,0,1-3.585-1.9,1.177,1.177,0,0,1,.745-1.892" transform="translate(-99.516 -287.571)" fill="#12263f"/>
        <path id="Trazado_1000784" data-name="Trazado 1000784" d="M126.267,336.975c.714-.018,2.212,1.261,3.041,1.369l7.532-1.354a1.2,1.2,0,0,1,.226,2.38A73.033,73.033,0,0,1,128.9,340.8a12.642,12.642,0,0,1-3.691-2.041,1.241,1.241,0,0,1,1.059-1.784" transform="translate(-99.503 -268.05)" fill="#12263f"/>
        <path id="Trazado_1000785" data-name="Trazado 1000785" d="M62.874,312.7a1.623,1.623,0,0,1,0,1.741,21.615,21.615,0,0,1-3.339,1.68,49.73,49.73,0,0,1-7.047-1.11,4.356,4.356,0,0,1-1.02-.412c-1.346-3.881,5.5-.819,7.469-.913,1.03-.049,2.844-2.081,3.941-.987" transform="translate(-40.799 -248.48)" fill="#12263f"/>
        <path id="Trazado_1000786" data-name="Trazado 1000786" d="M125.434,314.5a1.522,1.522,0,0,1,.083-1.805c1.384-.878,2.629.909,3.666,1.037,1.685.207,4.953-1.2,6.736-1.125,1.4.056,1.783,1.9.059,2.418-1.118.337-6.647,1.294-7.536,1.067a29.78,29.78,0,0,1-3.008-1.591" transform="translate(-99.575 -248.546)" fill="#12263f"/>
        <path id="Trazado_1000787" data-name="Trazado 1000787" d="M72.534,286.232c-.226.226-.751.235-1.068.261a49.023,49.023,0,0,1-7.164-.012,1.157,1.157,0,0,1,0-2.242c1.037-.2,5.762.3,6.137-.2s-.1-1.65,1.416-1.442c1.264.173,1.158,3.159.679,3.638" transform="translate(-50.458 -224.772)" fill="#12263f"/>
        <path id="Trazado_1000788" data-name="Trazado 1000788" d="M126.941,282.893c.256.266.159.928.349,1.186.413.56,5.241-.082,6.306.238a1.174,1.174,0,0,1-.169,2.206c-1.871-.333-6.505.518-8.029-.132-.6-.255-.58-2.41-.413-2.991a1.284,1.284,0,0,1,1.956-.507" transform="translate(-99.341 -224.815)" fill="#12263f"/>
        <path id="Trazado_1000789" data-name="Trazado 1000789" d="M95.124,196.771c1.731-.209,4.757.133,6.083,1.371a1.247,1.247,0,0,1-.649,2.211c-.42.038-1.618-.825-2.208-.99a7.261,7.261,0,0,0-4.613.317c-.745.281-1.46,1.316-2.344.3-1.51-1.738,2.458-3.055,3.73-3.208" transform="translate(-72.431 -156.477)" fill="#12263f"/>
        <path id="Trazado_1000790" data-name="Trazado 1000790" d="M68.1,141.237c1.7,1.394-.947,2.343-1.847,2.837-.748.41-1.62,1.671-2.6.69-.821-.819-.145-1.561.526-2.154.742-.656,3.032-2.107,3.925-1.373" transform="translate(-50.329 -112.188)" fill="#12263f"/>
        <path id="Trazado_1000791" data-name="Trazado 1000791" d="M145.3,141.237c.893-.734,3.182.717,3.925,1.373.671.593,1.347,1.335.526,2.154-.983.981-1.855-.28-2.6-.69-.9-.494-3.542-1.443-1.847-2.837" transform="translate(-115.136 -112.188)" fill="#12263f"/>
        <path id="Trazado_1000792" data-name="Trazado 1000792" d="M80.746,159.8c2.212-.393,2.144,5.476-.352,4.36-.9-.4-1.134-4.1.352-4.36" transform="translate(-63.379 -127.097)" fill="#12263f"/>
        <path id="Trazado_1000793" data-name="Trazado 1000793" d="M142.807,159.772c2.132-.4,1.744,3.817.985,4.274-2.438,1.469-2.6-3.974-.985-4.274" transform="translate(-112.757 -127.071)" fill="#12263f"/>
      </g>
    </g>
  </g>
</svg>
