<svg xmlns="http://www.w3.org/2000/svg" xmlns:xlink="http://www.w3.org/1999/xlink" width="156" height="156" viewBox="0 0 156 156">
  <defs>
    <clipPath id="clip-path">
      <rect id="Rectángulo_456449" data-name="Rectángulo 456449" width="61.817" height="83.617" fill="#12263f"/>
    </clipPath>
  </defs>
  <g id="Grupo_1183879" data-name="Grupo 1183879" transform="translate(-1234.554 -458.054)">
    <g id="Elipse_12108" data-name="Elipse 12108" transform="translate(1241.554 465.054)" fill="#30df8e" stroke="rgba(255,255,255,0.4)" stroke-width="7">
      <circle cx="71" cy="71" r="71" stroke="none"/>
      <circle cx="71" cy="71" r="74.5" fill="none"/>
    </g>
    <g id="Grupo_1186198" data-name="Grupo 1186198" transform="translate(1281.645 494.246)">
      <g id="Grupo_1186197" data-name="Grupo 1186197" transform="translate(0 -0.001)" clip-path="url(#clip-path)">
        <path id="Trazado_1000765" data-name="Trazado 1000765" d="M48.563,162.581H84.081L80.269,157.1a1.248,1.248,0,0,1,1.724-1.724c.772.383,2.306,3.714,3.341,4.285V140.644l-1.353,2.721c-1.527,1.85-4.3,1.133-4.306,4.489,0,1.338,1.387,4.605-.9,4.485-.815-.043-.976-.7-1.147-1.376-.761-3.034-.595-6.317,2.336-8.063.923-.549,1.91-.5,2.491-1.687a80.126,80.126,0,0,0,2.881-10.073c.223-2.028.245-10.368-.268-12.06-.93-3.06-3.271-3.229-4.75-5.068-1.022-1.272.227-2.512,1.75-1.751,3.054,1.528,5.878,5.3,5.784,8.84l-.1,50.269-.333.5H45.227l-.333-.5-.09-50.674a9.373,9.373,0,0,1,2.708-6.067c.593-.581,3.193-2.6,3.876-2.622a1.2,1.2,0,0,1,1.319,1.327c-.14.9-3.023,2.538-3.834,3.492-2.914,3.424-1.043,10.241-1.547,14.5,1.239,2.828,1.561,7.234,2.862,9.883.581,1.184,1.568,1.138,2.491,1.688,4.588,2.732,2.392,9.427.358,13.189Zm-1.254-2.925c2.831-3.223,5.663-7.316,5.659-11.8,0-3.359-2.773-2.632-4.306-4.489l-1.353-2.721Zm38.025,5.432H47.31v4.6H85.334Z" transform="translate(-35.444 -88.603)" fill="#12263f"/>
        <path id="Trazado_1000766" data-name="Trazado 1000766" d="M170.613.276a1.305,1.305,0,0,1,2,.516c.294,2.589-.242,5.564.044,8.1.166,1.474.782,1.642,1.948,2.23,5.574,2.809,13.6,4.389,17.358,9.593,5.141,7.111,1.874,20.6,2.838,29.127.205,1.816,1.691,3.351,1.691,5.64,0,2.678-1.881,4.484-2.1,7.107-.541,6.35.388,13.428.008,19.856a1.158,1.158,0,0,1-2.2.507l-.111-21.829c.368-2.2,1.945-3.485,1.9-5.851-.039-1.907-1.484-3.36-1.687-5.219-.716-6.525.437-14.395.01-21.112-.674-10.588-10.482-11.625-18.26-15.377-1.374-.663-3.01-1.369-3.526-2.951-.378-1.159-.3-7.709-.168-9.251.027-.324.036-.859.267-1.09" transform="translate(-134.672 0.001)" fill="#12263f"/>
        <path id="Trazado_1000767" data-name="Trazado 1000767" d="M2.3,224.819c-.231-.231-.24-.766-.267-1.09-.524-6.283.54-13.358.005-19.645-.313-3.677-2.935-4.768-1.727-9.254.3-1.12,1.151-2.262,1.294-3.3.461-3.367-.376-7.61.043-11.03.268-2.183,2.291-2.03,2.493-.453-.351,3.673.443,8.118-.029,11.693-.245,1.858-1.7,3.181-1.668,5.244.03,2.24,1.565,3.523,1.9,5.636l.009,21.323a1.263,1.263,0,0,1-2.05.879" transform="translate(0 -141.49)" fill="#12263f"/>
        <path id="Trazado_1000768" data-name="Trazado 1000768" d="M31.727.276c.231.231.24.766.267,1.09.129,1.542.209,8.091-.168,9.251a4.83,4.83,0,0,1-2.088,2.3c-7.605,4.458-18.9,4.469-19.687,15.831-.084,1.218.493,4.935-.781,5.29-1.123.313-1.626-.545-1.734-1.527a25.329,25.329,0,0,1,.735-7.632c2.6-8.891,12.288-10.133,19.468-13.751,1.176-.593,1.781-.759,1.948-2.23.288-2.536-.251-5.517.044-8.1a1.305,1.305,0,0,1,2-.516" transform="translate(-5.914 0.001)" fill="#12263f"/>
        <path id="Trazado_1000769" data-name="Trazado 1000769" d="M89.486,76.6c-.012-1.045-.321-3.124,1.176-3.289,2.2-.243,1.7,5.431-.543,5.7l-9.263.058c-1.312-.446-.521-2.467.378-2.467Z" transform="translate(-63.413 -57.989)" fill="#12263f"/>
        <path id="Trazado_1000770" data-name="Trazado 1000770" d="M160.968,76.6h8.253c.9,0,1.69,2.021.378,2.467l-9.263-.058c-2.244-.267-2.744-5.942-.544-5.7,1.813.2.985,3.289,1.177,3.289" transform="translate(-125.285 -57.989)" fill="#12263f"/>
        <path id="Trazado_1000771" data-name="Trazado 1000771" d="M91.21,165.178a1.155,1.155,0,0,1,1.36,1.576,19.4,19.4,0,0,1-4.225,3.307,45.388,45.388,0,0,1-7.221.1c-1.636-.193-1.775-2.015-.531-2.419,1.692-.549,5.109.289,6.968-.136,1-.228,2.537-2.243,3.649-2.428" transform="translate(-63.099 -130.651)" fill="#12263f"/>
        <path id="Trazado_1000772" data-name="Trazado 1000772" d="M155.026,165.167c1.372-.258,3.009,2.166,4.171,2.431,1.859.425,5.276-.414,6.968.136,1.244.4,1.1,2.226-.531,2.419a45.437,45.437,0,0,1-7.221-.1,21.978,21.978,0,0,1-4.142-3.174,1.106,1.106,0,0,1,.755-1.713" transform="translate(-121.904 -130.644)" fill="#12263f"/>
        <path id="Trazado_1000773" data-name="Trazado 1000773" d="M90.822,132.093c1.086-.293,2.111.543,1.617,1.619a22.863,22.863,0,0,1-3.808,2.879,62.16,62.16,0,0,1-7.676.046c-1.231-.239-1.16-2.018.089-2.409,1.7-.532,4.919.273,6.757-.138.915-.2,2.159-1.765,3.02-2" transform="translate(-63.34 -104.448)" fill="#12263f"/>
        <path id="Trazado_1000774" data-name="Trazado 1000774" d="M156.566,132.068c1.465-.435,2.748,1.731,3.968,2,1.844.412,4.751-.323,6.6.089,1.385.309,1.546,2.207.249,2.458a62.2,62.2,0,0,1-7.676-.046,22.873,22.873,0,0,1-3.807-2.879,1.187,1.187,0,0,1,.669-1.625" transform="translate(-123.24 -104.43)" fill="#12263f"/>
        <path id="Trazado_1000775" data-name="Trazado 1000775" d="M109.469,230.082a1.21,1.21,0,0,1,1.524.915c.308,1.854-4.077,7.451-5.8,7.792a1.279,1.279,0,0,1-1.41-1.847c.135-.293,2.679-2.331,3.23-3.037.648-.83,1.742-3.614,2.453-3.823" transform="translate(-81.993 -181.974)" fill="#12263f"/>
        <path id="Trazado_1000776" data-name="Trazado 1000776" d="M157.525,230.112c1.492-.433,2.341,2.726,3.2,3.823a21.758,21.758,0,0,0,3.143,2.915,1.266,1.266,0,0,1-.969,2c-.862.057-2.835-1.919-3.438-2.6-.811-.921-4.25-5.458-1.933-6.131" transform="translate(-123.989 -182.003)" fill="#12263f"/>
        <path id="Trazado_1000777" data-name="Trazado 1000777" d="M97.633,205.126c1.216-.241,1.581,1.153,1.072,2.137a10.276,10.276,0,0,1-2.755,2.258c-1.173.629-5.3,2.109-5.153-.335.081-1.388,2.677-1.154,3.9-1.755,1-.491,2.222-2.163,2.938-2.305" transform="translate(-71.824 -162.248)" fill="#12263f"/>
        <path id="Trazado_1000778" data-name="Trazado 1000778" d="M166.566,205.148c1.006-.269,2.464,1.848,3.609,2.37,1.189.542,3.675.3,3.756,1.689.135,2.3-3.541,1.1-4.736.544-.83-.389-3.042-1.9-3.315-2.743-.22-.679-.083-1.655.685-1.86" transform="translate(-131.149 -162.268)" fill="#12263f"/>
        <path id="Trazado_1000779" data-name="Trazado 1000779" d="M143.83,296.9c.347.365.37,3.416.258,4.015a1.274,1.274,0,0,1-2.458.171,16.857,16.857,0,0,1,.007-3.677,1.326,1.326,0,0,1,2.194-.509" transform="translate(-111.962 -234.572)" fill="#12263f"/>
      </g>
    </g>
  </g>
</svg>
